<?xml version="1.0" encoding="UTF-8"?>
<svg version="1.1" xmlns="http://www.w3.org/2000/svg" width="275" height="183">
<path d="M0 0 C90.75 0 181.5 0 275 0 C275 60.39 275 120.78 275 183 C184.25 183 93.5 183 0 183 C0 122.61 0 62.22 0 0 Z " fill="#FEFEFE" transform="translate(0,0)"/>
<path d="M0 0 C11.58916602 -0.67183571 20.95551664 2.69132658 30 10 C35.67765198 15.34367245 39.60124264 22.83915956 40.203125 30.62890625 C40.37208045 41.20270119 38.9595993 49.78057441 31.94921875 57.99609375 C24.07444569 66.09180233 16.33962142 69.25021104 5.0625 69.5 C-3.9916228 69.45699003 -10.20781746 66.77151855 -16.875 60.75 C-23.02159567 54.02353681 -25.30062374 46.03178283 -25 37 C-23.90685781 29.87731563 -20.27004857 24.7830831 -15 20 C-7.52095099 14.59759716 0.00703594 14.25686884 9 15 C15.80082322 16.72492608 19.38918834 21.22769901 23 27 C25.23692193 31.47384387 24.70682128 37.67594089 23.28125 42.36328125 C20.70640038 47.87636652 16.81015615 51.88721594 11 54 C7.75 54.125 7.75 54.125 5 54 C5 51.03 5 48.06 5 45 C6.11375 44.566875 7.2275 44.13375 8.375 43.6875 C12.17512334 42.30088881 12.17512334 42.30088881 14 39 C14.56721217 33.20055854 14.56721217 33.20055854 12.1875 28.0625 C8.21597277 24.31791718 3.92160927 24.66097364 -1.2734375 24.72265625 C-6.4735721 25.25160977 -9.00085884 27.89568609 -12.375 31.625 C-14.88191138 36.83166209 -15.01704938 41.71458767 -13.3046875 47.24609375 C-11.12358763 52.09400061 -8.32629417 54.9623892 -4 58 C2.12451359 60.04150453 10.38933475 60.23115956 16.5546875 58.12890625 C22.74394767 54.45629078 27.78843205 48.8759658 30 42 C30.89496194 33.96615564 30.41080034 26.89820249 26 20 C19.20615447 11.50769308 10.31813376 10.19539355 0 9 C0 6.03 0 3.06 0 0 Z " fill="#2A9C3B" transform="translate(25,57)"/>
<path d="M0 0 C2.64 0 5.28 0 8 0 C8 13.53 8 27.06 8 41 C5.69 41 3.38 41 1 41 C0.67 40.34 0.34 39.68 0 39 C-0.61875 39.495 -1.2375 39.99 -1.875 40.5 C-6.29980743 42.62390756 -10.17278453 42.68185387 -15 42 C-19.33663137 39.99230029 -22.11084532 37.43366983 -24.296875 33.1171875 C-25.7567723 28.72127452 -25.8701603 24.53262605 -25 20 C-22.70063292 15.41610046 -19.87669372 11.85133743 -15 10 C-12.5625 9.734375 -12.5625 9.734375 -10 9.75 C-8.7315625 9.74226563 -8.7315625 9.74226563 -7.4375 9.734375 C-5 10 -5 10 -1 12 C-0.67 8.04 -0.34 4.08 0 0 Z " fill="#2B9D3B" transform="translate(134,70)"/>
<path d="M0 0 C3.0625 1.5 3.0625 1.5 5 3 C5.33 2.34 5.66 1.68 6 1 C8.31 1 10.62 1 13 1 C13 11.23 13 21.46 13 32 C10.69 32 8.38 32 6 32 C5.67 31.01 5.34 30.02 5 29 C4.38125 29.495 3.7625 29.99 3.125 30.5 C-1.30366365 32.62575855 -5.16913919 32.67461459 -10 32 C-14.86081159 29.83963929 -17.20004374 26.96355677 -19.3046875 22.21484375 C-20.97201145 16.90376129 -20.83936648 12.64764532 -18.3125 7.6875 C-12.72704291 1.19629311 -8.40331146 -0.86930808 0 0 Z " fill="#299C3A" transform="translate(91,80)"/>
<path d="M0 0 C2.41869578 1.1589584 4.12322096 2.12322096 6 4 C6.33 3.01 6.66 2.02 7 1 C9.31 1 11.62 1 14 1 C14 10.9 14 20.8 14 31 C11.69 31 9.38 31 7 31 C6.67 30.34 6.34 29.68 6 29 C5.195625 29.495 4.39125 29.99 3.5625 30.5 C-0.82959787 32.34930437 -4.30084223 32.75085286 -9 32 C-13.82626694 29.63239735 -16.73430831 26.87995132 -19 22 C-19.84767509 16.30394027 -20.12438063 10.8633984 -16.8125 5.9375 C-11.94511893 0.37865254 -7.25339674 -1.01179628 0 0 Z " fill="#299C3A" transform="translate(261,80)"/>
<path d="M0 0 C2.31 0 4.62 0 7 0 C7.01981934 0.55461914 7.03963867 1.10923828 7.06005859 1.68066406 C7.15557651 4.20423693 7.26514567 6.72701224 7.375 9.25 C7.4059375 10.12269531 7.436875 10.99539062 7.46875 11.89453125 C7.50742188 12.73886719 7.54609375 13.58320312 7.5859375 14.453125 C7.6173584 15.22817383 7.6487793 16.00322266 7.68115234 16.80175781 C8.03026506 19.20865742 8.80551104 20.89602295 10 23 C12.31 23 14.62 23 17 23 C18.67128932 20.05618512 19.27731759 17.82616606 19.4140625 14.453125 C19.45273438 13.60878906 19.49140625 12.76445313 19.53125 11.89453125 C19.5621875 11.02183594 19.593125 10.14914063 19.625 9.25 C19.66367188 8.36183594 19.70234375 7.47367187 19.7421875 6.55859375 C19.83620873 4.3726002 19.92186143 2.18660938 20 0 C22.64 0 25.28 0 28 0 C28 10.23 28 20.46 28 31 C24.33333333 31 20.66666667 31 17 31 C16.25105469 31.05800781 15.50210938 31.11601563 14.73046875 31.17578125 C7.0202214 31.59031068 7.0202214 31.59031068 3.4375 28.625 C0.05463225 24.98191166 -0.12321543 23.41093259 -0.09765625 18.5546875 C-0.09443359 17.47832031 -0.09121094 16.40195313 -0.08789062 15.29296875 C-0.07951172 14.16503906 -0.07113281 13.03710938 -0.0625 11.875 C-0.05798828 10.73933594 -0.05347656 9.60367188 -0.04882812 8.43359375 C-0.03701615 5.62234362 -0.02054507 2.8111977 0 0 Z " fill="#2D9E3D" transform="translate(175,81)"/>
<path d="M0 0 C3.68734021 1.50845736 5.99506729 3.63578985 8.17089844 6.98486328 C9.9712138 11.36054143 9.39880292 16.22777026 9.25 20.875 C9.23195312 21.94492188 9.21390625 23.01484375 9.1953125 24.1171875 C9.14837439 26.74572178 9.08272933 29.37238913 9 32 C6.36 32 3.72 32 1 32 C0.98018066 31.34402832 0.96036133 30.68805664 0.93994141 30.01220703 C0.84487493 27.04938931 0.73512248 24.08729468 0.625 21.125 C0.5940625 20.09246094 0.563125 19.05992188 0.53125 17.99609375 C0.49257812 17.00996094 0.45390625 16.02382812 0.4140625 15.0078125 C0.36693115 13.64100342 0.36693115 13.64100342 0.31884766 12.24658203 C0.20117489 9.80068814 0.20117489 9.80068814 -2 8 C-4.95769177 7.49989476 -4.95769177 7.49989476 -8 8 C-10.11741714 9.81636257 -10.90006379 11.35978598 -11.3293457 14.10986328 C-11.52007796 16.65857734 -11.62145658 19.19506295 -11.6875 21.75 C-11.72166016 22.63816406 -11.75582031 23.52632812 -11.79101562 24.44140625 C-11.87328714 26.62747803 -11.94250172 28.81315951 -12 31 C-14.31 31 -16.62 31 -19 31 C-19 21.1 -19 11.2 -19 1 C-16 1 -13 1 -10 1 C-6.8017988 -0.5991006 -3.4787562 -0.36195151 0 0 Z " fill="#2A9D3B" transform="translate(228,80)"/>
<path d="M0 0 C6.93 0 13.86 0 21 0 C21 7.87385958 21 7.87385958 18.8828125 10.421875 C18.44066406 10.97230469 17.99851563 11.52273437 17.54296875 12.08984375 C17.07503906 12.63769531 16.60710937 13.18554688 16.125 13.75 C15.21049783 14.86943263 14.29642033 15.98921235 13.3828125 17.109375 C12.59648437 18.06328125 11.81015625 19.0171875 11 20 C10.34 20.99 9.68 21.98 9 23 C13.29 23.33 17.58 23.66 22 24 C22 25.98 22 27.96 22 30 C14.41 30 6.82 30 -1 30 C-1 22.12621359 -1 22.12621359 1.3359375 19.359375 C1.82320312 18.76382813 2.31046875 18.16828125 2.8125 17.5546875 C3.328125 16.95914063 3.84375 16.36359375 4.375 15.75 C5.38335195 14.53690654 6.39118393 13.32338062 7.3984375 12.109375 C7.84880371 11.58311523 8.29916992 11.05685547 8.76318359 10.51464844 C10.19929542 8.80571738 10.19929542 8.80571738 12 6 C8.04 6 4.08 6 0 6 C0 4.02 0 2.04 0 0 Z " fill="#259B36" transform="translate(148,81)"/>
<path d="M0 0 C2.875 1.5625 2.875 1.5625 5 4 C6.14888518 7.94929279 6.43129396 10.02958859 4.75 13.8125 C3 16 3 16 0 18 C-4.21178243 18.46797583 -6.28599114 18.46565795 -9.875 16.125 C-12.38666318 13.61333682 -12.92153796 12.70615837 -13.3125 9.1875 C-12.92835642 5.2692355 -11.70743683 3.78706733 -9 1 C-5.89951072 -0.55024464 -3.42105782 -0.28992015 0 0 Z " fill="#F9FCF9" transform="translate(262,87)"/>
<path d="M0 0 C2.75329021 1.79562405 4.52627461 3.05254922 6 6 C6.43023798 9.87214182 6.31669086 11.52496371 4.125 14.8125 C1.40819426 17.60921179 0.60386898 17.94303123 -3.3125 18.3125 C-7.57536111 17.95124058 -9.01992054 16.98007946 -12 14 C-13.42662219 11.14675563 -13.31033868 9.16545451 -13 6 C-9.24647283 0.36970925 -6.73139654 -0.57045733 0 0 Z " fill="#F7FBF8" transform="translate(129,87)"/>
<path d="M0 0 C3.55247432 0.87379409 4.94828114 2.4927342 6.9375 5.4765625 C7.63597125 8.3162489 7.63597125 10.6368761 6.9375 13.4765625 C4.94828114 16.4603908 3.55247432 18.07933091 0 18.953125 C-3.92313492 19.23547183 -5.73362371 18.69581336 -9.0625 16.4765625 C-11.28175086 13.14768621 -11.82140933 11.33719742 -11.5390625 7.4140625 C-10.07519871 1.46261629 -5.59135555 -0.40240816 0 0 Z " fill="#F9FCF9" transform="translate(90.0625,86.5234375)"/>
</svg>
