<?xml version="1.0" encoding="UTF-8"?>
<svg version="1.1" xmlns="http://www.w3.org/2000/svg" width="275" height="183">
<path d="M0 0 C10.48034813 -0.82198809 20.43420329 2.62586243 28.7734375 8.94140625 C35.28585472 14.96253586 39.85136138 22.23135996 40.3359375 31.20703125 C40.64660333 47.03733271 40.64660333 47.03733271 36 54 C35.57589844 54.69222656 35.15179688 55.38445312 34.71484375 56.09765625 C29.88750132 63.29160667 22.81739022 68.10666812 14.51171875 70.52734375 C4.38048889 72.43384268 -4.65304706 71.31324619 -13.21875 65.4921875 C-19.1221011 60.75629016 -23.57150751 54.5384802 -25 47 C-25.86861333 38.53722439 -24.9486846 32.03366339 -20 25 C-15.08043255 19.20639772 -8.16514802 15.77260197 -0.67578125 14.65234375 C6.16471058 14.37776903 12.49481323 15.94017977 17.8125 20.3125 C18.534375 21.199375 19.25625 22.08625 20 23 C20.7425 23.886875 21.485 24.77375 22.25 25.6875 C24.89615122 30.69628623 25.65835776 35.64994946 24.55859375 41.24609375 C22.20869313 48.34950762 17.54926734 51.99200678 11.0625 55.30078125 C9 56 9 56 4 56 C4 52.7 4 49.4 4 46 C5.6396875 45.4121875 5.6396875 45.4121875 7.3125 44.8125 C9.94032177 43.66649253 11.04039601 42.95455449 13 40.75 C14.35875763 37.01341653 14.10678189 34.80456275 13 31 C10.25863294 27.74462661 7.71660603 26.72581497 3.625 26.0625 C-1.96031032 25.67217881 -5.97276837 27.35629868 -10.3125 30.875 C-13.86951332 35.35420196 -14.57640198 39.33204721 -14 45 C-11.70801804 51.836878 -7.93830344 55.70265633 -1.75 59.3125 C5.3210185 61.08025462 11.52531855 60.47118643 18.03125 57.1953125 C23.73363338 53.73315116 27.90067087 48.34951958 29.5390625 41.8671875 C30.76344972 33.69511466 29.07764608 26.52073811 24.39453125 19.71875 C18.51648474 12.47409884 8.65055047 11.69836495 0 10 C0 6.7 0 3.4 0 0 Z " fill="#2B943B" transform="translate(25,56)"/>
<path d="M0 0 C2.64 0 5.28 0 8 0 C8 13.86 8 27.72 8 42 C5.36 42 2.72 42 0 42 C-0.33 41.34 -0.66 40.68 -1 40 C-1.680625 40.495 -2.36125 40.99 -3.0625 41.5 C-6.77690433 43.3967171 -8.85954295 43.49124067 -13 43 C-18.81687213 41.07193564 -22.06806605 38.51203582 -25 33 C-26.79910157 27.60269529 -26.69468904 22.89951716 -24.375 17.75 C-21.74727502 12.99017076 -18.11150856 10.70383619 -13 9 C-7.73428531 8.60258757 -4.5556846 9.3332578 0 12 C0 8.04 0 4.08 0 0 Z M-15 20 C-17.33984763 21.92446296 -17.33984763 21.92446296 -17.375 25.3125 C-16.93729999 29.61655014 -16.20496949 31.13239572 -13 34 C-9.36706886 35.23674251 -7.75808047 35.34458203 -4.25 33.75 C-1.78918149 32.02635231 -1.78918149 32.02635231 0 29 C0.42379221 25.11523809 0.61457992 22.89823219 -1.625 19.625 C-6.64741264 16.1886124 -10.19915562 16.39936671 -15 20 Z " fill="#2A973A" transform="translate(134,70)"/>
<path d="M0 0 C0.495 0.309375 0.99 0.61875 1.5 0.9375 C1.83 0.2775 2.16 -0.3825 2.5 -1.0625 C5.14 -1.0625 7.78 -1.0625 10.5 -1.0625 C10.5 9.4975 10.5 20.0575 10.5 30.9375 C7.86 30.9375 5.22 30.9375 2.5 30.9375 C2.17 30.2775 1.84 29.6175 1.5 28.9375 C0.654375 29.4325 -0.19125 29.9275 -1.0625 30.4375 C-6.01915425 32.60040367 -9.56846706 32.67148252 -14.625 30.75 C-19.06365539 27.95171726 -21.83943586 25.52885907 -23.875 20.625 C-24.8451143 14.9013256 -24.50087284 10.86510695 -21.8125 5.6875 C-15.78169595 -1.48426697 -8.66295307 -3.68175505 0 0 Z M-12.5 7.9375 C-14.89442371 10.24935738 -15.44472919 11.566396 -15.9375 14.875 C-15.3844646 18.74624779 -14.3677605 20.29614164 -11.5 22.9375 C-8.11773171 24.01694733 -6.17257374 24.1209292 -2.75 23.1875 C-0.21265469 22.00260167 -0.21265469 22.00260167 1.5 18.9375 C2.13008484 13.34500191 2.13008484 13.34500191 -0.1875 8.5 C-4.6017072 5.51742756 -7.82275862 5.35270871 -12.5 7.9375 Z " fill="#2E853B" transform="translate(94.5,81.0625)"/>
<path d="M0 0 C0.99 0.66 1.98 1.32 3 2 C3.66 1.34 4.32 0.68 5 0 C7.31 0 9.62 0 12 0 C12 10.56 12 21.12 12 32 C9.69 32 7.38 32 5 32 C5 31.01 5 30.02 5 29 C4.52691406 29.30035156 4.05382812 29.60070312 3.56640625 29.91015625 C-1.13279534 32.61242617 -4.51612411 33.55114323 -9.89453125 32.59765625 C-14.91433233 31.17274055 -17.85492172 28.71940713 -20.375 24.25 C-22.76265753 18.87527302 -22.89726327 14.40844351 -20.8125 8.8125 C-15.35995862 0.35165992 -9.68519531 -2.24899666 0 0 Z M-11 10 C-13.41339891 11.98959408 -13.41339891 11.98959408 -13.375 15.875 C-13.28759372 18.88505365 -13.09822928 19.85265608 -11.375 22.4375 C-8.45608222 24.35784064 -6.4885109 24.8576118 -3 25 C0.84624466 23.95102418 1.73691641 23.39462539 4 20 C4.61537569 14.43060649 4.61537569 14.43060649 2.375 9.5625 C-2.69284166 6.22839364 -6.19815931 6.39861949 -11 10 Z " fill="#2B933A" transform="translate(263,80)"/>
<path d="M0 0 C6.15234375 -0.09765625 6.15234375 -0.09765625 8 0 C9.61081449 1.61081449 9.16557926 3.39541899 9.2109375 5.62109375 C9.23929688 6.55630859 9.26765625 7.49152344 9.296875 8.45507812 C9.34885111 10.43926625 9.39315436 12.42367059 9.4296875 14.40820312 C9.460625 15.34470703 9.4915625 16.28121094 9.5234375 17.24609375 C9.54325684 18.10904053 9.56307617 18.9719873 9.58349609 19.86108398 C9.72094238 20.56692627 9.85838867 21.27276855 10 22 C12.76988076 24.31543207 12.76988076 24.31543207 15.625 23.6875 C17.93501965 23.2258486 17.93501965 23.2258486 19 22 C19.14481287 20.45184595 19.22702845 18.89771646 19.28125 17.34375 C19.31863281 16.40402344 19.35601562 15.46429688 19.39453125 14.49609375 C19.42933594 13.50738281 19.46414062 12.51867187 19.5 11.5 C19.56857628 9.5519257 19.64126787 7.60399041 19.71875 5.65625 C19.76418945 4.35397461 19.76418945 4.35397461 19.81054688 3.02539062 C20 1 20 1 21 0 C23.64 0 26.28 0 29 0 C29 10.56 29 21.12 29 32 C25.66666667 32 22.33333333 32 19 32 C18.01 32.495 18.01 32.495 17 33 C10.89932061 33.59810582 7.86087223 32.45869755 3 29 C0.29325271 25.32759385 -0.36562239 22.79046238 -0.29296875 18.26171875 C-0.28330078 17.19501953 -0.27363281 16.12832031 -0.26367188 15.02929688 C-0.23853516 13.92650391 -0.21339844 12.82371094 -0.1875 11.6875 C-0.17396484 10.56537109 -0.16042969 9.44324219 -0.14648438 8.28710938 C-0.1112138 5.52424771 -0.06192235 2.76237171 0 0 Z " fill="#2B8D3A" transform="translate(174,80)"/>
<path d="M0 0 C4.04919602 2.46472801 5.55496198 4.55616708 7 9 C7.22705078 11.67895508 7.22705078 11.67895508 7.1953125 14.51953125 C7.18886719 15.54111328 7.18242187 16.56269531 7.17578125 17.61523438 C7.15902344 18.67033203 7.14226562 19.72542969 7.125 20.8125 C7.11597656 21.88693359 7.10695312 22.96136719 7.09765625 24.06835938 C7.07415306 26.71246854 7.04129575 29.35611872 7 32 C4.36 32 1.72 32 -1 32 C-1.01981934 31.40985107 -1.03963867 30.81970215 -1.06005859 30.21166992 C-1.15534659 27.53649904 -1.26500939 24.86210502 -1.375 22.1875 C-1.4059375 21.25873047 -1.436875 20.32996094 -1.46875 19.37304688 C-1.50742188 18.48037109 -1.54609375 17.58769531 -1.5859375 16.66796875 C-1.63306885 15.43469849 -1.63306885 15.43469849 -1.68115234 14.17651367 C-1.88373622 11.71047063 -1.88373622 11.71047063 -4 9 C-6.64 9 -9.28 9 -12 9 C-12.33 16.59 -12.66 24.18 -13 32 C-15.97 32 -18.94 32 -22 32 C-22.02465504 27.60343827 -22.04283842 23.2069128 -22.05493164 18.81030273 C-22.05997121 17.31355082 -22.06680287 15.81680384 -22.07543945 14.32006836 C-22.08752159 12.17300193 -22.09323191 10.02600038 -22.09765625 7.87890625 C-22.10289307 6.5854126 -22.10812988 5.29191895 -22.11352539 3.95922852 C-22 1 -22 1 -21 0 C-18.66706666 -0.04320247 -16.3329866 -0.04022391 -14 0 C0 0 0 0 0 0 Z " fill="#318D40" transform="translate(230,80)"/>
<path d="M0 0 C7.26 0 14.52 0 22 0 C22 9 22 9 19.375 12.0625 C18.83359375 12.71347656 18.2921875 13.36445312 17.734375 14.03515625 C17.16203125 14.68355469 16.5896875 15.33195312 16 16 C15.42765625 16.67933594 14.8553125 17.35867187 14.265625 18.05859375 C12.86113285 19.72057612 11.43287691 21.36242638 10 23 C14.29 23.33 18.58 23.66 23 24 C23 26.64 23 29.28 23 32 C14.75 32 6.5 32 -2 32 C-2 23 -2 23 0.625 19.9375 C1.16640625 19.28652344 1.7078125 18.63554688 2.265625 17.96484375 C3.12414062 16.99224609 3.12414062 16.99224609 4 16 C4.57234375 15.32066406 5.1446875 14.64132813 5.734375 13.94140625 C7.13886715 12.27942388 8.56712309 10.63757362 10 9 C6.7 8.67 3.4 8.34 0 8 C0 5.36 0 2.72 0 0 Z " fill="#2D903C" transform="translate(148,80)"/>
<path d="M0 0 C1.98 0 3.96 0 6 0 C6 10.23 6 20.46 6 31 C4.35 31 2.7 31 1 31 C0.67 29.35 0.34 27.7 0 26 C-3.63 26.66 -7.26 27.32 -11 28 C-7.94548223 23.92730964 -7.33953413 23.66905159 -3 22 C-0.55808078 18.33712117 -0.26822803 15.26149557 -1 11 C-2.81287195 8.60204619 -2.81287195 8.60204619 -5 7 C-5.33 6.34 -5.66 5.68 -6 5 C-4.35 4.67 -2.7 4.34 -1 4 C-0.67 2.68 -0.34 1.36 0 0 Z " fill="#299A3B" transform="translate(98,81)"/>
<path d="M0 0 C1.98 0 3.96 0 6 0 C6 9.9 6 19.8 6 30 C3.69 30 1.38 30 -1 30 C-0.01 29.01 0.98 28.02 2 27 C0.35 27.33 -1.3 27.66 -3 28 C-2.08002336 22.34871495 -2.08002336 22.34871495 -1.46484375 19.66796875 C-0.95052695 16.71604965 -0.93890029 13.99388589 -1 11 C-1.07849263 7.15386116 -0.88231502 3.74983882 0 0 Z " fill="#289C39" transform="translate(196,81)"/>
<path d="M0 0 C0 0.66 0 1.32 0 2 C-0.886875 2.268125 -1.77375 2.53625 -2.6875 2.8125 C-8.17055566 4.72788292 -8.17055566 4.72788292 -12.1328125 8.75390625 C-13.19109344 11.49494924 -13.19676958 13.63190875 -13.125 16.5625 C-13.10695313 17.51253906 -13.08890625 18.46257812 -13.0703125 19.44140625 C-13.04710938 20.28574219 -13.02390625 21.13007812 -13 22 C-13 22.99 -13 23.98 -13 25 C-13.99 25.66 -14.98 26.32 -16 27 C-18.60334924 24.28817788 -18.99456691 23.10866187 -19.1875 19.25 C-19.125625 18.1775 -19.06375 17.105 -19 16 C-19.66 15.67 -20.32 15.34 -21 15 C-19.89096095 6.22329444 -19.89096095 6.22329444 -16.1875 3.0625 C-10.11179439 -0.86883892 -7.02175987 -1.19012879 0 0 Z " fill="#2B953A" transform="translate(92,80)"/>
<path d="M0 0 C1.125 3.75 1.125 3.75 0 6 C0.99 6 1.98 6 3 6 C3.99 7.485 3.99 7.485 5 9 C6.32 7.02 7.64 5.04 9 3 C9.33 3.66 9.66 4.32 10 5 C7.67182728 11.39189238 3.44687925 14.36273236 -2.5 17.1875 C-5 18 -5 18 -10 18 C-10 14.7 -10 11.4 -10 8 C-8.3603125 7.4121875 -8.3603125 7.4121875 -6.6875 6.8125 C-3.08925078 5.2974477 -1.65475777 3.60153162 0 0 Z " fill="#2F873A" transform="translate(39,94)"/>
<path d="M0 0 C2.64 0 5.28 0 8 0 C8 10.56 8 21.12 8 32 C5.36 32 2.72 32 0 32 C0 31.67 0 31.34 0 31 C2.31 31 4.62 31 7 31 C7 21.1 7 11.2 7 1 C5.02 1 3.04 1 1 1 C1.02320313 2.31355469 1.04640625 3.62710938 1.0703125 4.98046875 C1.08907651 6.71614013 1.10727604 8.45181768 1.125 10.1875 C1.14175781 11.05181641 1.15851563 11.91613281 1.17578125 12.80664062 C1.21093137 17.39373145 1.01400938 20.78961031 -1 25 C-1 25.99 -1 26.98 -1 28 C0.32 28 1.64 28 3 28 C1.43388934 31.13222131 -0.81701086 31.70322665 -4 33 C-10.02177321 33.7664075 -13.14704963 32.30000625 -18 29 C-18.33 28.34 -18.66 27.68 -19 27 C-15.45541372 27.8185928 -12.18267829 29.04683063 -8.8046875 30.37890625 C-7.00290613 31.10847432 -7.00290613 31.10847432 -5 31 C-5.99 29.02 -6.98 27.04 -8 25 C-6.02 24.01 -4.04 23.02 -2 22 C-1.97494385 21.36908447 -1.9498877 20.73816895 -1.92407227 20.08813477 C-1.80845863 17.24603175 -1.68557684 14.40428917 -1.5625 11.5625 C-1.52318359 10.56927734 -1.48386719 9.57605469 -1.44335938 8.55273438 C-1.40146484 7.60849609 -1.35957031 6.66425781 -1.31640625 5.69140625 C-1.27974854 4.81685791 -1.24309082 3.94230957 -1.20532227 3.04125977 C-1 1 -1 1 0 0 Z " fill="#368443" transform="translate(195,80)"/>
<path d="M0 0 C1.98 0 3.96 0 6 0 C6 0.33 6 0.66 6 1 C4.35 1 2.7 1 1 1 C1.33 4.3 1.66 7.6 2 11 C3.65 11 5.3 11 7 11 C7 17.27 7 23.54 7 30 C4.69 30 2.38 30 0 30 C0 20.1 0 10.2 0 0 Z " fill="#249334" transform="translate(209,81)"/>
<path d="M0 0 C0.99 0.33 1.98 0.66 3 1 C2.67 1.66 2.34 2.32 2 3 C2.33 3.33 2.66 3.66 3 4 C2.5625 6.0625 2.5625 6.0625 2 8 C2.99 7.67 3.98 7.34 5 7 C5 8.32 5 9.64 5 11 C6.65 9.35 8.3 7.7 10 6 C9.34 6 8.68 6 8 6 C8.33 4.35 8.66 2.7 9 1 C10.3046801 2.95702015 11.57742367 4.93582457 12.8125 6.9375 C16.0678915 11.4950481 19.59470498 14.43847033 25 16 C28.32636736 16.44522148 31.65349007 16.75307305 35 17 C35 17.33 35 17.66 35 18 C27.40626518 18.5197233 20.63738294 18.08349279 14 14 C13.67 13.01 13.34 12.02 13 11 C12.34 10.67 11.68 10.34 11 10 C10.34 11.32 9.68 12.64 9 14 C8.34 14 7.68 14 7 14 C7.763125 14.7425 8.52625 15.485 9.3125 16.25 C11.4393702 18.4263323 13.2559956 20.52167796 15 23 C9.3584867 21.63236041 6.35471859 17.43420725 3 13 C0.62168284 9.03613806 -0.57090724 5.61274717 -1 1 C-0.67 0.67 -0.34 0.34 0 0 Z " fill="#30873D" transform="translate(1,100)"/>
<path d="M0 0 C2.15425887 0.96570225 3.76745516 1.74631472 5.375 3.5 C10.2191023 7.97147904 17.77370107 7.5790047 24 8 C24 8.33 24 8.66 24 9 C22.92878906 9.12117188 21.85757813 9.24234375 20.75390625 9.3671875 C19.35671248 9.53597601 17.95958009 9.70527313 16.5625 9.875 C15.85544922 9.95363281 15.14839844 10.03226563 14.41992188 10.11328125 C12.60326568 10.33927676 10.79937478 10.66300727 9 11 C8.67 11.66 8.34 12.32 8 13 C2.81298543 12.68563548 -0.5947359 9.69966733 -4 6 C-4 4 -4 4 -2 1.875 C-1.34 1.25625 -0.68 0.6375 0 0 Z " fill="#289A38" transform="translate(12,110)"/>
<path d="M0 0 C0.63550781 0.18304688 1.27101563 0.36609375 1.92578125 0.5546875 C2.25578125 1.2146875 2.58578125 1.8746875 2.92578125 2.5546875 C-2.69921875 6.5546875 -2.69921875 6.5546875 -6.07421875 6.5546875 C-6.73421875 7.8746875 -7.39421875 9.1946875 -8.07421875 10.5546875 C-9.06421875 10.5546875 -10.05421875 10.5546875 -11.07421875 10.5546875 C-11.07421875 11.5446875 -11.07421875 12.5346875 -11.07421875 13.5546875 C-12.39421875 13.8846875 -13.71421875 14.2146875 -15.07421875 14.5546875 C-15.07421875 15.2146875 -15.07421875 15.8746875 -15.07421875 16.5546875 C-13.75421875 16.5546875 -12.43421875 16.5546875 -11.07421875 16.5546875 C-11.40421875 17.5446875 -11.73421875 18.5346875 -12.07421875 19.5546875 C-13.39421875 18.8946875 -14.71421875 18.2346875 -16.07421875 17.5546875 C-15.66770985 11.66030841 -14.85331411 8.30555024 -11.07421875 3.5546875 C-10.51734375 2.7503125 -9.96046875 1.9459375 -9.38671875 1.1171875 C-6.13714804 -1.07846838 -3.78049441 -0.50736586 0 0 Z " fill="#279A38" transform="translate(125.07421875,80.4453125)"/>
<path d="M0 0 C2.475 0.99 2.475 0.99 5 2 C5 1.34 5 0.68 5 0 C5.99 0 6.98 0 8 0 C8.36402369 1.43503555 8.71586591 2.87316506 9.0625 4.3125 C9.25972656 5.11300781 9.45695313 5.91351563 9.66015625 6.73828125 C10 9 10 9 9 12 C9.66 12 10.32 12 11 12 C10.1875 13.9375 10.1875 13.9375 9 16 C8.01 16.33 7.02 16.66 6 17 C5.67 16.01 5.34 15.02 5 14 C4.34 14 3.68 14 3 14 C2.855625 13.030625 2.71125 12.06125 2.5625 11.0625 C2.32437659 8.13513227 2.32437659 8.13513227 1 7 C0.67 7 0.34 7 0 7 C0 4.69 0 2.38 0 0 Z " fill="#2A9C3B" transform="translate(0,94)"/>
<path d="M0 0 C0.763125 0.20625 1.52625 0.4125 2.3125 0.625 C1.9825 2.275 1.6525 3.925 1.3125 5.625 C-0.358125 5.934375 -0.358125 5.934375 -2.0625 6.25 C-5.95349195 7.24128301 -5.95349195 7.24128301 -7.125 10.75 C-7.310625 11.69875 -7.49625 12.6475 -7.6875 13.625 C-9.0075 13.625 -10.3275 13.625 -11.6875 13.625 C-11.6875 15.935 -11.6875 18.245 -11.6875 20.625 C-11.0275 20.955 -10.3675 21.285 -9.6875 21.625 C-10.6775 21.625 -11.6675 21.625 -12.6875 21.625 C-13.75420308 11.46592306 -13.75420308 11.46592306 -11.234375 7.1171875 C-4.43978862 -0.61950539 -4.43978862 -0.61950539 0 0 Z " fill="#289C39" transform="translate(255.6875,80.375)"/>
<path d="M0 0 C1.98 0 3.96 0 6 0 C6 9.9 6 19.8 6 30 C3.69 30 1.38 30 -1 30 C-0.01 29.01 0.98 28.02 2 27 C0.35 27.33 -1.3 27.66 -3 28 C-2.5020163 24.26512223 -2.12508244 22.18762365 0 19 C1.32 19.99 2.64 20.98 4 22 C4.33 15.07 4.66 8.14 5 1 C3.35 1 1.7 1 0 1 C0 0.67 0 0.34 0 0 Z " fill="#269436" transform="translate(196,81)"/>
<path d="M0 0 C0.33 0.66 0.66 1.32 1 2 C1.66 2 2.32 2 3 2 C3 9.26 3 16.52 3 24 C1.35 24 -0.3 24 -2 24 C-2.2362511 17.83122134 -1.84882592 12.2442994 -0.4375 6.2265625 C0.12853633 3.72403152 0.12853633 3.72403152 0 0 Z " fill="#2C9A3C" transform="translate(232,86)"/>
<path d="M0 0 C1.98 0 3.96 0 6 0 C6 9.9 6 19.8 6 30 C4.35 29.67 2.7 29.34 1 29 C1.13277344 28.30777344 1.26554687 27.61554688 1.40234375 26.90234375 C2.90151553 18.59671321 3.56305028 10.41703145 4 2 C2.68 1.34 1.36 0.68 0 0 Z " fill="#1F9230" transform="translate(98,81)"/>
<path d="M0 0 C2.64 0 5.28 0 8 0 C8 13.86 8 27.72 8 42 C5.36 42 2.72 42 0 42 C0 40.35 0 38.7 0 37 C1.32 37.66 2.64 38.32 4 39 C3.505 39.495 3.505 39.495 3 40 C4.32 40.33 5.64 40.66 7 41 C7 27.8 7 14.6 7 1 C5.02 1 3.04 1 1 1 C1 4.3 1 7.6 1 11 C0.67 11 0.34 11 0 11 C0 7.37 0 3.74 0 0 Z " fill="#3C904A" transform="translate(134,70)"/>
<path d="M0 0 C1.670625 0.061875 1.670625 0.061875 3.375 0.125 C3.045 0.785 2.715 1.445 2.375 2.125 C5.015 1.795 7.655 1.465 10.375 1.125 C10.705 2.775 11.035 4.425 11.375 6.125 C10.715 6.125 10.055 6.125 9.375 6.125 C9.045 5.465 8.715 4.805 8.375 4.125 C7.529375 4.62 6.68375 5.115 5.8125 5.625 C2.03703168 7.27247708 -0.55317548 7.36930947 -4.625 7.125 C-5.25 4.75 -5.25 4.75 -5.625 2.125 C-3.625 0.125 -3.625 0.125 0 0 Z " fill="#2A913A" transform="translate(87.625,105.875)"/>
<path d="M0 0 C3.89301165 -0.37076301 5.80577827 -0.10260771 9.3125 1.75 C12 4 12 4 12.875 6.25 C12.936875 7.11625 12.936875 7.11625 13 8 C9.65466733 9.11511089 9.11946434 8.93410412 6 7.6875 C4.9790625 7.29111328 4.9790625 7.29111328 3.9375 6.88671875 C2 6 2 6 -1 4 C-0.67 2.68 -0.34 1.36 0 0 Z " fill="#279B38" transform="translate(177,103)"/>
<path d="M0 0 C0.33 0.66 0.66 1.32 1 2 C-0.7015625 2.2165625 -0.7015625 2.2165625 -2.4375 2.4375 C-5.80777201 2.61171478 -5.80777201 2.61171478 -7 4 C-8.85287502 4.07226502 -10.70833878 4.0838122 -12.5625 4.0625 C-13.57441406 4.05347656 -14.58632813 4.04445313 -15.62890625 4.03515625 C-16.41136719 4.02355469 -17.19382812 4.01195313 -18 4 C-18.33 2.68 -18.66 1.36 -19 0 C-12.61799436 -0.92642017 -6.35559012 -1.45018425 0 0 Z " fill="#289936" transform="translate(43,122)"/>
<path d="M0 0 C0.33 0 0.66 0 1 0 C1 9.9 1 19.8 1 30 C-1.31 30 -3.62 30 -6 30 C-6 29.01 -6 28.02 -6 27 C-7.98 27.99 -9.96 28.98 -12 30 C-12.33 29.01 -12.66 28.02 -13 27 C-12.05125 26.71125 -11.1025 26.4225 -10.125 26.125 C-6.94788422 25.23174891 -6.94788422 25.23174891 -5 23 C-4 26 -4 26 -5 29 C-3.35 29 -1.7 29 0 29 C0 19.43 0 9.86 0 0 Z " fill="#359846" transform="translate(274,82)"/>
<path d="M0 0 C6.6 0 13.2 0 20 0 C19.67 0.66 19.34 1.32 19 2 C15.04 1.67 11.08 1.34 7 1 C7 2.32 7 3.64 7 5 C8.32 5.33 9.64 5.66 11 6 C7.37 6 3.74 6 0 6 C0 4.02 0 2.04 0 0 Z " fill="#259334" transform="translate(149,81)"/>
<path d="M0 0 C0.66 0.33 1.32 0.66 2 1 C1.236875 1.70125 0.47375 2.4025 -0.3125 3.125 C-3.55012336 6.58850406 -5.57169094 9.67489367 -6.4375 14.375 C-5.78817261 18.27096431 -4.30177733 21.78177428 -2 25 C0.04911007 26.24972435 0.04911007 26.24972435 2 27 C2 27.99 2 28.98 2 30 C-2.88765533 28.64231796 -4.52591098 26.32965579 -7 22 C-8.82899175 16.51302475 -8.68976898 11.87320504 -6.25 6.6875 C-4.6074769 3.70162765 -3.01674325 1.72385328 0 0 Z " fill="#317D3B" transform="translate(116,81)"/>
<path d="M0 0 C2.69082872 0.17635452 5.32851446 0.61835921 8 1 C8 1.66 8 2.32 8 3 C7.34 3 6.68 3 6 3 C6 3.66 6 4.32 6 5 C5.34 5 4.68 5 4 5 C4 5.66 4 6.32 4 7 C-0.75 8.125 -0.75 8.125 -3 7 C-1.125 1.125 -1.125 1.125 0 0 Z " fill="#2C9439" transform="translate(222,79)"/>
<path d="M0 0 C0.99 0.33 1.98 0.66 3 1 C3 2.98 3 4.96 3 7 C3.66 7.33 4.32 7.66 5 8 C5 6.35 5 4.7 5 3 C5.66 3 6.32 3 7 3 C7.33 5.31 7.66 7.62 8 10 C10.97 10.495 10.97 10.495 14 11 C10.52487282 12.15837573 8.86329714 11.77265943 5.3125 11.0625 C4.31863281 10.86785156 3.32476563 10.67320313 2.30078125 10.47265625 C1.54152344 10.31667969 0.78226563 10.16070312 0 10 C0 6.7 0 3.4 0 0 Z " fill="#308A3B" transform="translate(25,56)"/>
<path d="M0 0 C0.99 0.495 0.99 0.495 2 1 C2.625 3.0625 2.625 3.0625 3 5 C3.99 4.67 4.98 4.34 6 4 C6 4.66 6 5.32 6 6 C9.465 5.505 9.465 5.505 13 5 C10.63448058 7.73902249 8.45142779 8.93170092 5 10 C3.35 10 1.7 10 0 10 C0 6.7 0 3.4 0 0 Z " fill="#378441" transform="translate(29,102)"/>
<path d="M0 0 C2.0625 0.4375 2.0625 0.4375 4 1 C2.39161707 4.21676586 -0.78593279 4.64670854 -4 6 C-6.76223278 8.76223278 -6.57856291 11.20706617 -7 15 C-7.66 15 -8.32 15 -9 15 C-9.33 12.36 -9.66 9.72 -10 7 C-9.01 6.67 -8.02 6.34 -7 6 C-6.5359375 5.01 -6.5359375 5.01 -6.0625 4 C-5 2 -5 2 -2.9375 1.3125 C-2.298125 1.209375 -1.65875 1.10625 -1 1 C-0.67 0.67 -0.34 0.34 0 0 Z " fill="#33893F" transform="translate(124,84)"/>
<path d="M0 0 C0 0.33 0 0.66 0 1 C-5.94 1.495 -5.94 1.495 -12 2 C-12.33 2.99 -12.66 3.98 -13 5 C-14.70703125 5.80859375 -14.70703125 5.80859375 -16.8125 6.4375 C-20.4093914 7.65153157 -22.53492636 9.02136936 -25 12 C-25 9 -25 9 -22.625 6.5625 C-15.7141642 1.19643926 -8.60842764 -0.55538243 0 0 Z " fill="#34803F" transform="translate(31,71)"/>
<path d="M0 0 C5.45866973 0.43669358 8.79970346 1.43887902 13 5 C14.97333854 7.51613346 16.77673393 10.03616628 18 13 C17.67 13.99 17.34 14.98 17 16 C15 13 15 13 14.08203125 11.015625 C12.20915153 7.52679491 9.28243724 5.15542016 6 3 C3.20152247 2.49246656 3.20152247 2.49246656 1 3 C0.67 2.01 0.34 1.02 0 0 Z " fill="#30803D" transform="translate(31,72)"/>
<path d="M0 0 C2.97 0.495 2.97 0.495 6 1 C6.33 2.32 6.66 3.64 7 5 C9.31 5 11.62 5 14 5 C10.31884463 7.45410358 8.34706402 7.23287843 4 7 C3.01 6.67 2.02 6.34 1 6 C0.67 4.02 0.34 2.04 0 0 Z " fill="#298838" transform="translate(117,106)"/>
<path d="M0 0 C2.97 0.33 5.94 0.66 9 1 C9.33 1.99 9.66 2.98 10 4 C7.69 4.33 5.38 4.66 3 5 C3 4.34 3 3.68 3 3 C1.02 3.99 1.02 3.99 -1 5 C-0.67 3.35 -0.34 1.7 0 0 Z " fill="#269D3A" transform="translate(32,103)"/>
<path d="M0 0 C1.43836751 0.11458693 2.87570966 0.24209116 4.3125 0.375 C5.51326172 0.47941406 5.51326172 0.47941406 6.73828125 0.5859375 C9 1 9 1 12 3 C12.66 2.34 13.32 1.68 14 1 C17.625 0.875 17.625 0.875 21 1 C21 1.66 21 2.32 21 3 C19.02 3 17.04 3 15 3 C15 3.66 15 4.32 15 5 C9.125 4.125 9.125 4.125 8 3 C6.845 2.855625 5.69 2.71125 4.5 2.5625 C3.345 2.376875 2.19 2.19125 1 2 C0.67 1.34 0.34 0.68 0 0 Z " fill="#2E813D" transform="translate(254,79)"/>
<path d="M0 0 C0.33 0 0.66 0 1 0 C1 1.65 1 3.3 1 5 C1.66 5 2.32 5 3 5 C2.95875 6.2375 2.9175 7.475 2.875 8.75 C2.86341709 12.01637962 3.1431298 14.2146947 5 17 C4.34 17.33 3.68 17.66 3 18 C-0.05172721 12.69264834 -1.64023812 7.65850357 -0.5625 1.5 C-0.376875 1.005 -0.19125 0.51 0 0 Z " fill="#2C8145" transform="translate(71,90)"/>
<path d="M0 0 C1.32 0 2.64 0 4 0 C4 2.97 4 5.94 4 9 C2.68 8.34 1.36 7.68 0 7 C-0.93580311 4.12060581 -1.37245106 2.74490212 0 0 Z " fill="#2A9C3D" transform="translate(50,67)"/>
<path d="M0 0 C0.66 0 1.32 0 2 0 C2.19294408 4.82360189 1.75747614 8.49646738 0 13 C-1.32 12.67 -2.64 12.34 -4 12 C-3.525625 11.13375 -3.05125 10.2675 -2.5625 9.375 C-1.06765105 6.14612626 -0.41781687 3.50966174 0 0 Z " fill="#2E843C" transform="translate(55,94)"/>
<path d="M0 0 C0.99 0.33 1.98 0.66 3 1 C3 3.64 3 6.28 3 9 C3.66 9.33 4.32 9.66 5 10 C3.35 10 1.7 10 0 10 C0 6.7 0 3.4 0 0 Z " fill="#448D50" transform="translate(25,56)"/>
<path d="M0 0 C0.33 1.65 0.66 3.3 1 5 C0.34 5 -0.32 5 -1 5 C-1.33 4.34 -1.66 3.68 -2 3 C-2.99 3.66 -3.98 4.32 -5 5 C-5.99 4.67 -6.98 4.34 -8 4 C-7.34 4 -6.68 4 -6 4 C-6 3.34 -6 2.68 -6 2 C-6.66 1.67 -7.32 1.34 -8 1 C-5.10765685 0.17361624 -3.11257569 0 0 0 Z " fill="#3A8E45" transform="translate(98,107)"/>
<path d="M0 0 C0.33 0 0.66 0 1 0 C1.33 3.63 1.66 7.26 2 11 C2.99 11 3.98 11 5 11 C5 11.99 5 12.98 5 14 C3.68 14.33 2.36 14.66 1 15 C-0.09506492 11.71480525 -0.09960608 9.26336585 -0.0625 5.8125 C-0.05347656 4.72582031 -0.04445312 3.63914062 -0.03515625 2.51953125 C-0.02355469 1.68808594 -0.01195312 0.85664062 0 0 Z " fill="#349B44" transform="translate(195,86)"/>
<path d="M0 0 C0.598125 0.61875 1.19625 1.2375 1.8125 1.875 C4.00811144 4.13676954 4.00811144 4.13676954 7 6 C4 6 1 6 -2 6 C-1.34 4.02 -0.68 2.04 0 0 Z " fill="#298538" transform="translate(117,99)"/>
<path d="M0 0 C0.33 0.66 0.66 1.32 1 2 C1.66 2 2.32 2 3 2 C3.125 4.875 3.125 4.875 3 8 C2.34 8.66 1.68 9.32 1 10 C-0.00631749 6.98104753 -0.58886001 4.15207323 -1 1 C-0.67 0.67 -0.34 0.34 0 0 Z " fill="#249E34" transform="translate(232,86)"/>
<path d="M0 0 C0.66 0 1.32 0 2 0 C2 0.66 2 1.32 2 2 C5.465 1.505 5.465 1.505 9 1 C8 2.5625 8 2.5625 6 4 C3.23385218 3.96726452 0.73969453 3.49404328 -2 3 C-1.34 2.01 -0.68 1.02 0 0 Z " fill="#308E3E" transform="translate(33,106)"/>
<path d="M0 0 C0.66 0 1.32 0 2 0 C2.33 1.32 2.66 2.64 3 4 C2.2575 4.144375 1.515 4.28875 0.75 4.4375 C-1.52027739 4.90187492 -3.75759479 5.41863569 -6 6 C-6 5.34 -6 4.68 -6 4 C-4.35 3.67 -2.7 3.34 -1 3 C-0.67 2.01 -0.34 1.02 0 0 Z " fill="#30813C" transform="translate(266,100)"/>
<path d="M0 0 C0.99 0 1.98 0 3 0 C3 1.32 3 2.64 3 4 C3.66 4 4.32 4 5 4 C5 4.99 5 5.98 5 7 C4.01 6.67 3.02 6.34 2 6 C0.8125 2.9375 0.8125 2.9375 0 0 Z " fill="#279D33" transform="translate(55,71)"/>
<path d="M0 0 C1.04449911 3.13349732 0.93423645 3.98968256 0 7 C-1.32 7 -2.64 7 -4 7 C-4 4 -4 4 -2 1.8125 C-1.34 1.214375 -0.68 0.61625 0 0 Z " fill="#328940" transform="translate(50,107)"/>
<path d="M0 0 C0.33 0 0.66 0 1 0 C1.33 4.29 1.66 8.58 2 13 C1.67 12.34 1.34 11.68 1 11 C0.34 11 -0.32 11 -1 11 C-0.67 7.37 -0.34 3.74 0 0 Z " fill="#1E9A33" transform="translate(180,87)"/>
</svg>
