<svg xmlns="http://www.w3.org/2000/svg" fill="none" viewBox="0 0 152 48" class="customer-logo">
<title>Glassdoor logo</title>
  <g class="glassdoor">
    <path class="path-fill logo-fill" fill="#0CAA41" d="M16.952 15.553h-3.619a.358.358 0 0 0-.358.357v1.926c-.913-1.489-2.838-2.706-5.369-2.706C3.515 15.13 0 18.208 0 23.72c0 5.513 3.347 8.484 7.739 8.484 2.365 0 4.227-.977 5.308-2.535v1.05c0 2.365-1.15 4.259-4.832 4.259a6.654 6.654 0 0 1-4.654-1.79.38.38 0 0 0-.54.068L1.4 35.994c-.204.358-.169.54-.033.677 1.69 1.453 3.888 2.366 7.062 2.366 6.93 0 8.949-3.855 8.949-8.111V15.91a.401.401 0 0 0-.426-.357ZM8.773 28.197c-2.466 0-4.327-1.757-4.327-4.427s1.857-4.431 4.327-4.431c2.47 0 4.295 1.692 4.295 4.43 0 2.739-1.829 4.428-4.295 4.428Zm16.53-18.863v22.342a.358.358 0 0 1-.358.358h-3.651a.376.376 0 0 1-.358-.357V9.334a.376.376 0 0 1 .358-.358h3.65a.358.358 0 0 1 .355.358h.003Zm10.745 5.86c-3.447 0-6.05 1.148-7.234 3.447a.358.358 0 0 0 .136.472l2.638 1.893a.36.36 0 0 0 .505-.1c.744-1.317 2.365-1.757 3.937-1.757 1.961 0 2.863.676 2.863 1.653v.273c0 .404-.236.608-.844.676l-4.532.404c-3.042.305-5.272 2.148-5.272 5.173 0 3.024 2.298 5.14 5.576 5.14 2.57 0 4.228-1.253 5.072-2.57v1.857a.358.358 0 0 0 .358.358h3.615a.358.358 0 0 0 .358-.358V21.91c.058-4.596-2.376-6.715-7.176-6.715Zm2.863 10.208c0 1.825-1.489 3.379-3.787 3.379-1.521 0-2.33-.677-2.33-1.758 0-.912.716-1.621 2.026-1.825l4.091-.508v.712Zm21.702 1.657c0 3.751-2.738 5.37-7.134 5.37-3.042 0-5.645-.813-7.133-2.506a.408.408 0 0 1 0-.473l2.097-2.702a.36.36 0 0 1 .54-.036c1.117 1.117 2.807 1.825 4.937 1.825 1.216 0 2.197-.336 2.197-1.249s-.88-1.074-3.65-1.693c-2.435-.505-5.477-1.621-5.477-5.204 0-3.347 2.638-5.24 6.962-5.24 2.842 0 4.868.844 6.32 2.197a.408.408 0 0 1 .037.509l-1.994 2.57a.36.36 0 0 1-.508.064c-.981-.877-2.603-1.432-4.192-1.432-1.353 0-2.097.44-2.097 1.15 0 .812.88 1.012 3.819 1.656 2.853.652 5.287 1.733 5.287 5.183l-.011.011Zm16.73 0c0 3.751-2.738 5.37-7.13 5.37-3.043 0-5.645-.813-7.134-2.506a.408.408 0 0 1 0-.473l2.098-2.702a.36.36 0 0 1 .54-.036c1.113 1.117 2.803 1.825 4.932 1.825 1.217 0 2.198-.336 2.198-1.249s-.877-1.074-3.65-1.693c-2.435-.505-5.477-1.621-5.477-5.204 0-3.347 2.638-5.24 6.965-5.24 2.839 0 4.868.844 6.321 2.197a.405.405 0 0 1 .032.509l-1.993 2.57a.36.36 0 0 1-.508.064c-.978-.877-2.603-1.432-4.192-1.432-1.35 0-2.094.44-2.094 1.15 0 .812.877 1.012 3.82 1.656 2.849.652 5.282 1.733 5.282 5.183l-.01.011ZM96.71 8.974h-3.615a.358.358 0 0 0-.358.358v8.59a6.568 6.568 0 0 0-5.545-2.806c-4.02 0-7.434 3.11-7.434 8.687s3.415 8.655 7.516 8.655a6.443 6.443 0 0 0 5.477-2.738v1.94a.358.358 0 0 0 .358.358h3.615a.358.358 0 0 0 .358-.358V9.303a.358.358 0 0 0-.362-.34l-.01.01ZM88.53 28.24c-2.465 0-4.327-1.757-4.327-4.427s1.862-4.428 4.328-4.428 4.356 1.679 4.356 4.417c0 2.738-1.912 4.428-4.345 4.428l-.011.01Zm20.113-13.082c-5.068 0-8.855 3.482-8.855 8.655 0 5.172 3.787 8.655 8.855 8.655 5.069 0 8.856-3.483 8.856-8.655 0-5.172-3.773-8.666-8.845-8.666l-.011.01Zm0 13.014a4.397 4.397 0 0 1-4.298-5.262 4.391 4.391 0 0 1 3.46-3.446 4.397 4.397 0 0 1 5.244 4.32c-.035 2.656-1.929 4.378-4.395 4.378l-.011.01Zm20.113-13.014c-5.072 0-8.856 3.482-8.856 8.655 0 5.172 3.784 8.655 8.856 8.655s8.873-3.494 8.873-8.666c0-5.172-3.758-8.655-8.863-8.655l-.01.01Zm0 13.014a4.392 4.392 0 0 1-4.054-2.722 4.397 4.397 0 0 1 3.215-5.986 4.397 4.397 0 0 1 5.245 4.32c0 2.656-1.894 4.378-4.396 4.378l-.01.01Zm23.155-12.234a.507.507 0 0 0-.272-.408 4.072 4.072 0 0 0-1.858-.304c-2.298 0-4.36 1.149-5.24 3.042v-2.34a.359.359 0 0 0-.358-.359h-3.447a.357.357 0 0 0-.358.358v15.75a.358.358 0 0 0 .358.357h3.615a.358.358 0 0 0 .358-.357V24.58c.011-3.179 2.226-4.732 5.09-4.732a4.756 4.756 0 0 1 1.657.272.357.357 0 0 0 .472-.358l-.017-3.823Z" />
  </g>
</svg>
