<?xml version="1.0" encoding="UTF-8"?>
<svg version="1.1" xmlns="http://www.w3.org/2000/svg" width="3300" height="1142">
<path d="M0 0 C1089 0 2178 0 3300 0 C3300 376.86 3300 753.72 3300 1142 C2211 1142 1122 1142 0 1142 C0 765.14 0 388.28 0 0 Z " fill="#FEFEFE" transform="translate(0,0)"/>
<path d="M0 0 C343.53 0 687.06 0 1041 0 C1041 376.86 1041 753.72 1041 1142 C772.05 1142 503.1 1142 226 1142 C226 1141.67 226 1141.34 226 1141 C226.73710205 1140.98541748 227.4742041 1140.97083496 228.23364258 1140.95581055 C284.49059892 1139.72612655 345.66471093 1130.24734077 396.8203125 1105.515625 C399.72974477 1104.12881945 402.66011701 1102.85293683 405.62744141 1101.59838867 C414.90798748 1097.65682211 423.79009306 1093.0763741 432.65039062 1088.27197266 C434.8706174 1087.07004191 437.09862602 1085.88383131 439.328125 1084.69921875 C457.44595191 1074.9641129 474.99263699 1063.92987552 491 1051 C492.59785514 1049.78633938 494.19579473 1048.57277529 495.7980957 1047.36499023 C501.01845385 1043.41648703 506.08816344 1039.31673026 511.0625 1035.0625 C511.5793335 1034.62115723 512.09616699 1034.17981445 512.62866211 1033.72509766 C522.31697936 1025.35299076 531.6134404 1016.57331777 540.66479492 1007.52050781 C542.19237416 1005.99513287 543.72783582 1004.47799328 545.26367188 1002.9609375 C550.88433695 997.37173536 556.10293806 991.63938633 561.05395508 985.43408203 C562.67451871 983.40710682 564.32715167 981.43850033 566.046875 979.49609375 C597.65042246 943.79917799 621.51989966 900.11644372 639 856 C639.39461426 855.01241699 639.78922852 854.02483398 640.19580078 853.00732422 C645.81534463 838.85293869 650.39666158 824.5882878 654.24755859 809.85595703 C654.91790011 807.3116173 655.61841409 804.77854468 656.33203125 802.24609375 C659.35331541 791.23416824 661.30743786 780.0638956 663.1875 768.8125 C663.37761154 767.67958023 663.37761154 767.67958023 663.57156372 766.52377319 C667.53774898 742.70821426 669.21830078 719.20461135 669.1875 695.0625 C669.18689575 694.17469849 669.1862915 693.28689697 669.18566895 692.37219238 C669.05419316 620.64092899 652.78154735 542.78683227 614.765625 480.9609375 C613.16857392 478.28269697 611.68587484 475.57477746 610.2109375 472.828125 C607.15244728 467.19471155 603.83270508 461.77067924 600.375 456.375 C599.76744873 455.42496094 599.15989746 454.47492188 598.53393555 453.49609375 C583.89944736 430.76735119 567.26343373 409.90800833 549 390 C548.47647949 389.42604492 547.95295898 388.85208984 547.41357422 388.26074219 C541.02503266 381.26814717 534.64499953 374.40224549 527.4921875 368.17578125 C525.13456755 366.11748296 522.83540397 364.00528262 520.54492188 361.87280273 C514.90239174 356.63063544 509.07797148 351.73003426 503 347 C501.73876099 345.98669979 500.47841915 344.97228235 499.21875 343.95703125 C483.01910526 331.00479366 465.74291324 319.35302606 447.75976562 309.01220703 C446.54736628 308.31484192 445.33788699 307.61238369 444.13085938 306.90576172 C434.24317088 301.11790759 424.11154077 296.03880664 413.7043457 291.25341797 C411.65861428 290.30525645 409.61914863 289.3435604 407.58276367 288.37548828 C398.99093665 284.29665174 390.31485278 280.54908918 381.4375 277.125 C380.78036011 276.87087341 380.12322021 276.61674683 379.44616699 276.35491943 C346.30450438 263.60591512 312.10898434 255.93745119 276.97418213 251.26428223 C275.10483984 251.01403483 273.23670162 250.75484059 271.36865234 250.49511719 C183.87939253 238.64339583 93.78351358 258.06424931 15.66479492 297.65966797 C14.61138916 298.19350098 13.5579834 298.72733398 12.47265625 299.27734375 C11.53687744 299.75421631 10.60109863 300.23108887 9.63696289 300.72241211 C7.14395444 301.9302552 4.57206077 302.97117569 2 304 C2 204.01 2 104.02 2 1 C1.34 0.67 0.68 0.34 0 0 Z " fill="#FEFEFE" transform="translate(2259,0)"/>
<path d="M0 0 C36.55480422 -0.97460368 72.90252307 0.99967434 108.66650391 9.06640625 C109.32678589 9.21487 109.98706787 9.36333374 110.6673584 9.51629639 C142.76798315 16.77074327 173.64466701 26.49894519 203.66650391 40.06640625 C204.95186035 40.64189209 204.95186035 40.64189209 206.26318359 41.22900391 C245.76026073 59.01602692 283.07298322 83.47088454 315.0703125 112.70556641 C316.67386579 114.16375339 318.2848744 115.61384601 319.90771484 117.05053711 C326.25624417 122.67642041 332.30704361 128.55215731 338.2902832 134.55981445 C339.85922751 136.1341478 341.43348949 137.70302214 343.00830078 139.27148438 C348.43651519 144.695428 353.73594906 150.18001647 358.66650391 156.06640625 C359.16964111 156.66283936 359.67277832 157.25927246 360.19116211 157.8737793 C387.43216362 190.4423405 410.10909813 226.50993039 427.77050781 265.12304688 C428.52241396 266.75388419 429.3004182 268.37265388 430.08447266 269.98828125 C433.3216843 276.73509127 435.72266781 283.7364943 438.14697266 290.80566406 C439.58845965 295.00842055 441.05478079 299.16170847 442.79150391 303.25390625 C445.40104637 309.59453921 447.16463417 316.22247918 449.02539062 322.81201172 C449.6435396 324.98565515 450.27983851 327.15318698 450.92041016 329.3203125 C459.05217043 357.18607833 463.65179077 386.13578445 465.66650391 415.06640625 C465.75327393 416.2898877 465.75327393 416.2898877 465.84179688 417.53808594 C467.55204121 442.76038377 466.70768816 467.89837431 464.66650391 493.06640625 C464.58062012 494.13648926 464.49473633 495.20657227 464.40625 496.30908203 C462.06805036 523.4647829 456.02883964 550.94962296 447.41308594 576.78662109 C446.73536379 578.85613364 446.10756414 580.93064933 445.50634766 583.0234375 C438.72318847 606.24177809 429.169737 629.34003465 417.55322266 650.5703125 C415.91847997 653.59949409 414.40112307 656.64970254 412.91650391 659.75390625 C405.52844353 674.63013623 396.29080023 688.56025685 386.66650391 702.06640625 C386.13879395 702.81196777 385.61108398 703.5575293 385.06738281 704.32568359 C378.56609114 713.50004673 371.96215076 722.50086864 364.66650391 731.06640625 C363.75740329 732.14953278 362.84856393 733.23287862 361.93994141 734.31640625 C351.74974338 746.40297112 340.94236758 757.86420681 329.79150391 769.06640625 C329.1022583 769.76032471 328.4130127 770.45424316 327.70288086 771.16918945 C323.18703271 775.67090689 318.50894289 779.91973459 313.66650391 784.06640625 C312.65737371 784.94399247 311.64825785 785.82159517 310.63916016 786.69921875 C285.72050585 808.03895224 258.65293556 826.3501732 229.78564453 841.91650391 C227.74098207 843.02599241 225.71086852 844.15859355 223.68212891 845.296875 C163.44716927 878.68037242 90.20531814 895.33928326 21.54150391 895.25390625 C20.71324097 895.25363434 19.88497803 895.25336243 19.03161621 895.25308228 C3.83386922 895.23030934 -11.19944457 894.52789317 -26.33349609 893.06640625 C-27.3932666 892.9698877 -28.45303711 892.87336914 -29.54492188 892.77392578 C-78.33705219 888.23806754 -125.97359469 874.72320282 -170.33349609 854.06640625 C-172.04411089 853.28575082 -173.75503529 852.50577335 -175.46630859 851.7265625 C-205.39202849 837.97098954 -234.27206547 820.26880629 -259.57568359 799.171875 C-262.51452269 796.72183821 -265.51458798 794.3757967 -268.56005859 792.06054688 C-281.13014139 782.46079186 -292.26087288 771.20128044 -303.45849609 760.06640625 C-304.14468018 759.38497559 -304.83086426 758.70354492 -305.5378418 758.00146484 C-309.44224212 754.08413763 -313.16180475 750.05746842 -316.77490234 745.87011719 C-318.73198258 743.60525053 -320.7501728 741.39941355 -322.77099609 739.19140625 C-327.17254545 734.30657867 -331.29184063 729.25092684 -335.33349609 724.06640625 C-336.10435547 723.09058594 -336.87521484 722.11476563 -337.66943359 721.109375 C-348.17108837 707.72955093 -357.50713262 693.59525486 -366.33349609 679.06640625 C-366.73391113 678.41124023 -367.13432617 677.75607422 -367.546875 677.08105469 C-385.07211495 648.2981596 -398.38022497 617.89768796 -409.33349609 586.06640625 C-409.82889489 584.65860942 -410.32490847 583.25102865 -410.82177734 581.84375 C-439.36577963 499.21637497 -439.0944141 402.5587677 -412.02880859 317.24365234 C-411.32859104 315.05104695 -410.65548409 312.85173656 -409.98974609 310.6484375 C-408.01900902 304.173473 -405.89607749 297.8460733 -403.34667969 291.57519531 C-402.42977412 289.30480455 -401.54971314 287.02505252 -400.68505859 284.734375 C-396.68636274 274.28289317 -392.12552944 264.14291731 -387.27099609 254.06640625 C-386.97984924 253.45856293 -386.68870239 252.8507196 -386.38873291 252.22445679 C-382.84888743 244.85391007 -379.07880034 237.70294261 -374.87719727 230.6875 C-373.40278493 228.18405372 -372.04079009 225.64767516 -370.70849609 223.06640625 C-360.58474673 204.38054972 -347.82895448 186.46070858 -334.33349609 170.06640625 C-333.38132247 168.86849938 -332.43095011 167.66915956 -331.48193359 166.46875 C-320.19295301 152.257482 -307.69265002 139.35065699 -294.89599609 126.50390625 C-293.97246338 125.57562012 -293.04893066 124.64733398 -292.09741211 123.69091797 C-287.00339373 118.60934764 -281.8308205 113.70860706 -276.33349609 109.06640625 C-275.70435303 108.53055908 -275.07520996 107.99471191 -274.42700195 107.44262695 C-253.51925443 89.74248365 -231.32154782 74.43570845 -207.76586914 60.51196289 C-205.21662861 58.99695203 -202.68181719 57.45922102 -200.14599609 55.921875 C-194.05491987 52.26545258 -187.72514795 49.15268565 -181.33349609 46.06640625 C-180.23908203 45.53402344 -179.14466797 45.00164062 -178.01708984 44.453125 C-174.14395452 42.60688643 -170.2489385 40.8208178 -166.33349609 39.06640625 C-165.43679199 38.66405762 -164.54008789 38.26170898 -163.61621094 37.84716797 C-140.58363912 27.60244424 -116.79537199 19.21243868 -92.33349609 13.06640625 C-91.59583008 12.87272461 -90.85816406 12.67904297 -90.09814453 12.47949219 C-60.96383797 4.8882446 -30.05452279 0.85528669 0 0 Z " fill="#404042" transform="translate(1444.33349609375,246.93359375)"/>
<path d="M0 0 C75.9 0 151.8 0 230 0 C230 99.99 230 199.98 230 303 C238.91 298.38 247.82 293.76 257 289 C261.99293263 286.56250533 266.91308584 284.20303791 272 282 C272.66757324 281.7102832 273.33514648 281.42056641 274.02294922 281.12207031 C296.43991841 271.50683697 320.22189238 263.45028514 344 258 C345.34747314 257.68772461 345.34747314 257.68772461 346.72216797 257.36914062 C349.66644384 256.69270601 352.61342578 256.03018721 355.5625 255.375 C356.43600098 255.1805127 357.30950195 254.98602539 358.20947266 254.78564453 C408.29534596 244.00256919 460.35397865 242.81774898 511 250 C511.68559998 250.09665955 512.37119995 250.19331909 513.07757568 250.29290771 C565.54029307 257.76203237 616.59063572 274.26180418 663 300 C663.87398437 300.46277344 664.74796875 300.92554688 665.6484375 301.40234375 C694.26264227 316.58988321 720.74774622 335.56759255 745 357 C745.83402344 357.73347656 746.66804688 358.46695312 747.52734375 359.22265625 C750.03981772 361.45921794 752.52345473 363.72368605 755 366 C755.59570801 366.54527344 756.19141602 367.09054687 756.80517578 367.65234375 C765.64096854 375.75817582 774.04959783 384.02251239 782 393 C782.77730469 393.85078125 783.55460937 394.7015625 784.35546875 395.578125 C789.80011207 401.53818205 794.97658798 407.68213478 800 414 C800.53850586 414.67659668 801.07701172 415.35319336 801.63183594 416.05029297 C808.82573185 425.11921482 815.81072345 434.20520561 822 444 C822.96744292 445.52344067 823.93489129 447.04687788 824.90234375 448.5703125 C827.00054096 451.88022759 829.08907317 455.1960042 831.171875 458.515625 C833.34529076 461.97528945 835.56949727 465.39747783 837.8125 468.8125 C840.61059789 473.20180537 842.97446305 477.73918773 845.24658203 482.42089844 C846.76357482 485.54475522 848.32197156 488.62219568 850.01953125 491.65234375 C857.58534861 505.22442655 863.29247326 519.57733871 869 534 C869.38043457 534.9497168 869.76086914 535.89943359 870.15283203 536.87792969 C883.23034157 569.79611778 891.50209674 605.43678924 895.5625 640.5625 C895.68818359 641.58923828 895.81386719 642.61597656 895.94335938 643.67382812 C897.84844404 660.04159746 898.21024715 676.4742039 898.1875 692.9375 C898.18656342 693.82629852 898.18562683 694.71509705 898.18466187 695.63082886 C898.06162691 749.93166781 888.28113152 804.5266322 868 855 C867.58766113 856.03205566 867.17532227 857.06411133 866.75048828 858.12744141 C848.54693319 903.33374807 823.65999669 945.03136543 792 982.125 C791.56252441 982.63804687 791.12504883 983.15109375 790.67431641 983.6796875 C782.19198286 993.50934043 773.27226656 1002.9144453 764.09326172 1012.09204102 C762.49546107 1013.69204519 760.90588449 1015.29993615 759.31640625 1016.90820312 C753.6113034 1022.64412329 747.78334809 1027.99999519 741.44726562 1033.04956055 C738.21359195 1035.62675717 735.11292155 1038.34227969 732 1041.0625 C726.21990946 1046.05350237 720.25476711 1050.61353995 714 1055 C712.74629153 1055.90993876 711.49377032 1056.82151469 710.2421875 1057.734375 C699.53908626 1065.48889678 688.43934812 1072.38787783 677 1079 C676.28424805 1079.41378906 675.56849609 1079.82757812 674.83105469 1080.25390625 C670.89049035 1082.5206191 666.92847038 1084.74471466 662.94335938 1086.93212891 C661.64813152 1087.64385336 660.35514862 1088.35967871 659.06445312 1089.07958984 C646.11175373 1096.2902709 632.64484353 1102.22727061 619 1108 C617.8555542 1108.49064941 617.8555542 1108.49064941 616.68798828 1108.99121094 C591.90841983 1119.53295763 565.38752903 1126.88231557 539 1132 C538.03320312 1132.19142578 537.06640625 1132.38285156 536.0703125 1132.58007812 C506.98050472 1138.29841705 478.87234818 1140.12140152 449 1141 C449 1064.44 449 987.88 449 909 C456.26 908.67 463.52 908.34 471 908 C475.78119866 907.48311366 480.29824168 906.88703275 485 906 C486.23024902 905.76821045 486.23024902 905.76821045 487.48535156 905.53173828 C529.11822598 897.51514811 567.98690248 879.42052101 598.46289062 849.50634766 C600.06024911 847.94095663 601.67769131 846.39824899 603.296875 844.85546875 C610.97243046 837.45749194 617.68966578 829.58538867 624 821 C624.78117187 819.94039062 625.56234375 818.88078125 626.3671875 817.7890625 C638.91065838 800.21084207 648.51437108 780.75210717 655.24682617 760.25732422 C655.80104356 758.59628888 656.37742233 756.94260704 656.96606445 755.29345703 C659.59762945 747.78442778 661.30265333 740.32816863 662.6875 732.5 C663.00557617 730.80037109 663.00557617 730.80037109 663.33007812 729.06640625 C670.40369993 690.10570069 665.18900357 650.70514436 651 614 C650.73493652 613.31131836 650.46987305 612.62263672 650.19677734 611.91308594 C643.11968619 593.88979799 632.9726166 577.16987536 621 562 C620.19433594 560.97132813 619.38867188 559.94265625 618.55859375 558.8828125 C614.32301059 553.59370866 609.89977557 548.67592796 605 544 C600 539 600 539 598.2890625 537.1484375 C582.27993858 520.28058662 561.59652753 508.368837 541 498 C540.04867187 497.51789063 539.09734375 497.03578125 538.1171875 496.5390625 C486.83392182 471.91682179 426.51982351 472.9808416 373.59863281 491.06054688 C367.50724994 493.2626928 361.77545203 496.07613635 356 499 C354.85660156 499.54269531 353.71320312 500.08539063 352.53515625 500.64453125 C300.45316221 525.66029217 262.07742306 572.27253733 242.8515625 626.22265625 C235.53669932 648.89873211 233.06812182 671.21659912 231 695 C154.77 695 78.54 695 0 695 C0 465.65 0 236.3 0 0 Z " fill="#404042" transform="translate(2031,1)"/>
<path d="M0 0 C57.1415625 -0.0309375 57.1415625 -0.0309375 115.4375 -0.0625 C133.51358032 -0.07615601 133.51358032 -0.07615601 151.95483398 -0.09008789 C166.61340332 -0.09460449 166.61340332 -0.09460449 173.46473694 -0.09544373 C178.2738643 -0.09637946 183.08298075 -0.10014307 187.8921051 -0.10557556 C194.01384268 -0.11239993 200.13556423 -0.11449764 206.25730526 -0.11307228 C208.51185226 -0.11337062 210.76639978 -0.11537396 213.02094352 -0.11921513 C216.05068048 -0.12413995 219.08035396 -0.1230081 222.11009216 -0.12025452 C223.00573411 -0.12316718 223.90137606 -0.12607985 224.82415867 -0.12908077 C230.88587517 -0.11412483 230.88587517 -0.11412483 232 1 C232.10964429 2.42537583 232.15590993 3.85570767 232.17578125 5.28515625 C232.62874296 24.91696815 235.11154602 44.21208999 241 63 C241.21962402 63.71446289 241.43924805 64.42892578 241.66552734 65.16503906 C248.32280666 86.50258835 258.04606953 106.77412108 271 125 C271.74765625 126.05960938 272.4953125 127.11921875 273.265625 128.2109375 C286.05058893 145.73277655 300.62344311 161.04210824 318 174 C318.83869629 174.63784424 318.83869629 174.63784424 319.69433594 175.28857422 C328.64196282 182.08156241 338.06188038 187.67359071 347.98291016 192.93066406 C349.68694973 193.83404016 351.38168962 194.75492571 353.07421875 195.6796875 C368.41225482 203.77536988 385.1181817 209.23179659 402 213 C403.21478027 213.29414795 403.21478027 213.29414795 404.45410156 213.59423828 C419.0860859 217.05821754 433.53795744 217.371736 448.5 217.375 C449.91489212 217.37785507 449.91489212 217.37785507 451.35836792 217.38076782 C479.18146704 217.37441641 505.16580495 212.42952491 531 202 C532.18070068 201.53037842 532.18070068 201.53037842 533.38525391 201.05126953 C568.79611534 186.79181158 601.78123348 161.07231431 624 130 C624.71833008 128.99960693 624.71833008 128.99960693 625.45117188 127.97900391 C636.87392051 111.88837652 646.32831822 94.58982539 653 76 C653.42667969 74.83984375 653.85335937 73.6796875 654.29296875 72.484375 C659.28810178 58.28282755 662.67561148 43.65325899 664.75 28.75 C664.86553223 27.92491943 664.98106445 27.09983887 665.10009766 26.24975586 C666.17781812 17.82505637 666.4979666 9.53456774 667 1 C743.23 1 819.46 1 898 1 C898 36.87057133 898 36.87057133 896.3125 49.1875 C896.12994167 50.60684712 895.94807728 52.02628364 895.7668457 53.44580078 C883.73506157 145.67713488 845.87586147 229.96496403 764.10040283 321.0748291 C763.00849701 322.17479046 761.91807446 323.27622663 760.82928467 324.37927246 C753.88767209 331.40204686 746.73900105 337.8459045 739 344 C737.90997666 344.92314778 736.82535041 345.85276973 735.75 346.79296875 C723.00340902 357.891918 709.25650598 367.92921361 695 377 C694.29810547 377.45133301 693.59621094 377.90266602 692.87304688 378.36767578 C648.41987827 406.86447711 598.86943701 428.85668756 546.94897461 439.37280273 C544.664148 439.8587469 542.38773661 440.38434511 540.11547852 440.92602539 C528.37696048 443.7114097 516.66888757 445.34859953 504.6875 446.6875 C502.85602643 446.90089292 501.0246456 447.11508333 499.19335938 447.33007812 C497.4037314 447.537199 495.61402044 447.74360441 493.82421875 447.94921875 C493.02908371 448.04087814 492.23394867 448.13253754 491.41471863 448.22697449 C488.94460685 448.50222683 486.47322314 448.75421244 484 449 C483.12454255 449.08719675 482.24908511 449.1743935 481.34709865 449.26423258 C471.41045072 450.14106459 461.52110647 450.13690616 451.55570984 450.12025452 C449.60170901 450.1206912 447.64770823 450.12156791 445.69370776 450.12284368 C440.3529305 450.12506946 435.01217345 450.12109371 429.67139876 450.11606562 C423.90129387 450.11173367 418.13119005 450.11320949 412.36108398 450.1139679 C402.37346312 450.11449139 392.38584881 450.11136279 382.3982296 450.10573006 C367.95793587 450.09759146 353.5176453 450.09499742 339.07734952 450.09374207 C315.64702356 450.09164417 292.216701 450.08491384 268.78637695 450.07543945 C246.03051776 450.06624845 223.2746595 450.05918497 200.51879883 450.05493164 C199.08671806 450.054661 197.6546373 450.05439029 196.22255653 450.05411953 C185.13419042 450.05203383 174.04582428 450.05008312 162.95745814 450.04816496 C108.63830222 450.038737 54.31915504 450.01861733 0 450 C0 301.5 0 153 0 0 Z " fill="#404042" transform="translate(0,692)"/>
<path d="M0 0 C151.8 0 303.6 0 460 0 C460 152.13 460 304.26 460 461 C384.43 461 308.86 461 231 461 C231 384.77 231 308.54 231 230 C154.77 230 78.54 230 0 230 C0 154.1 0 78.2 0 0 Z " fill="#44A39B" transform="translate(437,0)"/>
<path d="M0 0 C1.88275039 0.39092427 3.76556663 0.78153143 5.6484375 1.171875 C33.31737778 7.06025709 59.61713303 18.02048589 83 34 C83.56928223 34.38381836 84.13856445 34.76763672 84.72509766 35.16308594 C111.29334983 53.15489358 134.17892451 77.0056037 150 105 C150.95326172 106.61648437 150.95326172 106.61648437 151.92578125 108.265625 C181.60374939 158.73859953 186.84585293 218.74884461 172.90917969 274.88696289 C165.78806863 301.90430408 153.03674475 327.86213691 136 350 C135.42894531 350.76828125 134.85789062 351.5365625 134.26953125 352.328125 C129.26097616 358.93458372 123.70003913 364.99399455 118 371 C117.52401367 371.50466797 117.04802734 372.00933594 116.55761719 372.52929688 C109.48269062 379.98315171 101.98192955 386.54701838 93.74707031 392.69287109 C92.07674451 393.94258103 90.42502836 395.21398041 88.7734375 396.48828125 C74.948616 406.94794599 59.01097539 415.39831821 43 422 C42.33033203 422.27650391 41.66066406 422.55300781 40.97070312 422.83789062 C28.26736934 428.0024878 15.45422675 431.42228995 2 434 C0.99050293 434.19754883 -0.01899414 434.39509766 -1.05908203 434.59863281 C-38.0216497 441.63967064 -77.51848889 438.84634003 -113 426 C-113.8470752 425.7014209 -114.69415039 425.4028418 -115.56689453 425.09521484 C-141.81352388 415.75335046 -165.22483706 401.50649663 -186 383 C-186.5048291 382.55688477 -187.0096582 382.11376953 -187.52978516 381.65722656 C-203.49260274 367.62634549 -216.41114066 351.77102036 -228 334 C-228.66 333.01 -229.32 332.02 -230 331 C-230 330.01 -230 329.02 -230 328 C-230.66 328 -231.32 328 -232 328 C-236.706506 318.79720414 -241.17702664 309.61283882 -245 300 C-245.33515625 299.20851563 -245.6703125 298.41703125 -246.015625 297.6015625 C-248.95934874 290.56933358 -251.24787976 283.34171385 -253.39746094 276.03515625 C-253.94833084 274.17451951 -254.52370209 272.32118194 -255.1015625 270.46875 C-270.34961996 216.92595281 -259.5857076 156.46325174 -233 108.4519043 C-225.07942309 94.47680435 -215.7156813 81.92998315 -205 70 C-204.17628906 69.071875 -203.35257813 68.14375 -202.50390625 67.1875 C-188.09207641 51.08016077 -171.40284895 38.24031647 -153 27 C-151.39318359 26.00226562 -151.39318359 26.00226562 -149.75390625 24.984375 C-129.24900594 12.71524737 -105.54586273 4.0083428 -82 0 C-81.31325195 -0.13390137 -80.62650391 -0.26780273 -79.91894531 -0.40576172 C-54.58229292 -5.28325933 -25.23431682 -5.61711834 0 0 Z " fill="#44A39B" transform="translate(3120,4)"/>
<path d="M0 0 C0.66950684 0.09120117 1.33901367 0.18240234 2.02880859 0.27636719 C33.1620284 4.57841211 63.94960211 16.52136926 90 34 C90.60440918 34.40476562 91.20881836 34.80953125 91.83154297 35.2265625 C130.78604457 61.5859524 160.25546592 99.68603265 176 144 C176.42104004 145.1765918 176.42104004 145.1765918 176.85058594 146.37695312 C181.18031506 158.68786727 183.97463059 171.11865055 186 184 C186.11859375 184.73476563 186.2371875 185.46953125 186.359375 186.2265625 C191.31930719 218.22993452 187.02238805 250.39649917 177 281 C176.76168457 281.75023437 176.52336914 282.50046875 176.27783203 283.2734375 C173.04795524 293.38204297 168.94239572 302.78757099 163.97167969 312.15820312 C163.0679768 313.87115152 162.19292627 315.59913213 161.3203125 317.328125 C154.00512411 331.53849097 144.56853821 344.07692485 134 356 C133.22785156 356.88300781 132.45570313 357.76601563 131.66015625 358.67578125 C122.25396751 369.30527046 112.32783889 378.50104262 101 387 C100.43796875 387.42812988 99.8759375 387.85625977 99.296875 388.29736328 C89.74469561 395.54798075 79.63895583 401.48384718 69 407 C68.31067383 407.35835937 67.62134766 407.71671875 66.91113281 408.0859375 C38.4368965 422.67264305 7.14727834 430.62952873 -24.81616211 430.33618164 C-27.56458858 430.31248199 -30.31204292 430.31566863 -33.06054688 430.32226562 C-92.13733803 430.22826625 -144.97838315 405.74413728 -186.75 364.5625 C-213.43115546 337.74057406 -230.95571065 304.20475423 -241 268 C-241.26594971 267.08532959 -241.53189941 266.17065918 -241.8059082 265.22827148 C-256.36974972 214.25253556 -246.5250044 158.22797869 -222 112 C-218.90733645 106.50757118 -215.50119366 101.23818667 -212 96 C-211.26423767 94.87245145 -210.52855808 93.74484891 -209.79296875 92.6171875 C-196.52027815 72.76793849 -179.31672031 55.00650016 -160 41 C-158.98035156 40.2471875 -157.96070313 39.494375 -156.91015625 38.71875 C-143.85694941 29.36916427 -129.78995952 21.25657862 -115 15 C-113.93910156 14.52304687 -112.87820313 14.04609375 -111.78515625 13.5546875 C-93.47753365 5.68797003 -73.74536199 1.25318121 -54 -1 C-52.99195313 -1.13019531 -51.98390625 -1.26039063 -50.9453125 -1.39453125 C-34.08907636 -3.22673083 -16.74139349 -2.4764212 0 0 Z " fill="#FEFEFE" transform="translate(1492,480)"/>
<path d="M0 0 C0.33 0 0.66 0 1 0 C1.05945801 0.76513916 1.11891602 1.53027832 1.18017578 2.31860352 C3.58722574 32.37126502 6.8773748 62.89001375 15 92 C15.18353027 92.67869141 15.36706055 93.35738281 15.55615234 94.05664062 C16.92011812 99.07603467 18.43032312 104.04144586 20 109 C20.30921387 109.98210449 20.61842773 110.96420898 20.93701172 111.97607422 C25.83993395 127.42551991 31.36326837 142.46375828 37.83740234 157.32373047 C38.90569005 159.78290096 39.95045646 162.25051654 40.98828125 164.72265625 C45.80766384 176.0573372 51.59040975 186.79912897 57.61621094 197.53369141 C58.81901415 199.67743136 60.0096597 201.82722065 61.1953125 203.98046875 C66.02554087 212.63381311 71.38145151 220.84664658 77 229 C77.45890625 229.66902344 77.9178125 230.33804688 78.390625 231.02734375 C98.44211048 260.16810149 121.64907826 289.1185298 148.74609375 312.0859375 C150.59253564 313.65397307 152.41090044 315.24399941 154.22265625 316.8515625 C168.35413455 329.34055383 183.31010641 340.5489676 199 351 C199.66435059 351.44553223 200.32870117 351.89106445 201.01318359 352.35009766 C216.9940814 363.03350276 233.62291156 372.69528493 250.95605469 381.01708984 C253.14523487 382.0698418 255.32629305 383.13850357 257.5078125 384.20703125 C311.7688502 410.58705946 372.67202757 425.40823292 433 427 C433 427.33 433 427.66 433 428 C290.11 428 147.22 428 0 428 C0 286.76 0 145.52 0 0 Z " fill="#FEFEFE" transform="translate(0,714)"/>
<path d="M0 0 C13.24621838 10.19366805 20.82984288 23.66932184 23.984375 39.96484375 C25.47226855 57.56005003 21.630303 73.77599575 10.66015625 87.97265625 C2.24192472 97.67278489 -6.93280067 103.70313424 -19.015625 107.96484375 C-20.0571875 108.33351563 -21.09875 108.7021875 -22.171875 109.08203125 C-27.26857627 110.25261508 -32.11606175 110.29425505 -37.328125 110.27734375 C-38.30974609 110.29345703 -39.29136719 110.30957031 -40.30273438 110.32617188 C-57.11003277 110.33729517 -70.44958133 102.40472123 -82.265625 90.96484375 C-95.00186109 77.67485827 -98.53123242 61.76520643 -98.28515625 43.7890625 C-97.76549201 27.74090915 -89.61600198 13.3062404 -78.078125 2.44140625 C-70.44972838 -3.72747571 -61.60854708 -8.72751495 -52.015625 -11.03515625 C-51.28601562 -11.21691406 -50.55640625 -11.39867187 -49.8046875 -11.5859375 C-31.75686483 -14.4927997 -15.06359179 -10.16597321 0 0 Z " fill="#FBFEFD" transform="translate(3087.015625,172.03515625)"/>
<path d="M0 0 C9.24 0 18.48 0 28 0 C32.7483048 19.27811749 37.11253226 38.5324422 41 58 C41.33 58 41.66 58 42 58 C42.1451001 57.30890137 42.2902002 56.61780273 42.43969727 55.90576172 C46.37783818 37.20457834 50.61281658 18.60165768 55 0 C64.24 0 73.48 0 83 0 C84.22960311 5.40303588 85.45727298 10.80644539 86.68041992 16.2109375 C87.09536951 18.04190859 87.51135169 19.87264603 87.9284668 21.703125 C90.25848009 31.931631 92.48847429 42.15074634 94.31933594 52.48144531 C95.05561696 56.28750057 95.96756012 59.99687361 96.9375 63.75 C98.49827016 69.80057453 99.81139717 75.86510641 101 82 C102.1929733 88.15276857 103.49442991 94.24409874 105.0625 100.3125 C107.00291335 107.83639526 108.53296417 115.37141371 110 123 C101.09 123 92.18 123 83 123 C81.67748644 119.03245932 80.56266262 115.40100294 79.67138672 111.36181641 C79.43128876 110.28114899 79.1911908 109.20048157 78.94381714 108.08706665 C78.69165436 106.93685028 78.43949158 105.78663391 78.1796875 104.6015625 C77.91616486 103.41146576 77.65264221 102.22136902 77.38113403 100.99520874 C76.54276389 97.2057931 75.70882471 93.41541813 74.875 89.625 C74.30628181 87.05071667 73.73727471 84.47649715 73.16796875 81.90234375 C71.77529657 75.60229819 70.38625801 69.30145985 69 63 C68.81937012 63.8029248 68.63874023 64.60584961 68.45263672 65.43310547 C65.20142304 79.87769536 61.94222013 94.32040169 58.625 108.75 C58.37476074 109.84296387 58.12452148 110.93592773 57.86669922 112.06201172 C57.6348291 113.0676416 57.40295898 114.07327148 57.1640625 115.109375 C56.96248535 115.98561523 56.7609082 116.86185547 56.55322266 117.76464844 C56 120 56 120 55 123 C46.09 123 37.18 123 28 123 C26.08353962 115.97297859 24.28555239 109.06049324 22.80859375 101.94921875 C22.61781754 101.04677933 22.42704132 100.1443399 22.23048401 99.21455383 C21.42587067 95.40829848 20.62869286 91.60049788 19.83129883 87.79272461 C19.24324374 84.99011454 18.65104162 82.18840295 18.05859375 79.38671875 C17.88146347 78.53349533 17.70433319 77.68027191 17.52183533 76.80119324 C16.59499031 72.42186352 15.52389324 68.22070179 14 64 C13.87995605 64.56581787 13.75991211 65.13163574 13.63623047 65.71459961 C10.95232965 78.31984405 8.12624998 90.87900226 5.05615234 103.39624023 C3.70032205 108.9516703 2.46728374 114.50019219 1.4362793 120.12573242 C1 122 1 122 0 123 C-1.92667507 123.08748207 -3.85651861 123.10697334 -5.78515625 123.09765625 C-7.53989258 123.09282227 -7.53989258 123.09282227 -9.33007812 123.08789062 C-11.17762695 123.07532227 -11.17762695 123.07532227 -13.0625 123.0625 C-14.91584961 123.05573242 -14.91584961 123.05573242 -16.80664062 123.04882812 C-19.87114117 123.03699608 -22.93554721 123.02051173 -26 123 C-25.36111036 113.41665539 -23.22258868 104.21873408 -21.125 94.875 C-20.727204 93.08283801 -20.32975106 91.29059984 -19.93261719 89.49829102 C-17.70613225 79.48059092 -15.42868184 69.47465841 -13.1328125 59.47265625 C-12.89261383 58.42621948 -12.65241516 57.37978271 -12.40493774 56.30163574 C-11.24029941 51.23288053 -10.07138902 46.16516672 -8.89501953 41.09912109 C-5.73192619 27.43716625 -2.82348717 13.73656978 0 0 Z " fill="#FAFDFD" transform="translate(3149,160)"/>
<path d="M0 0 C0 10.23 0 20.46 0 31 C-5.94 32.485 -5.94 32.485 -12 34 C-19.64405442 38.21403 -24.46968437 42.93936875 -28.375 50.75 C-30.29190136 60.71788705 -29.1059589 69.34271771 -24.25 78.1875 C-17.43463929 86.70670089 -10.60197547 89.23300409 0 91 C0 101.23 0 111.46 0 122 C-18.37104654 122 -31.13808709 116.6963469 -44.375 104.25 C-57.08028265 90.70884349 -61.64193391 76.19926644 -61.47314453 58.04980469 C-61.23236363 50.52442549 -60.07655221 43.92465356 -57 37 C-56.59910156 36.07445312 -56.19820312 35.14890625 -55.78515625 34.1953125 C-48.62922777 19.55158639 -35.99181802 8.8612342 -20.953125 3 C-13.68919363 0.54025604 -7.74939692 0 0 0 Z " fill="#FAFDFD" transform="translate(2972,160)"/>
<path d="M0 0 C7.04163647 5.89198154 10.10721079 12.93846162 11.41796875 22.02734375 C11.73912428 30.72912938 8.63611728 37.83250433 3.1640625 44.48046875 C-3.18577701 50.77129488 -10.14201791 53.64430036 -18.9375 54 C-27.27172405 53.91572133 -33.79444721 51.12971332 -40.1015625 45.69921875 C-46.21000783 39.21386935 -49.12183531 32.65142675 -49.5625 23.75 C-49.29083827 15.3647078 -46.58330522 8.62786217 -40.96875 2.3671875 C-28.79978342 -8.81890101 -13.60197869 -9.2039085 0 0 Z " fill="#46A39B" transform="translate(3068.9375,197.4375)"/>
<path d="M0 0 C0.99 0.33 1.98 0.66 3 1 C3 152.47 3 303.94 3 460 C2.01 460 1.02 460 0 460 C0 308.2 0 156.4 0 0 Z " fill="#D9F7F5" transform="translate(897,1)"/>
<path d="M0 0 C0.33 0 0.66 0 1 0 C1 75.9 1 151.8 1 230 C76.57 230 152.14 230 230 230 C229.67 230.99 229.34 231.98 229 233 C229 232.34 229 231.68 229 231 C200.38737172 231.10467181 171.7747669 231.21437154 143.16218517 231.33111694 C139.78626488 231.34488696 136.41034441 231.35861399 133.03442383 231.37231445 C132.36232244 231.37504276 131.69022104 231.37777106 130.99775294 231.38058204 C120.10692533 231.42468929 109.21608735 231.46531183 98.32524159 231.50465261 C87.15503901 231.54507985 75.98485509 231.5893117 64.8146804 231.63687855 C58.53855071 231.66348342 52.26242486 231.68833662 45.98627281 231.70907402 C40.08404125 231.72863019 34.18184653 231.75277094 28.27964783 231.78049088 C26.10880005 231.78986671 23.93794418 231.79754007 21.76708412 231.80341911 C18.81222663 231.81167121 15.85745879 231.82594544 12.90263367 231.84178162 C12.03590882 231.84275972 11.16918398 231.84373783 10.27619475 231.84474558 C6.93530592 231.86790456 4.19139413 231.93620196 1 233 C-0.69891365 229.6021727 -0.13244636 225.72746536 -0.12025452 221.98983765 C-0.12110894 221.0448282 -0.12196337 220.09981876 -0.12284368 219.12617266 C-0.12449889 215.94005323 -0.11897642 212.75398573 -0.11352539 209.56787109 C-0.1132435 207.29174297 -0.11340129 205.01561476 -0.1139679 202.73948669 C-0.1142558 196.54351383 -0.10836013 190.34756017 -0.10139394 184.15159178 C-0.09515931 177.682656 -0.09455651 171.21371982 -0.09336853 164.74478149 C-0.09060963 153.88160834 -0.08435567 143.0184431 -0.07543945 132.15527344 C-0.06626417 120.96484411 -0.0591839 109.7744167 -0.05493164 98.58398438 C-0.05466892 97.89451384 -0.05440619 97.20504331 -0.05413551 96.49467973 C-0.0528305 93.03590056 -0.05156678 89.57712136 -0.05032361 86.11834216 C-0.0399524 57.41222333 -0.02226112 28.70611194 0 0 Z " fill="#D7F2F3" transform="translate(667,231)"/>
<path d="M0 0 C0.74086853 0.00719055 1.48173706 0.0143811 2.24505615 0.02178955 C3.02563385 0.0214975 3.80621155 0.02120544 4.61044312 0.02090454 C7.19693015 0.02230065 9.78313101 0.03787491 12.36956787 0.05352783 C14.16032758 0.05725697 15.95108933 0.06010441 17.74185181 0.06210327 C22.46014009 0.06974759 27.17830568 0.08940288 31.89654541 0.11151123 C36.70915059 0.13195251 41.52177556 0.14110131 46.33441162 0.15118408 C55.78108018 0.17264805 65.22765758 0.20679359 74.67425537 0.24884033 C74.01425537 1.56884033 73.35425537 2.88884033 72.67425537 4.24884033 C71.69456787 4.10446533 70.71488037 3.96009033 69.70550537 3.81134033 C42.82062684 0.3086781 14.39800146 0.81584245 -12.32574463 5.24884033 C-12.32574463 4.58884033 -12.32574463 3.92884033 -12.32574463 3.24884033 C-11.54199463 3.12509033 -10.75824463 3.00134033 -9.95074463 2.87384033 C-5.94361653 1.91976221 -4.52947821 0.01842486 0 0 Z " fill="#DBF5F6" transform="translate(3047.3257446289063,-0.24884033203125)"/>
<path d="M0 0 C0.625 1.8125 0.625 1.8125 1 4 C0.01 5.485 0.01 5.485 -1 7 C-2.485 7.2165625 -2.485 7.2165625 -4 7.4375 C-4.99 7.623125 -5.98 7.80875 -7 8 C-7.6860231 9.32347819 -8.34796426 10.659451 -9 12 C-10.56502946 13.82405002 -12.19681421 15.59198608 -13.875 17.3125 C-14.73867187 18.21613281 -15.60234375 19.11976562 -16.4921875 20.05078125 C-19 22 -19 22 -21.3203125 21.79296875 C-21.87460938 21.53128906 -22.42890625 21.26960938 -23 21 C-16.0133681 13.77011979 -8.88081432 7.25230656 -1 1 C-0.67 0.67 -0.34 0.34 0 0 Z " fill="#64ABA2" transform="translate(2941,49)"/>
<path d="M0 0 C2.76223278 2.76223278 2.57856291 5.20706617 3 9 C2.34 9 1.68 9 1 9 C0.66365624 10.93697967 0.33102835 12.87460486 0 14.8125 C-0.185625 15.89144531 -0.37125 16.97039062 -0.5625 18.08203125 C-1.07413786 21.00270898 -1.07413786 21.00270898 -1 24 C-1.66 24.33 -2.32 24.66 -3 25 C-3.46651207 27.12576782 -3.46651207 27.12576782 -3.625 29.5625 C-3.69976563 30.38878906 -3.77453125 31.21507812 -3.8515625 32.06640625 C-3.90054688 32.70449219 -3.94953125 33.34257812 -4 34 C-4.66 34 -5.32 34 -6 34 C-6 36.31 -6 38.62 -6 41 C-6.99 41.495 -6.99 41.495 -8 42 C-7.28565416 33.1561973 -5.31722558 24.58904563 -3.4375 15.9375 C-3.10441132 14.38875922 -2.77172562 12.83993172 -2.43945312 11.29101562 C-1.63094689 7.5263273 -0.81698826 3.76285631 0 0 Z " fill="#61A79E" transform="translate(3217,221)"/>
<path d="M0 0 C0.66 0 1.32 0 2 0 C3.7479503 5.24385089 4.19392201 9.47322267 4 15 C4.66 15 5.32 15 6 15 C6.12375 15.763125 6.2475 16.52625 6.375 17.3125 C7.20617157 22.21641224 8.10336754 27.10769474 9 32 C9.33 32 9.66 32 10 32 C10 35.96 10 39.92 10 44 C9.67 44 9.34 44 9 44 C7.87578968 38.85949768 6.75488672 33.71828915 5.63696289 28.57641602 C5.25667335 26.82947608 4.87550108 25.08272804 4.4934082 23.33618164 C3.94246613 20.81707623 3.39476493 18.29728413 2.84765625 15.77734375 C2.6778273 15.00414291 2.50799835 14.23094208 2.33302307 13.43431091 C1.3672761 8.96881331 0.59029474 4.53084007 0 0 Z " fill="#5CA29D" transform="translate(3177,160)"/>
<path d="M0 0 C0.33 0 0.66 0 1 0 C1.05785647 3.95827235 1.09354717 7.9164367 1.125 11.875 C1.14175781 13.00292969 1.15851562 14.13085938 1.17578125 15.29296875 C1.18222656 16.36933594 1.18867188 17.44570313 1.1953125 18.5546875 C1.20578613 19.54968262 1.21625977 20.54467773 1.22705078 21.56982422 C1 24 1 24 -1 26 C-1.6425235 28.06874034 -1.6425235 28.06874034 -2 30 C-2.66 30 -3.32 30 -4 30 C-2.7770505 19.9822222 -1.4666231 9.98551898 0 0 Z " fill="#E0F6F6" transform="translate(3299,240)"/>
<path d="M0 0 C9.9 0 19.8 0 30 0 C29.34 1.32 28.68 2.64 28 4 C24.83316436 3.6891977 21.66656534 3.37604334 18.5 3.0625 C17.613125 2.97548828 16.72625 2.88847656 15.8125 2.79882812 C10.53006818 2.27446908 5.26435854 1.68264462 0 1 C0 0.67 0 0.34 0 0 Z " fill="#EBFAF8" transform="translate(3092,0)"/>
<path d="M0 0 C0.66 0.66 1.32 1.32 2 2 C-2.95 6.62 -7.9 11.24 -13 16 C-13.33 15.01 -13.66 14.02 -14 13 C-12.4375 9.875 -12.4375 9.875 -10 7 C-8.01178687 6.60235737 -6.01055661 6.26224651 -4 6 C-2.56362302 4.04836882 -2.56362302 4.04836882 -2 2 C-1.34 2 -0.68 2 0 2 C0 1.34 0 0.68 0 0 Z " fill="#E9FEFE" transform="translate(2934,52)"/>
<path d="M0 0 C0.33 0 0.66 0 1 0 C1 1.65 1 3.3 1 5 C0.34 5 -0.32 5 -1 5 C-1.33 5.99 -1.66 6.98 -2 8 C-3.33333333 8.33333333 -4.66666667 8.66666667 -6 9 C-6.33 9.99 -6.66 10.98 -7 12 C-7.99 11.67 -8.98 11.34 -10 11 C-8.52116808 9.35386588 -7.04192523 7.70810092 -5.5625 6.0625 C-4.73878906 5.14597656 -3.91507813 4.22945313 -3.06640625 3.28515625 C-1 1 -1 1 0 0 Z " fill="#5FA59F" transform="translate(2917,72)"/>
<path d="M0 0 C0.66 0.33 1.32 0.66 2 1 C2.31985731 7.71700347 1.4793824 12.75726932 -1 19 C-3.18959031 12.43122908 -1.8449056 6.45716958 0 0 Z " fill="#5FAA9F" transform="translate(3078,216)"/>
<path d="M0 0 C1 3 1 3 -0.3125 5.6875 C-0.869375 6.450625 -1.42625 7.21375 -2 8 C-2.66 8 -3.32 8 -4 8 C-4 9.32 -4 10.64 -4 12 C-5.32 12.33 -6.64 12.66 -8 13 C-8 13.66 -8 14.32 -8 15 C-8.66 14.67 -9.32 14.34 -10 14 C-8.8966898 12.41606974 -7.79231456 10.83288132 -6.6875 9.25 C-5.76517578 7.92742187 -5.76517578 7.92742187 -4.82421875 6.578125 C-3.25166935 4.35567831 -1.64631488 2.16807006 0 0 Z " fill="#5FA99E" transform="translate(2904,87)"/>
<path d="M0 0 C2.78637633 4.1795645 1.79562512 6.14668677 1 11 C-0.32 11.33 -1.64 11.66 -3 12 C-2.69230293 10.18667846 -2.37870936 8.37435655 -2.0625 6.5625 C-1.80146484 5.04849609 -1.80146484 5.04849609 -1.53515625 3.50390625 C-1 1 -1 1 0 0 Z " fill="#67A59F" transform="translate(3163,223)"/>
<path d="M0 0 C0 0.66 0 1.32 0 2 C-0.99 2 -1.98 2 -3 2 C-3 2.66 -3 3.32 -3 4 C-4.4096347 4.70180531 -5.82807641 5.38593958 -7.25 6.0625 C-8.03890625 6.44535156 -8.8278125 6.82820313 -9.640625 7.22265625 C-12.25993522 8.08564091 -13.44855176 7.93045933 -16 7 C-13.71070947 5.82845707 -11.41881638 4.66261926 -9.125 3.5 C-8.47402344 3.16613281 -7.82304687 2.83226562 -7.15234375 2.48828125 C-2.2265625 0 -2.2265625 0 0 0 Z " fill="#64A5A0" transform="translate(2992,19)"/>
<path d="M0 0 C2.58422459 0.11418667 5.16679513 0.24092362 7.75 0.375 C8.47960938 0.4059375 9.20921875 0.436875 9.9609375 0.46875 C13.73942656 0.6748494 16.77946668 0.91512843 20 3 C17.60385874 3.05425226 15.20896147 3.09379027 12.8125 3.125 C11.80219727 3.15013672 11.80219727 3.15013672 10.77148438 3.17578125 C6.71192193 3.21538674 3.65001185 2.80020002 0 1 C0 0.67 0 0.34 0 0 Z " fill="#5AA096" transform="translate(3100,2)"/>
<path d="M0 0 C-1.28548409 1.33929505 -2.57858155 2.67128643 -3.875 4 C-4.59429688 4.7425 -5.31359375 5.485 -6.0546875 6.25 C-8 8 -8 8 -10 8 C-9.38722388 5.03824877 -8.74627478 3.61941217 -7 1 C-2.5 -1.25 -2.5 -1.25 0 0 Z " fill="#5B9E96" transform="translate(3236,377)"/>
<path d="M0 0 C0.66 0.33 1.32 0.66 2 1 C-5.80662983 9.09576427 -5.80662983 9.09576427 -11 11 C-11.99 10.67 -12.98 10.34 -14 10 C-13.07316406 9.36191406 -12.14632812 8.72382813 -11.19140625 8.06640625 C-9.98173309 7.23182554 -8.77209973 6.39718714 -7.5625 5.5625 C-6.64500977 4.93118164 -6.64500977 4.93118164 -5.70898438 4.28710938 C-2.71897291 2.31239178 -2.71897291 2.31239178 0 0 Z " fill="#D8F9F5" transform="translate(3213,396)"/>
<path d="M0 0 C0.33 0 0.66 0 1 0 C1.06058594 1.31355469 1.12117188 2.62710938 1.18359375 3.98046875 C1.26803256 5.71615541 1.35267888 7.45183198 1.4375 9.1875 C1.47681641 10.05181641 1.51613281 10.91613281 1.55664062 11.80664062 C1.76347016 15.95914122 2.00103531 19.94537862 3 24 C2.01 23.67 1.02 23.34 0 23 C0 15.41 0 7.82 0 0 Z " fill="#75B3A9" transform="translate(2988,214)"/>
<path d="M0 0 C1.65 0 3.3 0 5 0 C4.278125 0.680625 3.55625 1.36125 2.8125 2.0625 C-0.23455693 5.09214518 -2.57207954 8.46217304 -5 12 C-5.33 11.01 -5.66 10.02 -6 9 C-3.66666667 4.33333333 -3.66666667 4.33333333 -1 3 C-0.67 2.01 -0.34 1.02 0 0 Z " fill="#DEF9F8" transform="translate(3029,195)"/>
<path d="M0 0 C7.48291572 6.15034169 7.48291572 6.15034169 10 10 C7.625 9.6875 7.625 9.6875 5 9 C4.34 8.01 3.68 7.02 3 6 C2.34 6 1.68 6 1 6 C0.67 4.02 0.34 2.04 0 0 Z " fill="#64A89C" transform="translate(3232,62)"/>
<path d="M0 0 C0.625 1.8125 0.625 1.8125 1 4 C-1 7 -1 7 -4.125 7.6875 C-5.07375 7.790625 -6.0225 7.89375 -7 8 C-5.50902342 4.2047869 -3.24299151 2.38957269 0 0 Z " fill="#5BA59A" transform="translate(2941,49)"/>
<path d="M0 0 C0.33 0.99 0.66 1.98 1 3 C-0.57826815 4.46381359 -2.16282229 5.92085163 -3.75 7.375 C-4.63171875 8.18710937 -5.5134375 8.99921875 -6.421875 9.8359375 C-8.59802521 11.6625848 -10.40820119 12.89787994 -13 14 C-8.88380164 9.08064098 -4.59589638 4.47352044 0 0 Z " fill="#DDDCDF" transform="translate(2799,1008)"/>
<path d="M0 0 C0.99 1.32 1.98 2.64 3 4 C0.80090595 6.19909405 -1.56070254 8.07423885 -4 10 C-4.66 9.67 -5.32 9.34 -6 9 C-4.02 6.03 -2.04 3.06 0 0 Z " fill="#58A59E" transform="translate(2893,103)"/>
<path d="M0 0 C0.66 0 1.32 0 2 0 C1.5520266 2.31452922 1.09133539 4.62660039 0.625 6.9375 C0.36976563 8.22527344 0.11453125 9.51304687 -0.1484375 10.83984375 C-0.42945312 11.88269531 -0.71046875 12.92554688 -1 14 C-1.99 14.495 -1.99 14.495 -3 15 C-3.42589023 9.46342706 -1.905247 5.10334017 0 0 Z " fill="#57A096" transform="translate(3294,264)"/>
<path d="M0 0 C3.59634744 3.49359465 6.83451967 7.11098131 10 11 C9.67 11.66 9.34 12.32 9 13 C8.7525 12.360625 8.505 11.72125 8.25 11.0625 C7.8375 10.381875 7.425 9.70125 7 9 C6.360625 8.87625 5.72125 8.7525 5.0625 8.625 C3 8 3 8 1.25 5.0625 C0 2 0 2 0 0 Z " fill="#64A9A1" transform="translate(3247,78)"/>
<path d="M0 0 C0.99 0.33 1.98 0.66 3 1 C3.33 3.31 3.66 5.62 4 8 C3.01 8.33 2.02 8.66 1 9 C0 8 0 8 -0.09765625 6.15234375 C-0.06510417 4.1015625 -0.03255208 2.05078125 0 0 Z " fill="#4C4C4C" transform="translate(1248,743)"/>
<path d="M0 0 C4.18423892 3.50897269 8.19588166 7.08060535 12 11 C7.37727186 9.50441148 4.47630151 7.31828781 1 4 C0.328125 1.8359375 0.328125 1.8359375 0 0 Z " fill="#D8F5F4" transform="translate(2931,384)"/>
<path d="M0 0 C0.33 0.66 0.66 1.32 1 2 C-0.25483449 5.42227589 -2.3651481 7.54080489 -5 10 C-5.99 9.67 -6.98 9.34 -8 9 C-5.36 6.03 -2.72 3.06 0 0 Z " fill="#68A7A0" transform="translate(3098,258)"/>
<path d="M0 0 C0.99 0.33 1.98 0.66 3 1 C1.08864614 4.53600465 -0.62642766 6.78972846 -4 9 C-3.67 7.35 -3.34 5.7 -3 4 C-2.34 4 -1.68 4 -1 4 C-0.67 2.68 -0.34 1.36 0 0 Z " fill="#63A49D" transform="translate(3244,363)"/>
<path d="M0 0 C0 3 0 3 -1.53125 4.82421875 C-2.1809375 5.43910156 -2.830625 6.05398437 -3.5 6.6875 C-4.1496875 7.31011719 -4.799375 7.93273437 -5.46875 8.57421875 C-5.9740625 9.04472656 -6.479375 9.51523438 -7 10 C-7.66 9.34 -8.32 8.68 -9 8 C-6.03 5.36 -3.06 2.72 0 0 Z " fill="#E0F6F5" transform="translate(3015,170)"/>
<path d="M0 0 C0.66 1.32 1.32 2.64 2 4 C1.2575 4.2475 0.515 4.495 -0.25 4.75 C-3.20124062 6.09147301 -4.84814974 7.60905526 -7 10 C-7.66 9.67 -8.32 9.34 -9 9 C-6.03 6.03 -3.06 3.06 0 0 Z " fill="#606060" transform="translate(2637,843)"/>
<path d="M0 0 C2.93200474 2.85276137 5.64315404 5.65079784 8 9 C6.35 8.67 4.7 8.34 3 8 C3 7.34 3 6.68 3 6 C2.34 6 1.68 6 1 6 C0.67 4.02 0.34 2.04 0 0 Z " fill="#DCFAF8" transform="translate(2914,367)"/>
<path d="M0 0 C1.5471219 2.4571936 2.04484402 3.632279 1.6875 6.5625 C1.17232879 8.38901612 0.60013019 10.19960942 0 12 C-0.66 12 -1.32 12 -2 12 C-1 3.42857143 -1 3.42857143 0 0 Z " fill="#63AA9D" transform="translate(3153,264)"/>
<path d="M0 0 C1.98 0 3.96 0 6 0 C3.03 3.96 3.03 3.96 0 8 C-1.09658936 4.71023192 -0.79953138 3.28696233 0 0 Z " fill="#61A29A" transform="translate(2924,176)"/>
<path d="M0 0 C-4.22949995 2.41685712 -7.12335991 3.34833144 -12 3 C-11 1 -11 1 -7.6875 -0.1875 C-4.42437937 -0.90649268 -3.00717118 -1.20286847 0 0 Z " fill="#65A79F" transform="translate(3028,8)"/>
<path d="M0 0 C0 0.66 0 1.32 0 2 C-0.99 2 -1.98 2 -3 2 C-3 2.66 -3 3.32 -3 4 C-5 5.625 -5 5.625 -7 7 C-8.32 6.34 -9.64 5.68 -11 5 C-9.54462432 4.16151196 -8.08559627 3.32936066 -6.625 2.5 C-5.81289062 2.0359375 -5.00078125 1.571875 -4.1640625 1.09375 C-2 0 -2 0 0 0 Z " fill="#E0F7F5" transform="translate(3191,412)"/>
<path d="M0 0 C4.08718695 -0.24042276 7.17679443 0.57741188 11 2 C11 2.99 11 3.98 11 5 C9.53932801 4.54917531 8.08151968 4.08906463 6.625 3.625 C5.81289062 3.36976562 5.00078125 3.11453125 4.1640625 2.8515625 C2 2 2 2 0 0 Z " fill="#DDF6F3" transform="translate(3162,16)"/>
<path d="M0 0 C3 1 3 1 4 3 C4.99 3.33 5.98 3.66 7 4 C7 4.66 7 5.32 7 6 C3.33118845 5.29445932 0.29549466 3.72264494 -3 2 C-2.01 1.34 -1.02 0.68 0 0 Z " fill="#E6F5F8" transform="translate(2943,272)"/>
<path d="M0 0 C1 3 1 3 -0.25 6.5625 C-2 10 -2 10 -5 12 C-3.68938409 7.76570244 -2.05643741 3.92592596 0 0 Z " fill="#DFF8F8" transform="translate(2997,189)"/>
<path d="M0 0 C0.66 0.33 1.32 0.66 2 1 C-0.51407619 5.28324091 -2.12314139 7.64531705 -7 9 C-6.02180976 7.68677212 -5.0424189 6.37443848 -4.0625 5.0625 C-3.51722656 4.33160156 -2.97195312 3.60070312 -2.41015625 2.84765625 C-1 1 -1 1 0 0 Z " fill="#DDFAFA" transform="translate(3253,357)"/>
<path d="M0 0 C1.13732426 3.40401948 0.83989957 5.77456664 0.0625 9.25 C-0.13214844 10.14203125 -0.32679688 11.0340625 -0.52734375 11.953125 C-0.68332031 12.62859375 -0.83929687 13.3040625 -1 14 C-3 11 -3 11 -2.75 8.6875 C-1.93116583 5.75334421 -1.00329153 2.87610238 0 0 Z " fill="#62ACA7" transform="translate(3124,269)"/>
<path d="M0 0 C3.08089673 2.77280706 4.68775452 5.06326356 6 9 C4.125 8.75 4.125 8.75 2 8 C-0.02755186 5.06004981 0 3.72295997 0 0 Z " fill="#D7F5F5" transform="translate(3098,184)"/>
<path d="M0 0 C1.32 0 2.64 0 4 0 C4.28875 0.61875 4.5775 1.2375 4.875 1.875 C5.93720042 4.13325765 5.93720042 4.13325765 8 6 C5.21788056 5.62403791 3.4120716 5.32681541 1.1875 3.5625 C0 2 0 2 0 0 Z " fill="#60A49E" transform="translate(3087,171)"/>
<path d="M0 0 C-2.70879335 1.35439668 -5.00933268 1.06501451 -8 1 C-8 1.66 -8 2.32 -8 3 C-10.97 2.505 -10.97 2.505 -14 2 C-9.53202599 -0.57767731 -4.97760384 -1.72301671 0 0 Z " fill="#69B0A8" transform="translate(3042,5)"/>
<path d="M0 0 C0.66 0.99 1.32 1.98 2 3 C0.60210322 5.79579355 -1.2628997 6.59807058 -4 8 C-4.66 7.67 -5.32 7.34 -6 7 C-4.02 4.69 -2.04 2.38 0 0 Z " fill="#565656" transform="translate(1122,402)"/>
<path d="M0 0 C2.64 0.33 5.28 0.66 8 1 C6.75 2.5 6.75 2.5 5 4 C3.68 4 2.36 4 1 4 C0.67 2.68 0.34 1.36 0 0 Z " fill="#E3FCFC" transform="translate(2964,250)"/>
<path d="M0 0 C0.1953125 6.0546875 0.1953125 6.0546875 0 8 C-0.66 8.66 -1.32 9.32 -2 10 C-2.33 7.03 -2.66 4.06 -3 1 C-1 0 -1 0 0 0 Z " fill="#E3F9FA" transform="translate(3172,244)"/>
<path d="M0 0 C0.33 0 0.66 0 1 0 C1.66 3.96 2.32 7.92 3 12 C2.34 12 1.68 12 1 12 C-0.26237731 9.47524538 -0.09856404 7.68799534 -0.0625 4.875 C-0.05347656 3.96492187 -0.04445313 3.05484375 -0.03515625 2.1171875 C-0.02355469 1.41851562 -0.01195313 0.71984375 0 0 Z " fill="#6DADA5" transform="translate(3221,236)"/>
<path d="M0 0 C0.33 0 0.66 0 1 0 C1.33 3.3 1.66 6.6 2 10 C1.01 10.66 0.02 11.32 -1 12 C-1.14285714 3.42857143 -1.14285714 3.42857143 0 0 Z " fill="#DFF9F7" transform="translate(2990,206)"/>
<path d="M0 0 C2.64 0 5.28 0 8 0 C8 0.99 8 1.98 8 3 C8.66 3 9.32 3 10 3 C9.67 3.66 9.34 4.32 9 5 C4.545 3.02 4.545 3.02 0 1 C0 0.67 0 0.34 0 0 Z " fill="#68AEA0" transform="translate(3072,164)"/>
<path d="M0 0 C1.26776456 3.80329367 0.3809651 5.31742641 -1 9 C-1.33 9.99 -1.66 10.98 -2 12 C-2 11.34 -2 10.68 -2 10 C-2.66 9.67 -3.32 9.34 -4 9 C-2.68 6.03 -1.36 3.06 0 0 Z " fill="#63A6A1" transform="translate(2881,124)"/>
<path d="M0 0 C2 3 2 3 2 5 C2.66 5 3.32 5 4 5 C4 5.99 4 6.98 4 8 C3.34 8 2.68 8 2 8 C1.67 8.66 1.34 9.32 1 10 C0.67 6.7 0.34 3.4 0 0 Z " fill="#E5FAF9" transform="translate(3167,234)"/>
<path d="M0 0 C0.33 0.99 0.66 1.98 1 3 C-0.25 4.5625 -0.25 4.5625 -2 6 C-4.1875 5.6875 -4.1875 5.6875 -6 5 C-4.02 3.35 -2.04 1.7 0 0 Z " fill="#DBFAF8" transform="translate(2937,170)"/>
<path d="M0 0 C2.31 0.33 4.62 0.66 7 1 C7.33 2.32 7.66 3.64 8 5 C4.62496331 3.8141763 2.35277269 2.72426311 0 0 Z " fill="#555457" transform="translate(1236,1080)"/>
<path d="M0 0 C0.33 0.99 0.66 1.98 1 3 C-0.98 4.98 -2.96 6.96 -5 9 C-5.66 8.67 -6.32 8.34 -7 8 C-4.69 5.36 -2.38 2.72 0 0 Z " fill="#525252" transform="translate(1114,412)"/>
<path d="M0 0 C0 3 0 3 -2 6 C-4.625 7.1875 -4.625 7.1875 -7 8 C-5.50902342 4.2047869 -3.24299151 2.38957269 0 0 Z " fill="#505050" transform="translate(1185,342)"/>
<path d="M0 0 C0.66 0 1.32 0 2 0 C0.8141763 3.37503669 -0.27573689 5.64722731 -3 8 C-2.25 2.25 -2.25 2.25 0 0 Z " fill="#57A195" transform="translate(3270,328)"/>
<path d="M0 0 C1.88343932 3.76687864 2.22057835 5.02958963 2 9 C1.01 9.33 0.02 9.66 -1 10 C-0.67 6.7 -0.34 3.4 0 0 Z " fill="#68A29B" transform="translate(3155,254)"/>
<path d="M0 0 C-0.33 0.66 -0.66 1.32 -1 2 C-3.64 2 -6.28 2 -9 2 C-5.945634 -1.054366 -3.9532319 -1.22686507 0 0 Z " fill="#DEF7F8" transform="translate(2961,162)"/>
<path d="M0 0 C0.66 0.66 1.32 1.32 2 2 C-1.465 4.97 -1.465 4.97 -5 8 C-5.33 7.34 -5.66 6.68 -6 6 C-5.34 6 -4.68 6 -4 6 C-3.34 4.68 -2.68 3.36 -2 2 C-1.34 2 -0.68 2 0 2 C0 1.34 0 0.68 0 0 Z " fill="#DDF8F7" transform="translate(2934,52)"/>
<path d="M0 0 C2.64 0.66 5.28 1.32 8 2 C7.34 3.32 6.68 4.64 6 6 C3.97945196 4.35830472 1.97956942 2.69088222 0 1 C0 0.67 0 0.34 0 0 Z " fill="#E0FCFA" transform="translate(3212,44)"/>
<path d="M0 0 C-0.6875 1.9375 -0.6875 1.9375 -2 4 C-4.625 4.75 -4.625 4.75 -7 5 C-5.64703851 0.94111554 -4.27479763 0 0 0 Z " fill="#5AA499" transform="translate(2963,35)"/>
<path d="M0 0 C2.97 0.33 5.94 0.66 9 1 C7 3 7 3 3.875 3.125 C2.451875 3.063125 2.451875 3.063125 1 3 C0.67 2.01 0.34 1.02 0 0 Z " fill="#4A4A4A" transform="translate(417,908)"/>
<path d="M0 0 C0.33 0.66 0.66 1.32 1 2 C0.01 3.485 0.01 3.485 -1 5 C-2.65 4.67 -4.3 4.34 -6 4 C-4.60804085 1.2160817 -2.84424221 1.02101003 0 0 Z " fill="#4C4C4C" transform="translate(547,887)"/>
<path d="M0 0 C0.66 0.99 1.32 1.98 2 3 C1.34 4.32 0.68 5.64 0 7 C-0.99 7 -1.98 7 -3 7 C-2.01 4.69 -1.02 2.38 0 0 Z " fill="#565656" transform="translate(649,778)"/>
<path d="M0 0 C1.65 0 3.3 0 5 0 C5 0.66 5 1.32 5 2 C6.32 2.33 7.64 2.66 9 3 C8.34 3.66 7.68 4.32 7 5 C3.535 3.02 3.535 3.02 0 1 C0 0.67 0 0.34 0 0 Z " fill="#58A89A" transform="translate(2963,408)"/>
<path d="M0 0 C3.37503669 1.1858237 5.64722731 2.27573689 8 5 C7.34 5.66 6.68 6.32 6 7 C4.02 4.69 2.04 2.38 0 0 Z " fill="#5F9E98" transform="translate(2932,384)"/>
<path d="M0 0 C0.33 0.66 0.66 1.32 1 2 C-0.32 3.65 -1.64 5.3 -3 7 C-3.99 6.67 -4.98 6.34 -6 6 C-4.02 4.02 -2.04 2.04 0 0 Z " fill="#E1FAFB" transform="translate(3244,368)"/>
<path d="M0 0 C0.66 0 1.32 0 2 0 C2 0.66 2 1.32 2 2 C2.639375 2.2475 3.27875 2.495 3.9375 2.75 C6 4 6 4 6.75 6.125 C6.8325 6.74375 6.915 7.3625 7 8 C1.125 3.375 1.125 3.375 0 0 Z " fill="#5DA298" transform="translate(2909,360)"/>
<path d="M0 0 C2.475 0.495 2.475 0.495 5 1 C5 2.65 5 4.3 5 6 C3.31237149 4.3545622 1.6459651 2.68711423 0 1 C0 0.67 0 0.34 0 0 Z " fill="#67A7A4" transform="translate(2902,352)"/>
<path d="M0 0 C0.66 0 1.32 0 2 0 C5.22265625 5.2734375 5.22265625 5.2734375 6 7 C5.67 7.66 5.34 8.32 5 9 C4.16094435 7.87926138 3.32892169 6.75325453 2.5 5.625 C2.0359375 4.99851562 1.571875 4.37203125 1.09375 3.7265625 C0 2 0 2 0 0 Z " fill="#57A296" transform="translate(2897,343)"/>
<path d="M0 0 C0.66 0.33 1.32 0.66 2 1 C2.6328125 3.06640625 2.6328125 3.06640625 3.125 5.5625 C3.29257813 6.38878906 3.46015625 7.21507812 3.6328125 8.06640625 C3.75398438 8.70449219 3.87515625 9.34257812 4 10 C3.34 10 2.68 10 2 10 C1.01 7.03 0.02 4.06 -1 1 C-0.67 0.67 -0.34 0.34 0 0 Z " fill="#D8F5F2" transform="translate(3283,132)"/>
</svg>
