<?xml version="1.0" encoding="UTF-8"?>
<svg version="1.1" xmlns="http://www.w3.org/2000/svg" width="849" height="294">
<path d="M0 0 C19.11771827 15.97580914 33.32859134 34.88458041 40.5546875 58.90625 C40.75352539 59.5660083 40.95236328 60.2257666 41.15722656 60.90551758 C49.25454372 89.4162685 45.73499259 120.32726519 32.1484375 146.5390625 C26.75218388 156.12967689 20.32073279 165.29084433 12.8046875 173.34375 C12.1446875 173.34375 11.4846875 173.34375 10.8046875 173.34375 C10.8046875 174.00375 10.8046875 174.66375 10.8046875 175.34375 C10.1446875 175.34375 9.4846875 175.34375 8.8046875 175.34375 C8.4746875 176.33375 8.1446875 177.32375 7.8046875 178.34375 C-14.10578425 197.34423722 -40.33540106 207.74855308 -69.35522461 207.65942383 C-71.49450005 207.65626963 -73.63237918 207.67979087 -75.77148438 207.70507812 C-84.92470409 207.74766074 -93.30125287 206.71173712 -102.1953125 204.34375 C-102.97994873 204.13532471 -103.76458496 203.92689941 -104.57299805 203.7121582 C-122.27589625 198.61757041 -137.82286721 188.85219001 -151.1953125 176.34375 C-151.87722656 175.71855469 -152.55914062 175.09335937 -153.26171875 174.44921875 C-171.63149368 156.90135768 -185.65925281 129.86301547 -187.13671875 104.1640625 C-187.15605469 103.23335938 -187.17539062 102.30265625 -187.1953125 101.34375 C-187.21964355 100.65764648 -187.24397461 99.97154297 -187.26904297 99.26464844 C-187.66673711 87.2943019 -186.98520529 76.02184398 -184.1953125 64.34375 C-183.99252686 63.49288818 -183.78974121 62.64202637 -183.58081055 61.76538086 C-181.90193973 55.16894587 -179.59297961 49.15362372 -176.6328125 43.03125 C-176.19517578 42.12262207 -175.75753906 41.21399414 -175.30664062 40.27783203 C-166.70410825 22.89739377 -154.3189315 8.97592901 -138.75537109 -2.50488281 C-137.46972668 -3.45372461 -136.19945182 -4.42335512 -134.93359375 -5.3984375 C-123.01108496 -14.06509418 -108.47793427 -18.74142923 -94.1953125 -21.65625 C-93.25300781 -21.88054687 -92.31070313 -22.10484375 -91.33984375 -22.3359375 C-60.25330323 -28.88519423 -24.73862754 -19.5763665 0 0 Z M-114.1953125 57.34375 C-124.0409198 69.16306879 -127.62875296 83.29354802 -126.40771484 98.36669922 C-125.4173278 107.58526735 -121.55347309 115.26211239 -117.1953125 123.34375 C-116.5353125 123.34375 -115.8753125 123.34375 -115.1953125 123.34375 C-115.0096875 124.024375 -114.8240625 124.705 -114.6328125 125.40625 C-109.63205483 135.62518958 -97.49785989 141.65540257 -87.1953125 145.34375 C-73.06661898 149.45391539 -58.58369299 147.83342663 -45.5078125 141.21875 C-32.09082248 133.52180524 -21.26653559 121.6237571 -16.9453125 106.53125 C-13.70776482 90.81499915 -15.6649591 76.08495277 -24.1953125 62.34375 C-32.91011818 49.54732648 -44.87961987 41.2727813 -60.06420898 37.72094727 C-80.8710848 34.03820891 -100.49046183 41.28637007 -114.1953125 57.34375 Z " fill="#3F3F41" transform="translate(447.1953125,86.65625)"/>
<path d="M0 0 C19.8 0 39.6 0 60 0 C60.66156136 5.29249087 61.12331261 9.90443873 61.11352539 15.15039062 C61.11367142 15.81480164 61.11381744 16.47921265 61.1139679 17.16375732 C61.11327936 19.32795649 61.1055374 21.49206615 61.09765625 23.65625 C61.0957883 25.16939243 61.09436618 26.68253546 61.09336853 28.19567871 C61.08957306 32.15431423 61.07976854 36.11291234 61.06866455 40.0715332 C61.05838618 44.12060032 61.05385721 48.16967356 61.04882812 52.21875 C61.03814326 60.14585039 61.02110302 68.07292053 61 76 C62.70591309 75.28227417 62.70591309 75.28227417 64.44628906 74.55004883 C65.96931586 73.91467209 67.49243267 73.27951106 69.015625 72.64453125 C69.76150879 72.33004028 70.50739258 72.01554932 71.27587891 71.69152832 C78.37293296 68.74212828 85.48573887 66.65964258 93 65 C94.00675781 64.77441406 95.01351562 64.54882812 96.05078125 64.31640625 C125.04381633 58.86376022 156.65057056 65.57544959 181.046875 82.05859375 C207.17522613 101.04564684 225.41280163 126.7914447 231 159 C231.11359863 159.65129883 231.22719727 160.30259766 231.34423828 160.97363281 C236.4109504 191.57343847 227.32773142 223.54842702 210 249 C207.375 251.8125 207.375 251.8125 205 254 C204.401875 254.78375 203.80375 255.5675 203.1875 256.375 C200.14364897 260.02762123 196.6325707 262.94644645 193 266 C192.14921875 266.73863281 191.2984375 267.47726562 190.421875 268.23828125 C175.40808824 281 175.40808824 281 169 281 C169 281.66 169 282.32 169 283 C150.57149859 290.63354064 136.2740563 294 116 294 C116 274.2 116 254.4 116 234 C121.28 233.01 126.56 232.02 132 231 C145.44611256 226.72888189 156.44837159 217.85300224 163.75 205.75 C171.23401998 191.23706936 172.21512922 177.59943312 168 162 C166.08280228 156.4762705 163.42980189 151.74119674 160 147 C159.56945312 146.36191406 159.13890625 145.72382813 158.6953125 145.06640625 C151.31065803 134.5083462 139.81068235 128.74260289 127.5546875 125.31640625 C117.42638359 124.06198329 106.44512976 123.8500926 97 128 C95.35451172 128.67869141 95.35451172 128.67869141 93.67578125 129.37109375 C81.45273766 134.88137394 71.55845156 143.50688863 66 156 C62.86751576 164.51367975 62 170.70798919 62 180 C41.54 180 21.08 180 0 180 C0 120.6 0 61.2 0 0 Z " fill="#3F3F41" transform="translate(522,0)"/>
<path d="M0 0 C19.8 0 39.6 0 60 0 C60.99 5.28 61.98 10.56 63 16 C65.5217249 23.08809161 68.0446452 28.72332954 72.86328125 34.4765625 C74 36 74 36 74 38 C74.598125 38.27328125 75.19625 38.5465625 75.8125 38.828125 C77.92832889 39.96160476 79.28823882 41.09173136 81 42.75 C91.42386408 51.80172061 105.63059033 55.77625583 119.30078125 55.27734375 C134.30744482 53.7354145 148.19137949 46.9806461 158.08203125 35.60546875 C166.41942048 25.04065086 170 13.30800986 170 0 C190.46 0 210.92 0 232 0 C229.67532957 27.8960452 229.67532957 27.8960452 226 38 C225.64035156 39.06863281 225.28070313 40.13726562 224.91015625 41.23828125 C220.42415642 53.85043566 213.79342169 64.91000574 205 75 C204.26652344 75.85464844 203.53304687 76.70929688 202.77734375 77.58984375 C189.17302432 93.1076352 171.94326721 105.23743144 152 111 C151.01 111 150.02 111 149 111 C148.67 111.66 148.34 112.32 148 113 C138.20214606 115.9557964 128.27202005 116.4803547 118.11108398 116.39111328 C115.93474977 116.37497961 113.76026429 116.39109822 111.58398438 116.41015625 C93.60279065 116.43781533 75.68846402 111.90558222 60 103 C58.99582031 102.43667969 57.99164063 101.87335938 56.95703125 101.29296875 C40.61469887 91.70624808 27.38829411 78.87695466 17 63 C16.56171875 62.36964844 16.1234375 61.73929688 15.671875 61.08984375 C8.79771541 50.84386537 4.93271104 38.88593945 2 27 C1.6596875 25.63294922 1.6596875 25.63294922 1.3125 24.23828125 C-0.4842094 15.89106885 0 8.95717114 0 0 Z " fill="#3F3F41" transform="translate(0,178)"/>
<path d="M0 0 C39.6 0 79.2 0 120 0 C119.9375 47.6875 119.9375 47.6875 119.90991211 62.61206055 C119.90656279 67.11966671 119.90656279 67.11966671 119.90455627 71.62727356 C119.90304461 73.59801969 119.899579 75.56876504 119.89442444 77.539505 C119.86008004 91.39190839 120.2096737 105.16948583 121 119 C117.68288583 119.88944548 114.7743367 120.12665564 111.3293457 120.12939453 C109.62286613 120.13412277 109.62286613 120.13412277 107.88191223 120.13894653 C106.65888901 120.1369223 105.43586578 120.13489807 104.17578125 120.1328125 C102.2900666 120.13424759 102.2900666 120.13424759 100.36625671 120.13571167 C97.71085153 120.13639201 95.05553849 120.13504989 92.40014648 120.13037109 C88.99024194 120.12465663 85.58041581 120.12796691 82.17051411 120.13394356 C78.92226695 120.13841456 75.67402942 120.13529018 72.42578125 120.1328125 C71.19668533 120.13483673 69.96758942 120.13686096 68.70124817 120.13894653 C67.57305161 120.13579437 66.44485504 120.13264221 65.2824707 120.12939453 C64.28415726 120.12859894 63.28584381 120.12780334 62.25727844 120.12698364 C60 120 60 120 59 119 C58.90618698 117.15881971 58.88256046 115.31402359 58.88647461 113.47045898 C58.88659546 112.27271851 58.88671631 111.07497803 58.88684082 109.84094238 C58.89195679 108.57214233 58.89707275 107.30334229 58.90234375 105.99609375 C58.90335083 104.83726685 58.90435791 103.67843994 58.90539551 102.48449707 C58.91064673 98.13548805 58.92460784 93.78649308 58.9375 89.4375 C58.9684375 74.8659375 58.9684375 74.8659375 59 60 C39.53 60 20.06 60 0 60 C-6.32455532 41.02633404 -0.35082321 19.99692284 0 0 Z " fill="#44A39C" transform="translate(112,0)"/>
<path d="M0 0 C3.56792039 2.10541657 6.81207371 4.35566327 10 7 C10.69480469 7.57105469 11.38960937 8.14210938 12.10546875 8.73046875 C20.73781298 16.56135742 28.13147982 29.10915557 29.28149414 40.8815918 C29.40189314 44.05193127 29.40948159 47.20269383 29.375 50.375 C29.38660156 51.43460938 29.39820313 52.49421875 29.41015625 53.5859375 C29.34953365 70.07528365 22.84150813 82.00528444 11.875 93.9375 C-0.92679774 106.1623153 -17.01525192 108.68234996 -34.078125 108.37890625 C-41.22077686 108.06576988 -46.70225582 106.48755891 -53 103 C-53.9075 102.51917969 -54.815 102.03835937 -55.75 101.54296875 C-70.20043056 93.39309794 -78.48893601 81.44623471 -84 66 C-87.33301208 53.92799283 -85.7492246 39.35180515 -81 28 C-80.72285156 27.28070313 -80.44570313 26.56140625 -80.16015625 25.8203125 C-73.97877771 11.63447603 -60.90214155 1.87029872 -47 -4 C-45.75476563 -4.54527344 -45.75476563 -4.54527344 -44.484375 -5.1015625 C-29.99447629 -8.83774714 -12.96870421 -7.5029668 0 0 Z M-65 39 C-69.23461468 43.69241086 -70.3041306 46.5029599 -70.21484375 52.68359375 C-69.7872105 57.29425773 -67.89702546 60.10297454 -64.6875 63.3125 C-61.71872918 65.17661191 -59.46494363 65.67767966 -56 66 C-55.58253392 63.12635209 -55.58253392 63.12635209 -56 60 C-58.32323453 58.37249963 -58.32323453 58.37249963 -61 57 C-64.06179775 53.01966292 -64.06179775 53.01966292 -63.875 49.9375 C-62.05947541 45.91740983 -60.10060342 43.69680142 -56 42 C-56 40.02 -56 38.04 -56 36 C-59.8148669 36 -61.72675616 37.06277405 -65 39 Z M-45 39 C-49.49410036 43.84889775 -50.36659248 46.99598195 -50.2734375 53.4609375 C-49.86365492 57.26606146 -48.58543918 59.21568088 -46 62 C-42.5772934 64.71105473 -39.79349314 65.90255347 -35.4375 66.4375 C-30.27298119 65.78019761 -27.18419809 64.3122195 -23.6875 60.4375 C-20.24457041 55.46437948 -20.43038093 50.93073968 -21 45 C-22.48592951 41.38208467 -23.583434 39.68099136 -27.12890625 37.9765625 C-33.90994956 35.54119604 -38.45117881 35.60864617 -45 39 Z M-9 36 C-9.185625 37.3303125 -9.185625 37.3303125 -9.375 38.6875 C-10 42 -10 42 -11 44.375 C-12.34745861 47.91207884 -12.58151284 51.23361552 -13 55 C-13.30169066 56.34084736 -13.61517681 57.6806062 -14 59 C-13.01 59 -12.02 59 -11 59 C-10.071875 57.2984375 -10.071875 57.2984375 -9.125 55.5625 C-7.25 52.125 -7.25 52.125 -5 51 C-4.86722656 51.91523437 -4.73445312 52.83046875 -4.59765625 53.7734375 C-4.42105469 54.96195313 -4.24445313 56.15046875 -4.0625 57.375 C-3.88847656 58.55835937 -3.71445312 59.74171875 -3.53515625 60.9609375 C-3.16537214 63.90702381 -3.16537214 63.90702381 -2 66 C-0.35 66 1.3 66 3 66 C3.33 65.01 3.66 64.02 4 63 C4.33 62.67 4.66 62.34 5 62 C5.39454223 60.15400312 5.74176866 58.29774178 6.0625 56.4375 C6.23910156 55.42558594 6.41570312 54.41367187 6.59765625 53.37109375 C6.73042969 52.58863281 6.86320313 51.80617188 7 51 C7.66 51 8.32 51 9 51 C9.144375 52.11375 9.28875 53.2275 9.4375 54.375 C9.78372035 57.82142047 9.78372035 57.82142047 11 60 C12.32 60 13.64 60 15 60 C14.57258771 51.6875679 13.25809954 44.0098625 11 36 C9.02 36 7.04 36 5 36 C3.08373163 40.98229776 2.4452885 45.72684667 2 51 C1.34 51 0.68 51 0 51 C-0.33 48.36 -0.66 45.72 -1 43 C-1.33 43 -1.66 43 -2 43 C-2.33 40.69 -2.66 38.38 -3 36 C-4.98 36 -6.96 36 -9 36 Z M-15 60 C-15 61.98 -15 63.96 -15 66 C-13.35 66 -11.7 66 -10 66 C-10 65.01 -10 64.02 -10 63 C-9.67 62.34 -9.34 61.68 -9 61 C-10.32 61.33 -11.64 61.66 -13 62 C-13 61.34 -13 60.68 -13 60 C-13.66 60 -14.32 60 -15 60 Z M12 63 C12 63.99 12 64.98 12 66 C13.65 66 15.3 66 17 66 C16.67 65.01 16.34 64.02 16 63 C16 63.66 16 64.32 16 65 C14.68 64.34 13.36 63.68 12 63 Z " fill="#44A29C" transform="translate(820,6)"/>
<path d="M0 0 C0.79148437 -0.01417969 1.58296875 -0.02835938 2.3984375 -0.04296875 C4.625 0.1875 4.625 0.1875 7.625 2.1875 C8.84914155 5.85992465 9.09059007 8.3297537 8.625 12.1875 C5.50590004 16.00839745 5.50590004 16.00839745 2.625 17.1875 C-0.41939305 17.29247907 -2.71107791 16.64982319 -5.375 15.1875 C-8.07871887 12.01063033 -9.375 10.38463537 -9.375 6.1875 C-8.715 6.1875 -8.055 6.1875 -7.375 6.1875 C-7.065625 5.383125 -6.75625 4.57875 -6.4375 3.75 C-4.82114405 -0.14827022 -4.07069481 0.03293442 0 0 Z " fill="#44A59D" transform="translate(784.375,48.8125)"/>
<path d="M0 0 C0.66 0 1.32 0 2 0 C2 4.62 2 9.24 2 14 C-17.47 14 -36.94 14 -57 14 C-57 13.67 -57 13.34 -57 13 C-29.775 12.505 -29.775 12.505 -2 12 C-1.29017924 9.16071698 -0.7728956 6.62481941 -0.4375 3.75 C-0.293125 2.5125 -0.14875 1.275 0 0 Z " fill="#303031" transform="translate(582,166)"/>
<path d="M0 0 C0.66 0 1.32 0 2 0 C2.33 2.31 2.66 4.62 3 7 C2.01 7 1.02 7 0 7 C-0.12375 8.134375 -0.2475 9.26875 -0.375 10.4375 C-0.58125 11.613125 -0.7875 12.78875 -1 14 C-1.99 14.495 -1.99 14.495 -3 15 C-3.66 14.34 -4.32 13.68 -5 13 C-4.67 12.34 -4.34 11.68 -4 11 C-4.66 11 -5.32 11 -6 11 C-5.33333333 9.66666667 -4.66666667 8.33333333 -4 7 C-3.2265625 5.4221875 -3.2265625 5.4221875 -2.4375 3.8125 C-1 1 -1 1 0 0 Z " fill="#30B2AE" transform="translate(813,57)"/>
<path d="M0 0 C0.33 0 0.66 0 1 0 C2.23594596 6.75320871 2.18377124 13.46277529 2.1875 20.3125 C2.19974609 21.48490234 2.21199219 22.65730469 2.22460938 23.86523438 C2.23626714 30.82492183 1.70600306 37.24461452 0 44 C-0.33 44 -0.66 44 -1 44 C-1.07015452 40.5624283 -1.05182313 37.32154825 -0.50390625 33.921875 C0.12480146 29.02867705 0.14560111 24.23959983 0.125 19.3125 C0.12886719 18.37599609 0.13273437 17.43949219 0.13671875 16.47460938 C0.13478516 15.12012695 0.13478516 15.12012695 0.1328125 13.73828125 C0.13168457 12.92399658 0.13055664 12.10971191 0.12939453 11.27075195 C0.07191155 9.00303207 0.07191155 9.00303207 -0.53564453 6.87573242 C-1.15539204 4.37230439 -0.61767925 2.47071699 0 0 Z " fill="#303030" transform="translate(490,159)"/>
<path d="M0 0 C0.66 0 1.32 0 2 0 C2.12375 1.134375 2.2475 2.26875 2.375 3.4375 C2.684375 5.2009375 2.684375 5.2009375 3 7 C3.66 7.33 4.32 7.66 5 8 C5 9.98 5 11.96 5 14 C4.01 14.495 4.01 14.495 3 15 C2.67 13.02 2.34 11.04 2 9 C0.02 9.99 0.02 9.99 -2 11 C-1.125 3.375 -1.125 3.375 0 0 Z " fill="#4A9A97" transform="translate(827,57)"/>
<path d="M0 0 C2.80362763 -0.22732116 4.46186517 -0.34081872 6.875 1.1875 C8 3 8 3 7.6875 5.6875 C7.460625 6.450625 7.23375 7.21375 7 8 C6.01 8.33 5.02 8.66 4 9 C0 3.375 0 3.375 0 0 Z " fill="#40A5A0" transform="translate(775,55)"/>
<path d="M0 0 C1.32 0.66 2.64 1.32 4 2 C4 2.99 4 3.98 4 5 C4.45375 4.34 4.9075 3.68 5.375 3 C5.91125 2.34 6.4475 1.68 7 1 C7.66 1 8.32 1 9 1 C7.32598022 4.95677402 4.86850715 7.84464213 2 11 C1.34 11 0.68 11 0 11 C-0.33 9.02 -0.66 7.04 -1 5 C-0.34 5 0.32 5 1 5 C1 4.34 1 3.68 1 3 C0.34 2.67 -0.32 2.34 -1 2 C-0.67 1.34 -0.34 0.68 0 0 Z " fill="#383839" transform="translate(458,249)"/>
<path d="M0 0 C0 4.34447001 -2.13417743 6.84366939 -5 10 C-7.5 11.1875 -7.5 11.1875 -10 12 C-10.86625 12.721875 -11.7325 13.44375 -12.625 14.1875 C-13.800625 15.0846875 -13.800625 15.0846875 -15 16 C-15.99 15.67 -16.98 15.34 -18 15 C-17.28714844 14.50371094 -16.57429688 14.00742188 -15.83984375 13.49609375 C-10.05411242 9.39235161 -4.79453055 5.23634736 0 0 Z " fill="#333333" transform="translate(420,212)"/>
<path d="M0 0 C5.625 -0.25 5.625 -0.25 9 2 C11.32961443 2.35840222 13.66365343 2.68848712 16 3 C19.89996914 3.97499228 22.64856417 4.76570945 26 7 C20.28222458 7.28778207 15.63583688 6.30722717 10.1875 4.625 C9.42501953 4.40328125 8.66253906 4.1815625 7.87695312 3.953125 C2.26652378 2.26652378 2.26652378 2.26652378 0 0 Z " fill="#313133" transform="translate(73,286)"/>
<path d="M0 0 C3.03368793 3.03368793 5 5.63755776 5 10 C4.34 10 3.68 10 3 10 C3.33 10.556875 3.66 11.11375 4 11.6875 C5.1309601 14.30284522 5.15662974 16.1806646 5 19 C2.48768622 16.48768622 2.21338287 14.62148234 1.375 11.1875 C1.11460938 10.14980469 0.85421875 9.11210937 0.5859375 8.04296875 C0.05085782 5.26412163 -0.11460481 2.81823638 0 0 Z " fill="#323233" transform="translate(1,196)"/>
<path d="M0 0 C1.58025005 0.21192095 3.16398461 0.39923371 4.75 0.5625 C5.54921875 0.64628906 6.3484375 0.73007813 7.171875 0.81640625 C8.07679688 0.90728516 8.07679688 0.90728516 9 1 C9 1.33 9 1.66 9 2 C-4.6332574 4.11161731 -4.6332574 4.11161731 -11 5 C-4.83249691 -1.3298058 -4.83249691 -1.3298058 0 0 Z " fill="#353537" transform="translate(367,122)"/>
<path d="M0 0 C0.66 0.66 1.32 1.32 2 2 C1.31292969 2.73605469 0.62585938 3.47210938 -0.08203125 4.23046875 C-0.99241501 5.21593571 -1.90255854 6.20162462 -2.8125 7.1875 C-3.70582031 8.15042969 -4.59914063 9.11335938 -5.51953125 10.10546875 C-7.69702078 12.64644472 -9.39192474 15.07768383 -11 18 C-11.66 17.67 -12.32 17.34 -13 17 C-8.83031167 11.1851989 -4.68279275 5.41447912 0 0 Z " fill="#323233" transform="translate(292,98)"/>
<path d="M0 0 C2 0 2 0 3.58203125 1.11328125 C5.57289543 3.76228234 5.51125121 5.90927242 5.6875 9.1875 C5.78611328 10.81751953 5.78611328 10.81751953 5.88671875 12.48046875 C5.94279297 13.72763672 5.94279297 13.72763672 6 15 C5.01 15.33 4.02 15.66 3 16 C2.92652344 14.89591797 2.92652344 14.89591797 2.8515625 13.76953125 C2.77679687 12.79371094 2.70203125 11.81789063 2.625 10.8125 C2.55539062 9.84957031 2.48578125 8.88664062 2.4140625 7.89453125 C1.99784147 4.98491062 1.20125904 2.67109226 0 0 Z " fill="#519792" transform="translate(796,46)"/>
<path d="M0 0 C3.08089673 2.77280706 4.68775452 5.06326356 6 9 C0.46153846 9.36923077 0.46153846 9.36923077 -1.875 7.5 C-2.24625 7.005 -2.6175 6.51 -3 6 C-1.68 5.34 -0.36 4.68 1 4 C0.67 2.68 0.34 1.36 0 0 Z " fill="#38383A" transform="translate(731,110)"/>
<path d="M0 0 C0.33 0 0.66 0 1 0 C1.33 3.3 1.66 6.6 2 10 C2.99 10.33 3.98 10.66 5 11 C3.02 11.99 3.02 11.99 1 13 C-1.30143236 9.54785147 -1.13833854 8.76520676 -0.625 4.8125 C-0.51414062 3.91144531 -0.40328125 3.01039062 -0.2890625 2.08203125 C-0.19367187 1.39496094 -0.09828125 0.70789063 0 0 Z M11 7 C10.34 8.32 9.68 9.64 9 11 C7.68 10.67 6.36 10.34 5 10 C8.75 7 8.75 7 11 7 Z " fill="#353537" transform="translate(581,66)"/>
<path d="M0 0 C2.97 0 5.94 0 9 0 C8.67 1.32 8.34 2.64 8 4 C7.01 3.67 6.02 3.34 5 3 C5 3.66 5 4.32 5 5 C4.01 4.67 3.02 4.34 2 4 C1.34 2.68 0.68 1.36 0 0 Z " fill="#33BFBC" transform="translate(831,66)"/>
<path d="M0 0 C2.31 0.66 4.62 1.32 7 2 C7.99435406 5.09354597 7.87840996 6.90279155 7 10 C5.82739389 8.71372289 4.6620717 7.42080217 3.5 6.125 C2.8503125 5.40570313 2.200625 4.68640625 1.53125 3.9453125 C0 2 0 2 0 0 Z " fill="#373739" transform="translate(284,248)"/>
<path d="M0 0 C0.33 0 0.66 0 1 0 C1.33 5.61 1.66 11.22 2 17 C1.01 17 0.02 17 -1 17 C-1.12036664 11.22240116 -0.8320582 5.72040011 0 0 Z " fill="#2BC9BB" transform="translate(231,98)"/>
<path d="M0 0 C6.04801071 0.54981916 11.30601106 1.90429574 17 4 C13.91721293 4.986216 12.02988392 4.97412763 8.9375 4.0625 C6.39694023 3.32617654 4.69602824 3 2 3 C1.34 2.01 0.68 1.02 0 0 Z " fill="#313133" transform="translate(662,66)"/>
<path d="M0 0 C1.32 0 2.64 0 4 0 C4 0.66 4 1.32 4 2 C4.66 2 5.32 2 6 2 C5.67 3.65 5.34 5.3 5 7 C3.68 6.67 2.36 6.34 1 6 C0.67 4.02 0.34 2.04 0 0 Z " fill="#43A8A1" transform="translate(757,52)"/>
<path d="M0 0 C1.07310858 3.27185553 0.89263102 5.42947592 0.0625 8.75 C-0.22947266 9.94882812 -0.22947266 9.94882812 -0.52734375 11.171875 C-0.68332031 11.77515625 -0.83929687 12.3784375 -1 13 C-1.66 13 -2.32 13 -3 13 C-3.33 10.36 -3.66 7.72 -4 5 C-3.67 5.99 -3.34 6.98 -3 8 C-2.34 8 -1.68 8 -1 8 C-0.67 5.36 -0.34 2.72 0 0 Z " fill="#549891" transform="translate(823,44)"/>
<path d="M0 0 C0.99 0 1.98 0 3 0 C3.93065133 2.60582371 4.14917407 3.64198224 3.0625 6.25 C2.5365625 7.11625 2.5365625 7.11625 2 8 C0.4375 6.25 0.4375 6.25 -1 4 C-0.6875 1.75 -0.6875 1.75 0 0 Z " fill="#363637" transform="translate(484,208)"/>
<path d="M0 0 C0.66 1.98 1.32 3.96 2 6 C-1.91211733 4.84414715 -4.8745041 3.64465038 -8 1 C-5.23735711 0.40267181 -2.83967231 0 0 0 Z " fill="#4B9A90" transform="translate(771,105)"/>
<path d="M0 0 C0.66 0 1.32 0 2 0 C0.59928507 5.29158974 -2.85487245 7.77478044 -7 11 C-6.67 10.21625 -6.34 9.4325 -6 8.625 C-4.88133489 6.15667503 -4.88133489 6.15667503 -5 4 C-3.68 4 -2.36 4 -1 4 C-0.67 2.68 -0.34 1.36 0 0 Z " fill="#4B978D" transform="translate(838,88)"/>
<path d="M0 0 C0.70125 0.268125 1.4025 0.53625 2.125 0.8125 C1.2896875 1.18375 1.2896875 1.18375 0.4375 1.5625 C-3.10885622 3.47944931 -6.03238803 5.96988803 -8.875 8.8125 C-8.875 4.8125 -8.875 4.8125 -6.1875 2 C-2.875 -0.1875 -2.875 -0.1875 0 0 Z " fill="#54958D" transform="translate(779.875,41.1875)"/>
<path d="M0 0 C1.46015291 0.28241641 2.91809793 0.57626614 4.375 0.875 C5.18710937 1.03742187 5.99921875 1.19984375 6.8359375 1.3671875 C9 2 9 2 11 4 C10.01 4.33 9.02 4.66 8 5 C8 4.34 8 3.68 8 3 C7.071875 3.185625 6.14375 3.37125 5.1875 3.5625 C2 4 2 4 -1 3 C-0.67 2.01 -0.34 1.02 0 0 Z " fill="#509D96" transform="translate(802,0)"/>
<path d="M0 0 C0.99 0.33 1.98 0.66 3 1 C3.625 3.3125 3.625 3.3125 4 6 C3.01 7.485 3.01 7.485 2 9 C0.5 7.8125 0.5 7.8125 -1 6 C-1.25 3.375 -1.25 3.375 -1 1 C-0.67 0.67 -0.34 0.34 0 0 Z " fill="#509C94" transform="translate(756,54)"/>
<path d="M0 0 C2 1.4375 2 1.4375 4 4 C4.35442445 7.02824418 4.23347235 9.96485939 4 13 C3.34 13 2.68 13 2 13 C1.66127487 11.58461283 1.32925376 10.16762037 1 8.75 C0.814375 7.96109375 0.62875 7.1721875 0.4375 6.359375 C0 4 0 4 0 0 Z " fill="#4B9690" transform="translate(832,46)"/>
<path d="M0 0 C1.32 0 2.64 0 4 0 C4.33 3.63 4.66 7.26 5 11 C4.01 11.33 3.02 11.66 2 12 C2.02320313 11.30132812 2.04640625 10.60265625 2.0703125 9.8828125 C2.08835938 8.97273437 2.10640625 8.06265625 2.125 7.125 C2.15980469 5.76761719 2.15980469 5.76761719 2.1953125 4.3828125 C2.24324836 1.81193006 2.24324836 1.81193006 0 0 Z " fill="#353536" transform="translate(56,178)"/>
<path d="M0 0 C0.8971875 0.99 0.8971875 0.99 1.8125 2 C3.87501834 4.3373846 3.87501834 4.3373846 7 4 C7.33 5.98 7.66 7.96 8 10 C7.34 10 6.68 10 6 10 C4.4921875 8.3203125 4.4921875 8.3203125 2.875 6.125 C2.33617187 5.40570313 1.79734375 4.68640625 1.2421875 3.9453125 C0 2 0 2 0 0 Z " fill="#4D968D" transform="translate(744,87)"/>
<path d="M0 0 C2 2 2 2 2.125 5.125 C2.08375 6.07375 2.0425 7.0225 2 8 C1.34 6.68 0.68 5.36 0 4 C-0.66 5.32 -1.32 6.64 -2 8 C-2.66 7.01 -3.32 6.02 -4 5 C-2.25 1.125 -2.25 1.125 0 0 Z " fill="#499C94" transform="translate(791,52)"/>
<path d="M0 0 C1.32 0 2.64 0 4 0 C3.67 3.63 3.34 7.26 3 11 C2.67 11 2.34 11 2 11 C1.66550467 9.35440244 1.33243501 7.70851502 1 6.0625 C0.814375 5.14597656 0.62875 4.22945312 0.4375 3.28515625 C0 1 0 1 0 0 Z " fill="#363638" transform="translate(228,178)"/>
<path d="M0 0 C1.33597652 0.80814651 2.668725 1.62163181 4 2.4375 C5.11375 3.11619141 5.11375 3.11619141 6.25 3.80859375 C6.8275 4.20175781 7.405 4.59492188 8 5 C8 5.33 8 5.66 8 6 C5.69 5.67 3.38 5.34 1 5 C0.67 3.35 0.34 1.7 0 0 Z " fill="#4D9790" transform="translate(821,7)"/>
<path d="M0 0 C0.66 0 1.32 0 2 0 C0.66511872 3.59391114 -0.96022723 6.75490696 -3 10 C-4 7 -4 7 -3.22265625 5.17578125 C-2.1484375 3.45052083 -1.07421875 1.72526042 0 0 Z " fill="#373739" transform="translate(740,230)"/>
<path d="M0 0 C0.33 0.66 0.66 1.32 1 2 C0.0625 4.625 0.0625 4.625 -1 7 C-2.32 6.67 -3.64 6.34 -5 6 C-5 5.01 -5 4.02 -5 3 C-4.01 3 -3.02 3 -2 3 C-1.34 2.01 -0.68 1.02 0 0 Z " fill="#353536" transform="translate(223,219)"/>
<path d="M0 0 C1.0625 1.875 1.0625 1.875 2 4 C1.67 4.66 1.34 5.32 1 6 C-1.475 5.01 -1.475 5.01 -4 4 C-4 3.34 -4 2.68 -4 2 C-2.68 1.34 -1.36 0.68 0 0 Z " fill="#489E91" transform="translate(749,57)"/>
<path d="M0 0 C0.928125 0.0825 1.85625 0.165 2.8125 0.25 C1.8225 0.58 0.8325 0.91 -0.1875 1.25 C-0.1875 1.91 -0.1875 2.57 -0.1875 3.25 C-1.5075 3.25 -2.8275 3.25 -4.1875 3.25 C-4.5175 4.24 -4.8475 5.23 -5.1875 6.25 C-5.5175 5.59 -5.8475 4.93 -6.1875 4.25 C-4.36434338 1.00883268 -3.82500054 0.30000004 0 0 Z " fill="#50948E" transform="translate(783.1875,48.75)"/>
<path d="M0 0 C0.66 0.33 1.32 0.66 2 1 C0.875 2.9375 0.875 2.9375 -1 5 C-4.1875 5.75 -4.1875 5.75 -7 6 C-4.83312509 3.72478134 -2.54379491 1.84205838 0 0 Z " fill="#343434" transform="translate(671,222)"/>
<path d="M0 0 C0.66 0 1.32 0 2 0 C2.25 2.25 2.25 2.25 2 5 C0 7.3125 0 7.3125 -2 9 C-1.51421457 5.87709365 -1.0013988 3.00419641 0 0 Z " fill="#2D2D2E" transform="translate(267,137)"/>
<path d="M0 0 C1.33333333 2.66666667 2.66666667 5.33333333 4 8 C3.34 8.66 2.68 9.32 2 10 C1.01 7.03 0.02 4.06 -1 1 C-0.67 0.67 -0.34 0.34 0 0 Z " fill="#4D968D" transform="translate(739,74)"/>
<path d="M0 0 C-1.485 1.98 -1.485 1.98 -3 4 C-5.475 3.01 -5.475 3.01 -8 2 C-4.77208445 -0.1519437 -3.71599191 -0.20086443 0 0 Z " fill="#4D9A93" transform="translate(788,62)"/>
<path d="M0 0 C0.66 0 1.32 0 2 0 C2.33 1.32 2.66 2.64 3 4 C1.02 4.66 -0.96 5.32 -3 6 C-1.125 1.125 -1.125 1.125 0 0 Z " fill="#3BB9B4" transform="translate(813,57)"/>
<path d="M0 0 C2.49415272 0.99766109 3.78740335 1.68616685 5.3125 3.9375 C6 6 6 6 5 9 C4.16094435 7.87926138 3.32892169 6.75325453 2.5 5.625 C2.0359375 4.99851563 1.571875 4.37203125 1.09375 3.7265625 C0 2 0 2 0 0 Z " fill="#323234" transform="translate(276,237)"/>
<path d="M0 0 C0.99 0.33 1.98 0.66 3 1 C3.33 3.31 3.66 5.62 4 8 C1.28004282 6.64002141 0.32968759 4.65937518 -1 2 C-0.67 1.34 -0.34 0.68 0 0 Z " fill="#38383A" transform="translate(747,146)"/>
<path d="M0 0 C4.5 3 4.5 3 9 6 C2.25 5.25 2.25 5.25 0 3 C0 2.01 0 1.02 0 0 Z " fill="#4E968D" transform="translate(752,66)"/>
<path d="M0 0 C0.33 0.99 0.66 1.98 1 3 C1.66 3 2.32 3 3 3 C2.67 4.32 2.34 5.64 2 7 C1.01 7 0.02 7 -1 7 C-0.67 4.69 -0.34 2.38 0 0 Z " fill="#4C9A94" transform="translate(737,40)"/>
<path d="M0 0 C2 1 2 1 2 1 Z " fill="#00FFFF" transform="translate(814,44)"/>
<path d="" fill="#00FFFF" transform="translate(0,0)"/>
<path d="" fill="#00FFFF" transform="translate(0,0)"/>
<path d="" fill="#00FFFF" transform="translate(0,0)"/>
</svg>
