<?xml version="1.0" encoding="UTF-8"?>
<svg version="1.1" xmlns="http://www.w3.org/2000/svg" width="500" height="500">
<path d="M0 0 C1.26465088 -0.0038269 2.52930176 -0.00765381 3.83227539 -0.01159668 C6.50235149 -0.01431503 9.17095537 -0.00898576 11.84082031 0.00976562 C15.25058273 0.03255571 18.6590856 0.01942339 22.06880188 -0.00452423 C25.33757876 -0.02251307 28.60620664 -0.00989155 31.875 0 C33.09388916 -0.00809692 34.31277832 -0.01619385 35.56860352 -0.02453613 C46.32180577 0.09425233 46.32180577 0.09425233 50.9375 4.53125 C53.62960597 8.04428959 54.32672642 10.66555596 54.44921875 15.05078125 C54.48466797 16.07236328 54.52011719 17.09394531 54.55664062 18.14648438 C54.57919922 19.20158203 54.60175781 20.25667969 54.625 21.34375 C54.65916016 22.41818359 54.69332031 23.49261719 54.72851562 24.59960938 C54.81076643 27.24338533 54.87999209 29.88683921 54.9375 32.53125 C55.99662598 32.5405957 57.05575195 32.54994141 58.14697266 32.55957031 C62.09465851 32.59958849 66.04157471 32.6653791 69.98876953 32.73876953 C71.69374671 32.76691087 73.39885269 32.78815935 75.10400391 32.80224609 C77.56219089 32.82377137 80.01884048 32.870467 82.4765625 32.921875 C83.23305084 32.92310364 83.98953918 32.92433228 84.76895142 32.92559814 C89.89478856 33.06592208 92.91677986 34.09166976 96.9375 37.53125 C101.03311954 42.36244264 100.36666864 47.8324854 100.34155273 53.83569336 C100.34841599 54.97770706 100.35527924 56.11972076 100.36235046 57.29634094 C100.38065179 61.07138502 100.37677603 64.84601483 100.37109375 68.62109375 C100.37565391 71.24516434 100.38095898 73.86923374 100.38697815 76.49330139 C100.39700354 81.99354006 100.3937123 87.49366111 100.38354492 92.99389648 C100.3720654 99.344129 100.38613812 105.6939391 100.4129414 112.04411596 C100.43779574 118.16252829 100.44027206 124.28074616 100.43382454 130.39920235 C100.4336711 132.9983344 100.43973395 135.59747451 100.45211601 138.19657707 C100.46698846 141.83050865 100.45637501 145.46350971 100.43920898 149.09741211 C100.45371094 150.70835251 100.45371094 150.70835251 100.46850586 152.35183716 C100.41071492 158.19251002 100.14658722 162.09004955 95.9375 166.53125 C91.68152197 169.05252658 88.56315283 169.90703334 83.63769531 169.91220093 C82.39282349 169.9206604 81.14795166 169.92911987 79.86535645 169.93783569 C78.49877797 169.93200369 77.13220081 169.92585924 75.765625 169.91943359 C74.31636154 169.92350181 72.86710119 169.92884509 71.41784668 169.93536377 C67.49222678 169.94901359 63.56684402 169.94374845 59.64122009 169.93422651 C55.52805962 169.92661779 51.4149191 169.93367889 47.30175781 169.93838501 C40.39514531 169.94383903 33.48862912 169.93666025 26.58203125 169.92236328 C18.60329596 169.90603741 10.62479067 169.91132617 2.64606094 169.9278425 C-4.21101725 169.94146745 -11.06802631 169.9433721 -17.92511368 169.93552649 C-22.01761901 169.93085552 -26.11001631 169.93020925 -30.20251465 169.94013596 C-34.05051918 169.94881808 -37.8982279 169.94276119 -41.74620056 169.92545319 C-43.15628061 169.92149496 -44.56638567 169.92261102 -45.97645569 169.92924118 C-47.90519303 169.93747225 -49.83398494 169.9253074 -51.76269531 169.91220093 C-52.84077454 169.91106985 -53.91885376 169.90993877 -55.02960205 169.90877342 C-59.84224507 169.30971421 -63.0856457 167.56086715 -66.40415955 164.06311035 C-68.77282543 159.01843023 -68.62918852 154.53160669 -68.59594727 149.02148438 C-68.60456284 147.86957108 -68.61317841 146.71765778 -68.62205505 145.53083801 C-68.64473101 141.72866251 -68.63797297 137.92722301 -68.62890625 134.125 C-68.63414081 131.47993755 -68.64041667 128.83487697 -68.64768982 126.18981934 C-68.65952658 120.64844493 -68.65385716 115.10727977 -68.63891602 109.56591797 C-68.62198913 103.16842468 -68.63784094 96.77161345 -68.6701389 90.37419462 C-68.70008402 84.20822653 -68.70201386 78.04256992 -68.6926403 71.87654114 C-68.69181991 69.2578696 -68.69870008 66.63918394 -68.71341133 64.02055359 C-68.73082325 60.36020111 -68.71634005 56.70130922 -68.69360352 53.04101562 C-68.70529572 51.95927567 -68.71698792 50.87753571 -68.72903442 49.76301575 C-68.62545032 41.57006121 -68.62545032 41.57006121 -65.63444519 37.89706421 C-60.72449621 33.38062773 -57.13885463 33.25006846 -50.578125 33.3359375 C-49.76253113 33.3387674 -48.94693726 33.34159729 -48.10662842 33.34451294 C-45.50843472 33.35568442 -42.91058905 33.38078325 -40.3125 33.40625 C-38.54818207 33.41628373 -36.78385872 33.42540889 -35.01953125 33.43359375 C-30.70038727 33.45561381 -26.38150259 33.49012267 -22.0625 33.53125 C-22.07821045 32.83040283 -22.0939209 32.12955566 -22.11010742 31.4074707 C-22.17262412 28.21964649 -22.21154381 25.03195149 -22.25 21.84375 C-22.27513672 20.74095703 -22.30027344 19.63816406 -22.32617188 18.50195312 C-22.33583984 17.43525391 -22.34550781 16.36855469 -22.35546875 15.26953125 C-22.3711792 14.29024658 -22.38688965 13.31096191 -22.40307617 12.30200195 C-21.84139296 7.73243727 -19.96230813 5.39622207 -16.69140625 2.25195312 C-11.72382383 -0.77381153 -5.61011602 -0.03726728 0 0 Z M-14.0625 10.53125 C-15.2888757 12.98400141 -15.17665314 14.5818281 -15.16015625 17.3203125 C-15.15693359 18.26132813 -15.15371094 19.20234375 -15.15039062 20.171875 C-15.14201172 21.15671875 -15.13363281 22.1415625 -15.125 23.15625 C-15.12048828 24.14882812 -15.11597656 25.14140625 -15.11132812 26.1640625 C-15.09952145 28.6198516 -15.083054 31.07552104 -15.0625 33.53125 C-13.39638095 33.573971 -11.72867115 33.57188832 -10.0625 33.53125 C-8.44972016 31.91847016 -8.82571006 30.00577376 -8.6875 27.78125 C-8.29122872 23.63518779 -7.89412946 20.75344904 -5.0625 17.53125 C-0.60643036 14.86394155 2.70926371 14.14753569 7.875 14.1328125 C9.18210937 14.12894531 10.48921875 14.12507812 11.8359375 14.12109375 C12.50979492 14.12737793 13.18365234 14.13366211 13.87792969 14.14013672 C15.9323163 14.15620944 17.9847362 14.14025174 20.0390625 14.12109375 C21.99972656 14.12689453 21.99972656 14.12689453 24 14.1328125 C25.18722656 14.13619629 26.37445313 14.13958008 27.59765625 14.14306641 C31.331764 14.57707454 33.74035806 15.58022442 36.9375 17.53125 C40.40842591 22.43842111 40.60340483 27.70186523 40.9375 33.53125 C42.60361905 33.573971 44.27132885 33.57188832 45.9375 33.53125 C48.23239634 31.23635366 47.1703762 25.79889339 47.1875 22.71875 C47.208125 21.80287109 47.22875 20.88699219 47.25 19.94335938 C47.25515625 19.05841797 47.2603125 18.17347656 47.265625 17.26171875 C47.27964355 16.04585083 47.27964355 16.04585083 47.29394531 14.80541992 C46.84773196 11.95851758 45.90266511 10.61412931 43.9375 8.53125 C41.02423885 7.56016295 39.12050429 7.39402562 36.08642578 7.37011719 C35.10175323 7.36050964 34.11708069 7.3509021 33.10256958 7.34100342 C32.04004974 7.33675354 30.97752991 7.33250366 29.8828125 7.328125 C28.78911346 7.32242493 27.69541443 7.31672485 26.568573 7.31085205 C24.25357023 7.30140213 21.93855401 7.2948681 19.62353516 7.29101562 C16.08342016 7.28130737 12.54388503 7.25028217 9.00390625 7.21875 C6.75521178 7.21222014 4.50651316 7.2069696 2.2578125 7.203125 C1.19934113 7.1907782 0.14086975 7.1784314 -0.94967651 7.16571045 C-8.0298302 7.10147359 -8.0298302 7.10147359 -14.0625 10.53125 Z M-1.0625 23.53125 C-2.55356457 26.51337913 -2.18191467 29.24734658 -2.0625 32.53125 C-0.90581499 33.91546065 -0.90581499 33.91546065 2.26391602 33.64477539 C3.73975556 33.64461629 5.21560069 33.63892314 6.69140625 33.62890625 C7.46685287 33.6274913 8.2422995 33.62607635 9.04124451 33.62461853 C11.52753494 33.61900345 14.0137366 33.60644846 16.5 33.59375 C18.18163933 33.58873694 19.86328006 33.5841737 21.54492188 33.58007812 C25.67581566 33.56902913 29.80664276 33.55175445 33.9375 33.53125 C34.06086303 28.53798438 34.1225611 25.54206768 30.9375 21.53125 C26.0937941 19.91668137 21.13489017 20.30509202 16.0625 20.28125 C14.97324219 20.260625 13.88398438 20.24 12.76171875 20.21875 C11.18197266 20.21101563 11.18197266 20.21101563 9.5703125 20.203125 C8.61012207 20.1937793 7.64993164 20.18443359 6.66064453 20.17480469 C3.43118073 20.59752453 1.55843692 21.62879833 -1.0625 23.53125 Z M-61.0625 44.53125 C-61.79566376 46.82679422 -61.79566376 46.82679422 -61.67773438 49.34399414 C-61.68703979 50.29500504 -61.69634521 51.24601593 -61.70593262 52.22584534 C-61.68953735 53.24573044 -61.67314209 54.26561554 -61.65625 55.31640625 C-61.65629028 56.3690416 -61.65633057 57.42167694 -61.65637207 58.50621033 C-61.65101427 60.72954281 -61.63342063 62.95287465 -61.60449219 65.17602539 C-61.56261078 68.58473357 -61.56342529 71.9914684 -61.5703125 75.40039062 C-61.55982119 77.5599096 -61.5468834 79.71941837 -61.53125 81.87890625 C-61.53104858 82.90081558 -61.53084717 83.92272491 -61.53063965 84.9756012 C-61.51472778 85.92345993 -61.49881592 86.87131866 -61.48242188 87.84790039 C-61.47400269 88.68188858 -61.4655835 89.51587677 -61.45690918 90.37513733 C-61.19980075 92.57386964 -61.19980075 92.57386964 -59.89604187 94.30267334 C-57.30340471 96.03988674 -55.41332429 95.89170303 -52.3059082 95.87182617 C-51.12491043 95.87159958 -49.94391266 95.87137299 -48.72712708 95.87113953 C-47.45205795 95.85565567 -46.17698883 95.84017181 -44.86328125 95.82421875 C-43.55795944 95.81997391 -42.25263763 95.81572906 -40.90776062 95.81135559 C-37.44044721 95.79991089 -33.97351187 95.77044754 -30.50634766 95.73724365 C-26.96717442 95.70653433 -23.42793999 95.69284845 -19.88867188 95.67773438 C-12.94645945 95.64557705 -6.00449789 95.59438554 0.9375 95.53125 C0.99808594 94.74878906 1.05867188 93.96632812 1.12109375 93.16015625 C1.20488281 92.14824219 1.28867188 91.13632813 1.375 90.09375 C1.45621094 89.08441406 1.53742188 88.07507813 1.62109375 87.03515625 C1.9375 84.53125 1.9375 84.53125 2.9375 83.53125 C4.85208282 83.43153214 6.77032317 83.40044411 8.6875 83.3984375 C9.8528125 83.39714844 11.018125 83.39585937 12.21875 83.39453125 C13.4459375 83.39839844 14.673125 83.40226562 15.9375 83.40625 C17.77828125 83.40044922 17.77828125 83.40044922 19.65625 83.39453125 C21.40421875 83.39646484 21.40421875 83.39646484 23.1875 83.3984375 C24.26515625 83.39956543 25.3428125 83.40069336 26.453125 83.40185547 C28.9375 83.53125 28.9375 83.53125 29.9375 84.53125 C30.17113881 86.38016946 30.35053635 88.23613031 30.5 90.09375 C30.58378906 91.10566406 30.66757812 92.11757812 30.75390625 93.16015625 C30.81449219 93.94261719 30.87507813 94.72507813 30.9375 95.53125 C38.57820742 95.62390347 46.21885665 95.69499109 53.85999775 95.73849869 C57.40808762 95.75937977 60.95579335 95.78770545 64.50366211 95.83300781 C68.58190613 95.88475697 72.65974626 95.90419074 76.73828125 95.921875 C78.01335037 95.94252014 79.28841949 95.96316528 80.60212708 95.98443604 C82.37362373 95.98488922 82.37362373 95.98488922 84.1809082 95.98535156 C85.74310844 95.99867523 85.74310844 95.99867523 87.33686829 96.01226807 C90.03089213 95.75764581 90.03089213 95.75764581 91.77104187 93.79693604 C93.07933122 91.25576217 93.32799123 89.67165074 93.35742188 86.82617188 C93.37333374 85.89840942 93.38924561 84.97064697 93.40563965 84.01477051 C93.40584106 83.01989624 93.40604248 82.02502197 93.40625 81 C93.41386353 79.97193237 93.42147705 78.94386475 93.42932129 77.88464355 C93.44011892 75.71267118 93.44297677 73.5406469 93.43847656 71.36865234 C93.43750346 68.04306744 93.47914673 64.71978348 93.5234375 61.39453125 C93.52864389 59.28385898 93.5313327 57.17317869 93.53125 55.0625 C93.5558429 53.5701886 93.5558429 53.5701886 93.58093262 52.04772949 C93.56697449 50.65608582 93.56697449 50.65608582 93.55273438 49.23632812 C93.55478882 48.42232544 93.55684326 47.60832275 93.55895996 46.76965332 C92.63041678 43.42518339 90.78178116 42.42707556 87.9375 40.53125 C85.04708483 39.9362785 85.04708483 39.9362785 81.90307617 40.02331543 C80.08614761 40.00639648 80.08614761 40.00639648 78.23251343 39.98913574 C76.89849613 39.99691217 75.56448121 40.0051048 74.23046875 40.01367188 C72.81913532 40.00824901 71.40780755 40.00112543 69.99649048 39.99243164 C66.16998509 39.9742145 62.34391166 39.9812589 58.51739883 39.99394798 C54.51052955 40.0040841 50.50369693 39.99468061 46.49682617 39.98840332 C39.76832447 39.98112868 33.03999846 39.99070973 26.31152344 40.00976562 C18.5355137 40.03153413 10.75992349 40.02448263 2.98392391 40.00246 C-3.69564177 39.9843007 -10.37508126 39.98175024 -17.05466366 39.99221468 C-21.04266676 39.99844674 -25.03047274 39.99929328 -29.01846313 39.98606873 C-32.76804846 39.97450299 -36.51709359 39.98254847 -40.26662064 40.00564575 C-41.64163949 40.01092908 -43.01670391 40.0094254 -44.39170456 40.00059509 C-46.27047844 39.9896431 -48.14935182 40.00582105 -50.02807617 40.02331543 C-51.60427986 40.02557758 -51.60427986 40.02557758 -53.21232605 40.02788544 C-56.79303494 40.66026858 -58.48487858 42.01413404 -61.0625 44.53125 Z M7.9375 90.53125 C7.855 92.573125 7.7725 94.615 7.6875 96.71875 C7.64109375 97.86730469 7.5946875 99.01585937 7.546875 100.19921875 C8.01513241 104.19345446 9.06205561 105.76816755 11.9375 108.53125 C16.15063687 109.29727489 18.16267402 108.9763628 21.875 106.84375 C25.17337435 101.5463609 24.24835827 96.68624376 23.9375 90.53125 C18.6575 90.53125 13.3775 90.53125 7.9375 90.53125 Z M-61.0625 102.53125 C-61.124375 111.709375 -61.18625 120.8875 -61.25 130.34375 C-61.27731201 133.24003174 -61.30462402 136.13631348 -61.33276367 139.12036133 C-61.34152346 141.40966372 -61.34916859 143.69897077 -61.35546875 145.98828125 C-61.37081665 147.18207397 -61.38616455 148.3758667 -61.40197754 149.60583496 C-61.40234009 150.74242554 -61.40270264 151.87901611 -61.40307617 153.05004883 C-61.40973801 154.03822098 -61.41639984 155.02639313 -61.42326355 156.04450989 C-61.25606703 158.51817494 -61.25606703 158.51817494 -59.91240406 160.16244125 C-57.27829321 162.11151205 -55.36210674 161.91163004 -52.10327148 161.91893005 C-50.85818817 161.92883469 -49.61310486 161.93873932 -48.33029175 161.94894409 C-46.9480581 161.94470585 -45.5658254 161.94014797 -44.18359375 161.93530273 C-42.72990391 161.94100408 -41.27621855 161.94796742 -39.82254028 161.95610046 C-35.87216493 161.9740721 -31.9220112 161.97285618 -27.97160721 161.96715808 C-24.67617784 161.96407235 -21.38079142 161.97015171 -18.08536816 161.97619683 C-10.3130608 161.99025325 -2.54086334 161.98867118 5.23144531 161.97729492 C13.2562362 161.96580885 21.28069308 161.97989488 29.30543995 162.0066914 C36.19044001 162.02882327 43.07533503 162.03549159 49.96036816 162.02961498 C54.07466312 162.02623859 58.18874389 162.02870556 62.30300903 162.04586601 C66.1707259 162.06129357 70.0379465 162.05742692 73.90564346 162.03856087 C75.32666044 162.03486344 76.74771385 162.03801697 78.16869736 162.04844666 C80.10518489 162.06157708 82.04179984 162.04775043 83.97827148 162.03245544 C85.06301254 162.03224616 86.1477536 162.03203688 87.2653656 162.03182125 C90.04990335 161.77269472 90.04990335 161.77269472 91.78740406 159.66048908 C93.24829672 156.95585407 93.29918988 155.09684565 93.27807617 152.02832031 C93.27753235 150.35406982 93.27753235 150.35406982 93.27697754 148.64599609 C93.25395569 146.89536865 93.25395569 146.89536865 93.23046875 145.109375 C93.22744751 144.03220215 93.22442627 142.9550293 93.22131348 141.84521484 C93.20562468 137.82379568 93.16374071 133.80251316 93.125 129.78125 C93.063125 120.78875 93.00125 111.79625 92.9375 102.53125 C72.4775 102.86125 52.0175 103.19125 30.9375 103.53125 C29.6175 106.17125 28.2975 108.81125 26.9375 111.53125 C22.83194998 115.38797881 18.66036958 115.89795303 13.21875 115.80078125 C9.5201511 115.36378926 7.64152369 114.04662087 4.9375 111.53125 C3.6175 108.89125 2.2975 106.25125 0.9375 103.53125 C-19.5225 103.20125 -39.9825 102.87125 -61.0625 102.53125 Z " fill="#893DFC" transform="translate(234.0625,140.46875)"/>
<path d="M0 0 C0.99 0.495 0.99 0.495 2 1 C2.96912354 3.90737063 3.13212971 5.77455302 3.14717102 8.80012512 C3.15790398 10.28260994 3.15790398 10.28260994 3.16885376 11.79504395 C3.17154266 12.87821899 3.17423157 13.96139404 3.17700195 15.07739258 C3.18357315 16.21911423 3.19014435 17.36083588 3.19691467 18.53715515 C3.21665797 22.32294782 3.2283118 26.10870082 3.23828125 29.89453125 C3.24235678 31.18613348 3.2464323 32.47773571 3.25063133 33.8084774 C3.26934342 39.93806359 3.28390915 46.06762986 3.2922433 52.19723874 C3.3020152 59.26702324 3.3283359 66.33649459 3.36874419 73.40616876 C3.40256526 79.53415205 3.41439006 85.66200386 3.41844749 91.7900753 C3.42332435 94.394804 3.43496938 96.99952909 3.45348549 99.60419655 C3.47778028 103.24786061 3.47692916 106.89070391 3.4699707 110.53442383 C3.48918579 112.15007736 3.48918579 112.15007736 3.50878906 113.79837036 C3.46802445 119.65011779 3.22252827 123.55195599 -1 128 C-5.25612802 130.52106021 -8.3742831 131.37578327 -13.29980469 131.38095093 C-14.54467651 131.3894104 -15.78954834 131.39786987 -17.07214355 131.40658569 C-18.43872203 131.40075369 -19.80529919 131.39460924 -21.171875 131.38818359 C-22.62113846 131.39225181 -24.07039881 131.39759509 -25.51965332 131.40411377 C-29.44527322 131.41776359 -33.37065598 131.41249845 -37.29627991 131.40297651 C-41.40944038 131.39536779 -45.5225809 131.40242889 -49.63574219 131.40713501 C-56.54235469 131.41258903 -63.44887088 131.40541025 -70.35546875 131.39111328 C-78.33420404 131.37478741 -86.31270933 131.38007617 -94.29143906 131.3965925 C-101.14851725 131.41021745 -108.00552631 131.4121221 -114.86261368 131.40427649 C-118.95511901 131.39960552 -123.04751631 131.39895925 -127.14001465 131.40888596 C-130.98801918 131.41756808 -134.8357279 131.41151119 -138.68370056 131.39420319 C-140.09378061 131.39024496 -141.50388567 131.39136102 -142.91395569 131.39799118 C-144.84269303 131.40622225 -146.77148494 131.3940574 -148.70019531 131.38095093 C-149.77827454 131.37981985 -150.85635376 131.37868877 -151.96710205 131.37752342 C-156.44719347 130.81985895 -159.82918409 129.28789751 -162.875 125.9375 C-164 124 -164 124 -164 122 C-163.01 122 -162.02 122 -161 122 C-160.98969254 121.29034088 -160.97938507 120.58068176 -160.96876526 119.84951782 C-160.87087812 113.16892967 -160.76837629 106.48843025 -160.66066074 99.80799294 C-160.60544377 96.37333017 -160.55202577 92.93865887 -160.50268555 89.50390625 C-160.44591293 85.55720111 -160.38137602 81.61064158 -160.31640625 77.6640625 C-160.29969376 76.42757965 -160.28298126 75.1910968 -160.26576233 73.91714478 C-160.2358445 72.20559708 -160.2358445 72.20559708 -160.20532227 70.45947266 C-160.18977798 69.451315 -160.1742337 68.44315735 -160.15821838 67.40444946 C-160 65 -160 65 -159 63 C-158.0339962 63.00333092 -158.0339962 63.00333092 -157.04847717 63.00672913 C-150.31577105 63.02893753 -143.58307542 63.04397127 -136.8503418 63.05493164 C-134.34122291 63.05994503 -131.83210692 63.06675742 -129.32299805 63.07543945 C-125.70621015 63.08763652 -122.08946104 63.0932584 -118.47265625 63.09765625 C-117.35979752 63.10281754 -116.24693878 63.10797882 -115.10035706 63.11329651 C-108.97973539 63.11373246 -103.06871591 62.8056311 -97 62 C-97.33 61.34 -97.66 60.68 -98 60 C-104.86613436 58.53568825 -112.26379423 58.80329974 -119.2578125 58.68359375 C-120.28687714 58.66281265 -121.31594177 58.64203156 -122.37619019 58.62062073 C-125.62573325 58.55584737 -128.87534895 58.49658018 -132.125 58.4375 C-134.34375716 58.3942459 -136.56250729 58.35062955 -138.78125 58.30664062 C-144.18742583 58.20024136 -149.59367203 58.09834841 -155 58 C-155 57.67 -155 57.34 -155 57 C-135.53 57 -116.06 57 -96 57 C-96 53.37 -96 49.74 -96 46 C-93.31512835 43.31512835 -91.93523019 43.74230551 -88.1875 43.734375 C-87.02992188 43.73179687 -85.87234375 43.72921875 -84.6796875 43.7265625 C-83.46539062 43.73429687 -82.25109375 43.74203125 -81 43.75 C-79.78570312 43.74226563 -78.57140625 43.73453125 -77.3203125 43.7265625 C-75.58394531 43.73042969 -75.58394531 43.73042969 -73.8125 43.734375 C-72.74644531 43.73663086 -71.68039062 43.73888672 -70.58203125 43.74121094 C-68 44 -68 44 -66 46 C-65.8046875 48.6015625 -65.8046875 48.6015625 -65.875 51.625 C-65.89304687 52.62789062 -65.91109375 53.63078125 -65.9296875 54.6640625 C-65.95289063 55.43492187 -65.97609375 56.20578125 -66 57 C-58.34166988 56.93885303 -50.68364127 56.86179387 -43.02569008 56.76428509 C-39.46994914 56.71951273 -35.91432459 56.68027238 -32.35839844 56.65356445 C-28.2724885 56.62263562 -24.18720453 56.56784496 -20.1015625 56.51171875 C-18.82133209 56.50532883 -17.54110168 56.4989389 -16.22207642 56.49235535 C-15.04100311 56.47256119 -13.85992981 56.45276703 -12.64306641 56.43237305 C-11.59937897 56.42126999 -10.55569153 56.41016693 -9.4803772 56.39872742 C-8.25259048 56.20135735 -8.25259048 56.20135735 -7 56 C-4.90131783 52.85197675 -4.74037997 52.0397817 -4.68115234 48.43676758 C-4.66128265 47.51603958 -4.64141296 46.59531158 -4.62094116 45.64668274 C-4.60938995 44.65597275 -4.59783875 43.66526276 -4.5859375 42.64453125 C-4.56657135 41.62775803 -4.5472052 40.6109848 -4.5272522 39.56340027 C-4.46743259 36.31318573 -4.42106124 33.06293583 -4.375 29.8125 C-4.33682244 27.61001052 -4.29777084 25.40753601 -4.2578125 23.20507812 C-4.16172917 17.80351817 -4.07668862 12.40186823 -4 7 C-3.67 7 -3.34 7 -3 7 C-2.92403812 13.780933 -2.8714375 20.5617566 -2.83520508 27.34301758 C-2.82010324 29.65067648 -2.79962031 31.95830661 -2.77368164 34.26586914 C-2.73736025 37.57966199 -2.72028764 40.89307592 -2.70703125 44.20703125 C-2.69154739 45.2414888 -2.67606354 46.27594635 -2.66011047 47.3417511 C-2.65977058 48.78290535 -2.65977058 48.78290535 -2.65942383 50.25317383 C-2.64943108 51.52225334 -2.64943108 51.52225334 -2.63923645 52.81697083 C-3 55 -3 55 -4.15002441 56.77539062 C-6.79774909 58.52807779 -8.77933793 58.36012781 -11.94018555 58.34057617 C-13.16122482 58.34034958 -14.3822641 58.34012299 -15.64030457 58.33988953 C-17.61852959 58.31666374 -17.61852959 58.31666374 -19.63671875 58.29296875 C-21.00006138 58.28737243 -22.36341004 58.2831025 -23.72676086 58.28010559 C-27.31243592 58.26865949 -30.89774554 58.23919486 -34.48327637 58.20599365 C-38.1430975 58.17528739 -41.80297777 58.1615991 -45.46289062 58.14648438 C-52.64209356 58.11432449 -59.82099554 58.06313153 -67 58 C-67.33 54.37 -67.66 50.74 -68 47 C-72.95 47 -77.9 47 -83 47 C-83.33 47.99 -83.66 48.98 -84 50 C-80.7 50 -77.4 50 -74 50 C-73.67 50.66 -73.34 51.32 -73 52 C-78.28 52 -83.56 52 -89 52 C-88.896875 54.0625 -88.79375 56.125 -88.6875 58.25 C-88.62949219 59.41015625 -88.57148438 60.5703125 -88.51171875 61.765625 C-87.97695064 65.14568603 -87.44735964 66.64413044 -85 69 C-81.54250051 69.66676878 -81.54250051 69.66676878 -78 69 C-75.09480666 66.80936947 -74.11783298 65.5831222 -73.390625 61.984375 C-73.34421875 60.91703125 -73.2978125 59.8496875 -73.25 58.75 C-73.16492188 57.13351563 -73.16492188 57.13351563 -73.078125 55.484375 C-73.05234375 54.66453125 -73.0265625 53.8446875 -73 53 C-72.67 53 -72.34 53 -72 53 C-72 57.29 -72 61.58 -72 66 C-70.35 65.34 -68.7 64.68 -67 64 C-63.93107605 63.7215271 -63.93107605 63.7215271 -60.46557617 63.68115234 C-59.16460495 63.66128265 -57.86363373 63.64141296 -56.52323914 63.62094116 C-55.11315073 63.60906649 -53.70306053 63.59740353 -52.29296875 63.5859375 C-50.84278777 63.5672164 -49.39261758 63.54764228 -47.94245911 63.5272522 C-44.13675304 63.47602431 -40.3310117 63.43634886 -36.52514648 63.39910889 C-31.95280859 63.35195292 -27.38064446 63.29039531 -22.80844879 63.23126221 C-15.8723697 63.14316382 -8.93632199 63.07331856 -2 63 C-1.67 82.47 -1.34 101.94 -1 122 C-0.01 121.67 0.98 121.34 2 121 C1.89262779 106.25709406 1.77984288 91.51423777 1.66066074 76.77142239 C1.60544458 69.92567541 1.55198208 63.07992323 1.50268555 56.23413086 C1.45510274 49.62701298 1.40258316 43.01994619 1.34705925 36.41288948 C1.3266864 33.89275441 1.30796507 31.37260542 1.29092598 28.8524456 C1.26676963 25.3214198 1.23673051 21.7904892 1.20532227 18.25952148 C1.1995668 17.21870422 1.19381134 16.17788696 1.18788147 15.10552979 C1.13598365 9.96900667 0.88206825 5.06296177 0 0 Z M-158 64 C-158.061875 73.178125 -158.12375 82.35625 -158.1875 91.8125 C-158.21481201 94.70878174 -158.24212402 97.60506348 -158.27026367 100.58911133 C-158.27902346 102.87841372 -158.28666859 105.16772077 -158.29296875 107.45703125 C-158.30831665 108.65082397 -158.32366455 109.8446167 -158.33947754 111.07458496 C-158.33984009 112.21117554 -158.34020264 113.34776611 -158.34057617 114.51879883 C-158.34723801 115.50697098 -158.35389984 116.49514313 -158.36076355 117.51325989 C-158.19356703 119.98692494 -158.19356703 119.98692494 -156.84990406 121.63119125 C-154.21579321 123.58026205 -152.29960674 123.38038004 -149.04077148 123.38768005 C-147.79568817 123.39758469 -146.55060486 123.40748932 -145.26779175 123.41769409 C-143.8855581 123.41345585 -142.5033254 123.40889797 -141.12109375 123.40405273 C-139.66740391 123.40975408 -138.21371855 123.41671742 -136.76004028 123.42485046 C-132.80966493 123.4428221 -128.8595112 123.44160618 -124.90910721 123.43590808 C-121.61367784 123.43282235 -118.31829142 123.43890171 -115.02286816 123.44494683 C-107.2505608 123.45900325 -99.47836334 123.45742118 -91.70605469 123.44604492 C-83.6812638 123.43455885 -75.65680692 123.44864488 -67.63206005 123.4754414 C-60.74705999 123.49757327 -53.86216497 123.50424159 -46.97713184 123.49836498 C-42.86283688 123.49498859 -38.74875611 123.49745556 -34.63449097 123.51461601 C-30.7667741 123.53004357 -26.8995535 123.52617692 -23.03185654 123.50731087 C-21.61083956 123.50361344 -20.18978615 123.50676697 -18.76880264 123.51719666 C-16.83231511 123.53032708 -14.89570016 123.51650043 -12.95922852 123.50120544 C-11.87448746 123.50099616 -10.7897464 123.50078688 -9.6721344 123.50057125 C-6.88759665 123.24144472 -6.88759665 123.24144472 -5.15009594 121.12923908 C-3.68920328 118.42460407 -3.63831012 116.56559565 -3.65942383 113.49707031 C-3.65996765 111.82281982 -3.65996765 111.82281982 -3.66052246 110.11474609 C-3.68354431 108.36411865 -3.68354431 108.36411865 -3.70703125 106.578125 C-3.71005249 105.50095215 -3.71307373 104.4237793 -3.71618652 103.31396484 C-3.73187532 99.29254568 -3.77375929 95.27126316 -3.8125 91.25 C-3.874375 82.2575 -3.93625 73.265 -4 64 C-24.46 64.33 -44.92 64.66 -66 65 C-67.32 67.64 -68.64 70.28 -70 73 C-74.10555002 76.85672881 -78.27713042 77.36670303 -83.71875 77.26953125 C-87.4173489 76.83253926 -89.29597631 75.51537087 -92 73 C-93.32 70.36 -94.64 67.72 -96 65 C-116.46 64.67 -136.92 64.34 -158 64 Z " fill="#8441ED" transform="translate(331,179)"/>
<path d="M0 0 C0.33 0 0.66 0 1 0 C1.07596188 6.780933 1.1285625 13.5617566 1.16479492 20.34301758 C1.17989676 22.65067648 1.20037969 24.95830661 1.22631836 27.26586914 C1.26263975 30.57966199 1.27971236 33.89307592 1.29296875 37.20703125 C1.30845261 38.2414888 1.32393646 39.27594635 1.33988953 40.3417511 C1.34022942 41.78290535 1.34022942 41.78290535 1.34057617 43.25317383 C1.35056892 44.52225334 1.35056892 44.52225334 1.36076355 45.81697083 C1 48 1 48 -0.15002441 49.77539062 C-2.79774909 51.52807779 -4.77933793 51.36012781 -7.94018555 51.34057617 C-9.16122482 51.34034958 -10.3822641 51.34012299 -11.64030457 51.33988953 C-13.61852959 51.31666374 -13.61852959 51.31666374 -15.63671875 51.29296875 C-17.00006138 51.28737243 -18.36341004 51.2831025 -19.72676086 51.28010559 C-23.31243592 51.26865949 -26.89774554 51.23919486 -30.48327637 51.20599365 C-34.1430975 51.17528739 -37.80297777 51.1615991 -41.46289062 51.14648438 C-48.64209356 51.11432449 -55.82099554 51.06313153 -63 51 C-63.33 47.37 -63.66 43.74 -64 40 C-68.95 40 -73.9 40 -79 40 C-79.33 40.99 -79.66 41.98 -80 43 C-76.7 43 -73.4 43 -70 43 C-69.67 43.66 -69.34 44.32 -69 45 C-74.28 45 -79.56 45 -85 45 C-84.896875 47.0625 -84.79375 49.125 -84.6875 51.25 C-84.62949219 52.41015625 -84.57148438 53.5703125 -84.51171875 54.765625 C-83.97695064 58.14568603 -83.44735964 59.64413044 -81 62 C-77.54250051 62.66676878 -77.54250051 62.66676878 -74 62 C-71.09480666 59.80936947 -70.11783298 58.5831222 -69.390625 54.984375 C-69.34421875 53.91703125 -69.2978125 52.8496875 -69.25 51.75 C-69.16492188 50.13351563 -69.16492188 50.13351563 -69.078125 48.484375 C-69.05234375 47.66453125 -69.0265625 46.8446875 -69 46 C-68.67 46 -68.34 46 -68 46 C-68 50.29 -68 54.58 -68 59 C-66.35 58.34 -64.7 57.68 -63 57 C-59.93107605 56.7215271 -59.93107605 56.7215271 -56.46557617 56.68115234 C-55.16460495 56.66128265 -53.86363373 56.64141296 -52.52323914 56.62094116 C-51.11315073 56.60906649 -49.70306053 56.59740353 -48.29296875 56.5859375 C-46.84278777 56.5672164 -45.39261758 56.54764228 -43.94245911 56.5272522 C-40.13675304 56.47602431 -36.3310117 56.43634886 -32.52514648 56.39910889 C-27.95280859 56.35195292 -23.38064446 56.29039531 -18.80844879 56.23126221 C-11.8723697 56.14316382 -4.93632199 56.07331856 2 56 C1.67 74.48 1.34 92.96 1 112 C0.67 112 0.34 112 0 112 C0 93.85 0 75.7 0 57 C-0.99 57.33 -1.98 57.66 -3 58 C-4.91718848 58.08865176 -6.83735913 58.11761757 -8.7565918 58.11352539 C-9.93758957 58.11344986 -11.11858734 58.11337433 -12.33537292 58.11329651 C-13.61044205 58.10813522 -14.88551117 58.10297394 -16.19921875 58.09765625 C-17.50454056 58.0962413 -18.80986237 58.09482635 -20.15473938 58.09336853 C-23.62189656 58.0895538 -27.08901174 58.07973244 -30.55615234 58.06866455 C-34.09537182 58.05842798 -37.6345981 58.0538661 -41.17382812 58.04882812 C-48.11590265 58.03810923 -55.05794931 58.02104534 -62 58 C-62.17789063 59.13888672 -62.17789063 59.13888672 -62.359375 60.30078125 C-63.27706129 64.1673741 -65.24962062 66.187112 -68 69 C-72.25552508 71.60059866 -77.14823937 71.68576122 -82 71 C-86.84239423 68.62448585 -89.40148493 65.6973157 -92 61 C-92 60.01 -92 59.02 -92 58 C-92.73249466 58.00222061 -93.46498932 58.00444122 -94.21968079 58.00672913 C-101.12061402 58.02676091 -108.02154292 58.0419889 -114.92249775 58.05181217 C-118.47039848 58.05703216 -122.0182752 58.0641138 -125.56616211 58.07543945 C-129.64437084 58.08837663 -133.72255433 58.09323552 -137.80078125 58.09765625 C-139.71338493 58.10539818 -139.71338493 58.10539818 -141.66462708 58.11329651 C-142.84562485 58.11337204 -144.02662262 58.11344757 -145.2434082 58.11352539 C-146.80560844 58.11685631 -146.80560844 58.11685631 -148.39936829 58.12025452 C-151 58 -151 58 -154 57 C-154 75.15 -154 93.3 -154 112 C-154.33 112 -154.66 112 -155 112 C-155 93.52 -155 75.04 -155 56 C-129.0625 56.0625 -129.0625 56.0625 -120.92602539 56.09008789 C-118.77490285 56.09301115 -116.62377975 56.09555874 -114.47265625 56.09765625 C-113.37433472 56.10277222 -112.27601318 56.10788818 -111.14440918 56.11315918 C-105.00874076 56.11384897 -99.08364805 55.80761336 -93 55 C-93.33 54.34 -93.66 53.68 -94 53 C-100.86613436 51.53568825 -108.26379423 51.80329974 -115.2578125 51.68359375 C-116.28687714 51.66281265 -117.31594177 51.64203156 -118.37619019 51.62062073 C-121.62573325 51.55584737 -124.87534895 51.49658018 -128.125 51.4375 C-130.34375716 51.3942459 -132.56250729 51.35062955 -134.78125 51.30664062 C-140.18742583 51.20024136 -145.59367203 51.09834841 -151 51 C-151 50.67 -151 50.34 -151 50 C-131.53 50 -112.06 50 -92 50 C-92 46.37 -92 42.74 -92 39 C-89.31512835 36.31512835 -87.93523019 36.74230551 -84.1875 36.734375 C-83.02992188 36.73179687 -81.87234375 36.72921875 -80.6796875 36.7265625 C-79.46539062 36.73429687 -78.25109375 36.74203125 -77 36.75 C-75.78570312 36.74226563 -74.57140625 36.73453125 -73.3203125 36.7265625 C-71.58394531 36.73042969 -71.58394531 36.73042969 -69.8125 36.734375 C-68.74644531 36.73663086 -67.68039062 36.73888672 -66.58203125 36.74121094 C-64 37 -64 37 -62 39 C-61.8046875 41.6015625 -61.8046875 41.6015625 -61.875 44.625 C-61.89304687 45.62789062 -61.91109375 46.63078125 -61.9296875 47.6640625 C-61.95289063 48.43492187 -61.97609375 49.20578125 -62 50 C-54.34166988 49.93885303 -46.68364127 49.86179387 -39.02569008 49.76428509 C-35.46994914 49.71951273 -31.91432459 49.68027238 -28.35839844 49.65356445 C-24.2724885 49.62263562 -20.18720453 49.56784496 -16.1015625 49.51171875 C-14.82133209 49.50532883 -13.54110168 49.4989389 -12.22207642 49.49235535 C-11.04100311 49.47256119 -9.85992981 49.45276703 -8.64306641 49.43237305 C-7.59937897 49.42126999 -6.55569153 49.41016693 -5.4803772 49.39872742 C-4.25259048 49.20135735 -4.25259048 49.20135735 -3 49 C-0.90131783 45.85197675 -0.74037997 45.0397817 -0.68115234 41.43676758 C-0.66128265 40.51603958 -0.64141296 39.59531158 -0.62094116 38.64668274 C-0.60938995 37.65597275 -0.59783875 36.66526276 -0.5859375 35.64453125 C-0.56657135 34.62775803 -0.5472052 33.6109848 -0.5272522 32.56340027 C-0.46743259 29.31318573 -0.42106124 26.06293583 -0.375 22.8125 C-0.33682244 20.61001052 -0.29777084 18.40753601 -0.2578125 16.20507812 C-0.16172917 10.80351817 -0.07668862 5.40186823 0 0 Z " fill="#824DDF" transform="translate(327,186)"/>
<path d="M0 0 C0.74765625 -0.01224609 1.4953125 -0.02449219 2.265625 -0.03710938 C7.7641487 -0.05147834 13.42282531 0.13083735 17.8125 3.8125 C19.3642652 7.28115162 19.34266536 10.44617711 18.875 14.1875 C17.875 16.6875 17.875 16.6875 16.875 18.1875 C17.514375 18.80625 18.15375 19.425 18.8125 20.0625 C21.9976915 23.34421245 22.16000258 25.58919745 22.09375 30.15234375 C21.77420564 33.12524757 20.76089752 34.89748159 18.875 37.1875 C15.62196423 39.26246306 13.05082426 39.42341302 9.234375 39.3828125 C8.16445313 39.37636719 7.09453125 39.36992187 5.9921875 39.36328125 C4.88101562 39.34652344 3.76984375 39.32976562 2.625 39.3125 C1.49835938 39.30347656 0.37171875 39.29445313 -0.7890625 39.28515625 C-3.56792365 39.26160658 -6.3463539 39.2287168 -9.125 39.1875 C-9.14964849 33.79403012 -9.16783531 28.40059275 -9.17993164 23.00708008 C-9.18497231 21.17081125 -9.19180477 19.33454646 -9.20043945 17.49829102 C-9.21251672 14.86473599 -9.21823081 12.23123384 -9.22265625 9.59765625 C-9.22781754 8.77161392 -9.23297882 7.94557159 -9.23829651 7.09449768 C-9.23849205 5.12513632 -9.18704152 3.15588386 -9.125 1.1875 C-7.06163947 -0.87586053 -2.83283934 0.00236859 0 0 Z M-0.125 7.1875 C-0.125 10.1575 -0.125 13.1275 -0.125 16.1875 C1.7621875 16.249375 1.7621875 16.249375 3.6875 16.3125 C4.39519531 16.33570313 5.10289062 16.35890625 5.83203125 16.3828125 C8.18859719 16.32004462 8.18859719 16.32004462 10.875 14.1875 C11.29166667 11.6875 11.29166667 11.6875 10.875 9.1875 C9.08842243 6.97379949 9.08842243 6.97379949 6.7109375 6.9921875 C3.29296875 7.08984375 3.29296875 7.08984375 -0.125 7.1875 Z M-0.125 22.1875 C-0.125 25.8175 -0.125 29.4475 -0.125 33.1875 C4.79627034 33.35432272 8.37843896 33.43578052 12.875 31.1875 C13.12515873 27.77107241 13.12515873 27.77107241 12.875 24.1875 C9.56129 21.97836 8.5303979 21.96268447 4.6875 22.0625 C3.099375 22.10375 1.51125 22.145 -0.125 22.1875 Z " fill="#8342ED" transform="translate(261.125,321.8125)"/>
<path d="M0 0 C-0.00888245 0.64479813 -0.01776489 1.28959625 -0.0269165 1.95393372 C-0.11527679 8.65319979 -0.17568725 15.3523009 -0.21972656 22.05200195 C-0.23986617 24.55369793 -0.2671796 27.0553467 -0.30175781 29.55688477 C-0.35017103 33.14871861 -0.3729455 36.73993117 -0.390625 40.33203125 C-0.41127014 41.45398392 -0.43191528 42.57593658 -0.45318604 43.73188782 C-0.45348816 44.77274033 -0.45379028 45.81359283 -0.45410156 46.88598633 C-0.46298401 47.80309891 -0.47186646 48.72021149 -0.48101807 49.66511536 C-0.19263295 52.12279493 -0.19263295 52.12279493 1.74026489 53.79359436 C4.25963965 55.13861392 5.77059061 55.38765528 8.60986328 55.41650391 C9.51825958 55.43307037 10.42665588 55.44963684 11.36257935 55.46670532 C12.33863129 55.46995819 13.31468323 55.47321106 14.3203125 55.4765625 C15.33415009 55.49214203 16.34798767 55.50772156 17.39254761 55.52377319 C20.63668991 55.57128462 23.88062003 55.59901416 27.125 55.625 C30.34780114 55.66168857 33.57048766 55.70258117 36.79318237 55.74765015 C38.79663405 55.77450373 40.8001673 55.79601121 42.80374146 55.81118774 C47.40046872 55.86205781 51.98393547 55.99732044 56.56982422 56.32568359 C57.37443085 56.38178802 58.17903748 56.43789246 59.00802612 56.49569702 C61 57 61 57 63 60 C59.65422735 63.34577265 49.35997463 62.1236903 44.79022217 62.13894653 C43.8024176 62.1369223 42.81461304 62.13489807 41.796875 62.1328125 C40.75605774 62.13376923 39.71524048 62.13472595 38.6428833 62.13571167 C36.45788512 62.13638827 34.27288487 62.13457052 32.08789062 62.13037109 C28.74604806 62.12499364 25.40433855 62.13034494 22.0625 62.13671875 C19.93229137 62.1360583 17.80208282 62.13477783 15.671875 62.1328125 C14.67597351 62.13483673 13.68007202 62.13686096 12.6539917 62.13894653 C11.72242249 62.13579437 10.79085327 62.13264221 9.83105469 62.12939453 C9.01658875 62.12859894 8.2021228 62.12780334 7.36297607 62.12698364 C4.83063714 61.99089863 2.4720319 61.55322637 0 61 C-0.0154612 62.04236565 -0.0154612 62.04236565 -0.03123474 63.10578918 C-0.12919919 69.65362067 -0.23171217 76.20136328 -0.33933926 82.74904346 C-0.39451122 86.11529613 -0.44792197 89.48155757 -0.49731445 92.84790039 C-0.55496637 96.71769614 -0.61867568 100.58735144 -0.68359375 104.45703125 C-0.70030624 105.66647903 -0.71701874 106.87592682 -0.73423767 108.12202454 C-0.75418289 109.24296005 -0.77412811 110.36389557 -0.79467773 111.51879883 C-0.81022202 112.50697098 -0.8257663 113.49514313 -0.84178162 114.51325989 C-1 117 -1 117 -2 120 C-2.99 120 -3.98 120 -5 120 C-5.07004451 104.79694568 -5.12296579 89.59389879 -5.15543652 74.39071941 C-5.1709132 67.33179522 -5.19201788 60.27297122 -5.22631836 53.21411133 C-5.25938446 46.40604003 -5.27683734 39.59807305 -5.28463173 32.78992653 C-5.29018864 30.18830537 -5.30103941 27.58669011 -5.31719017 24.98511314 C-5.33886492 21.35021871 -5.34197105 17.71575886 -5.34057617 14.08081055 C-5.351362 12.99755997 -5.36214783 11.91430939 -5.3732605 10.79823303 C-5.36913651 9.80965302 -5.36501251 8.821073 -5.36076355 7.80253601 C-5.36352893 6.94250316 -5.36629431 6.0824703 -5.36914349 5.19637585 C-4.82309693 1.94744012 -3.41595004 0 0 0 Z " fill="#893DFC" transform="translate(172,181)"/>
<path d="M0 0 C2.31 0.33 4.62 0.66 7 1 C6.25 5.75 6.25 5.75 4 8 C4.33 8.66 4.66 9.32 5 10 C5.68376068 16.95156695 5.68376068 16.95156695 3.125 20.875 C-1.05481649 23.71727521 -5.0480668 24.35576791 -10 25 C-8.25040671 26.74959329 -5.62715497 26.16882885 -3.25 26.25 C0.9029589 26.57630391 2.70032336 26.80405758 6.25 29.125 C8.48450361 32.79597022 8.68010386 34.76824264 8 39 C6.09503444 42.42893801 4.61040706 43.71427755 1.0625 45.375 C-5.73055558 46.89275428 -13.47095443 46.59236203 -19.375 42.875 C-21.48286661 39.14569754 -21.03880506 37.07531215 -20 33 C-18.515 32.505 -18.515 32.505 -17 32 C-17.226875 30.741875 -17.45375 29.48375 -17.6875 28.1875 C-18.1995826 24.27768014 -18.1995826 24.27768014 -16.5625 22 C-16.046875 21.67 -15.53125 21.34 -15 21 C-15.72703125 20.39285156 -15.72703125 20.39285156 -16.46875 19.7734375 C-18.82730364 17.04184731 -18.53369276 14.71380808 -18.42578125 11.2265625 C-17.74424281 7.66255415 -15.83056293 6.10646543 -13 4 C-10.11788698 3.03929566 -8.30149956 2.89418117 -5.3125 2.9375 C-4.10013672 2.95103516 -4.10013672 2.95103516 -2.86328125 2.96484375 C-1.94095703 2.98224609 -1.94095703 2.98224609 -1 3 C-0.67 2.01 -0.34 1.02 0 0 Z M-8 9 C-10.2491908 10.82703227 -10.2491908 10.82703227 -10.25 13.5 C-10.2491908 16.17296773 -10.2491908 16.17296773 -8 18 C-5.21762345 17.59471099 -5.21762345 17.59471099 -3 16 C-2.7499227 13.54190002 -2.7499227 13.54190002 -3 11 C-3.66 10.34 -4.32 9.68 -5 9 C-5.99 9 -6.98 9 -8 9 Z M-12 34 C-12.33 35.32 -12.66 36.64 -13 38 C-10.59454362 39.20272819 -9.05003047 39.10071472 -6.375 39.0625 C-5.55773437 39.05347656 -4.74046875 39.04445313 -3.8984375 39.03515625 C-3.27195312 39.02355469 -2.64546875 39.01195312 -2 39 C-1.34 37.68 -0.68 36.36 0 35 C-1.05978933 33.71387324 -1.05978933 33.71387324 -3.50390625 33.90234375 C-4.51324219 33.91394531 -5.52257812 33.92554688 -6.5625 33.9375 C-7.57441406 33.94652344 -8.58632813 33.95554687 -9.62890625 33.96484375 C-10.41136719 33.97644531 -11.19382812 33.98804688 -12 34 Z " fill="#873FF5" transform="translate(379,328)"/>
<path d="M0 0 C2.3828125 -0.29296875 2.3828125 -0.29296875 5.125 -0.1875 C6.03507812 -0.16042969 6.94515625 -0.13335937 7.8828125 -0.10546875 C8.58148438 -0.07066406 9.28015625 -0.03585937 10 0 C11.85537863 5.23134786 13.70668807 10.46411065 15.55419922 15.69824219 C16.18360842 17.47956445 16.8141385 19.26049107 17.44580078 21.04101562 C18.35221848 23.59662973 19.25462896 26.15362783 20.15625 28.7109375 C20.44060913 29.50994476 20.72496826 30.30895203 21.01794434 31.13217163 C23 36.77225659 23 36.77225659 23 39 C20.03 39 17.06 39 14 39 C12.74335022 36.09399739 12 34.20395416 12 31 C7.05 31 2.1 31 -3 31 C-3.33 32.98 -3.66 34.96 -4 37 C-4.33 37.66 -4.66 38.32 -5 39 C-7.97 39 -10.94 39 -14 39 C-12.33340733 33.92605824 -10.660909 28.85411664 -8.98291016 23.78393555 C-8.41292227 22.05888685 -7.84455119 20.33330305 -7.27783203 18.60717773 C-6.4629089 16.12601509 -5.64218851 13.64683563 -4.8203125 11.16796875 C-4.56814972 10.39599655 -4.31598694 9.62402435 -4.05618286 8.82865906 C-2.96627252 5.55789942 -1.9237852 2.88567779 0 0 Z M4 10 C2.68 14.29 1.36 18.58 0 23 C2.97 23 5.94 23 9 23 C7.68 18.71 6.36 14.42 5 10 C4.67 10 4.34 10 4 10 Z " fill="#8640F0" transform="translate(96,322)"/>
<path d="M0 0 C3.41046083 2.62219394 5.20766121 5.8006044 6 10 C6.65754568 16.84100407 5.91070429 22.36161964 1.5 27.875 C-2.04130537 30.53097903 -5.7646765 30.22291176 -10 30 C-11.32 29.34 -12.64 28.68 -14 28 C-14.33 32.29 -14.66 36.58 -15 41 C-17.64 41 -20.28 41 -23 41 C-23 27.47 -23 13.94 -23 0 C-20.36 0 -17.72 0 -15 0 C-14.67 0.66 -14.34 1.32 -14 2 C-13.360625 1.484375 -12.72125 0.96875 -12.0625 0.4375 C-7.82136738 -1.55323572 -4.44018455 -1.46397389 0 0 Z M-12.125 7 C-14.44900602 9.47893975 -14.84464821 11.64527993 -15.09765625 14.99609375 C-14.94714701 18.08454328 -14.06301731 19.73068095 -12 22 C-9.60648505 23.16210219 -9.60648505 23.16210219 -7 23 C-4.78496498 21.87936995 -4.78496498 21.87936995 -3 20 C-2.23396909 16.62608447 -2.43742451 13.40330321 -3 10 C-4.60705606 7.30357301 -4.60705606 7.30357301 -7 6 C-9.93901345 5.78710148 -9.93901345 5.78710148 -12.125 7 Z " fill="#8440F0" transform="translate(180,332)"/>
<path d="M0 0 C2.64 0 5.28 0 8 0 C8 13.53 8 27.06 8 41 C5.36 41 2.72 41 0 41 C-0.33 40.34 -0.66 39.68 -1 39 C-1.495 39.495 -1.99 39.99 -2.5 40.5 C-5.97529084 42.5851745 -9.10520274 42.79393944 -13 42 C-16.56294595 39.75666366 -18.49147912 38.01704176 -20.375 34.25 C-21.74938481 27.10319898 -21.59394668 21.41776192 -18 15 C-15.04426042 11.58953125 -11.49434012 11.42313265 -7.21875 10.91796875 C-5 11 -5 11 -1 13 C-0.67 8.71 -0.34 4.42 0 0 Z M-10.125 19.125 C-12.69893495 21.69893495 -12.85858841 23.39400439 -13 27 C-12.12838054 30.48647782 -11.5482148 32.4517852 -9 35 C-6.2500075 35.35256314 -4.64400485 35.39100294 -2.25 33.9375 C-0.35569092 31.00132092 -0.17887189 28.45818994 0 25 C-1.0351799 21.11807539 -1.58374862 20.27750092 -5 18 C-7.95884321 17.76605614 -7.95884321 17.76605614 -10.125 19.125 Z " fill="#873EF6" transform="translate(346,320)"/>
<path d="M0 0 C3.24044458 2.56535196 4.69560167 4.086805 6 8 C6.63081604 15.65252251 6.92307842 21.84615197 2 28 C-1.49145406 30.86798012 -5.69480195 30.27334591 -10 30 C-10.99 29.34 -11.98 28.68 -13 28 C-13.33 32.29 -13.66 36.58 -14 41 C-16.64 41 -19.28 41 -22 41 C-22 27.47 -22 13.94 -22 0 C-18.33333333 0 -14.66666667 0 -11 0 C-7.49057855 -1.75471072 -3.7120012 -0.94883623 0 0 Z M-13 8 C-14.72994364 11.45988728 -14.47623913 15.21691733 -14 19 C-12.57955419 21.75609295 -12.57955419 21.75609295 -10 23 C-6.8596006 23.17110449 -6.8596006 23.17110449 -4 22 C-1.97831119 19.61073141 -1.95966918 17.68311496 -1.5625 14.5625 C-2.11176858 10.08988444 -3.51319762 8.73963045 -7 6 C-9.50320403 6 -10.85118612 6.75230162 -13 8 Z " fill="#8940F8" transform="translate(145,332)"/>
<path d="M0 0 C2.97 0 5.94 0 9 0 C10.00399524 2.62353518 11.00334445 5.24867795 12 7.875 C12.28617188 8.62136719 12.57234375 9.36773437 12.8671875 10.13671875 C15 15.7734375 15 15.7734375 15 18 C15.66 18 16.32 18 17 18 C17.16435547 17.18208984 17.16435547 17.18208984 17.33203125 16.34765625 C18.51257658 10.7328675 20.1084379 5.41674601 22 0 C24.97 0 27.94 0 31 0 C28.78694165 7.80012369 26.06897383 15.28514723 23.0625 22.8125 C22.63259766 23.91787109 22.20269531 25.02324219 21.75976562 26.16210938 C21.33501953 27.22880859 20.91027344 28.29550781 20.47265625 29.39453125 C20.09375244 30.35206299 19.71484863 31.30959473 19.32446289 32.29614258 C17.47908707 36.06343054 15.39182579 39.12513807 11.8125 41.375 C7.75861013 42.27586441 4.06558154 41.65545323 0 41 C0.33 38.69 0.66 36.38 1 34 C3.05078125 33.77213542 5.1015625 33.54427083 7.15234375 33.31640625 C9.01140229 33.18113386 9.01140229 33.18113386 10 32 C9.66778583 24.76795317 7.16472928 18.70725005 4.4375 12.0625 C3.60168781 9.99135992 2.7669877 7.91977058 1.93359375 5.84765625 C1.56290771 4.94023682 1.19222168 4.03281738 0.81030273 3.09790039 C0 1 0 1 0 0 Z " fill="#873EF6" transform="translate(204,332)"/>
<path d="M0 0 C3.2186267 2.1213676 4.36898801 3.20652425 5.75 6.8125 C5.98307675 10.18952318 5.88574727 13.41881818 5.75 16.8125 C-0.19 17.1425 -6.13 17.4725 -12.25 17.8125 C-11.26 19.1325 -10.27 20.4525 -9.25 21.8125 C-5.19393835 21.34449289 -1.78411321 20.93296792 1.75 18.8125 C3.07 19.8025 4.39 20.7925 5.75 21.8125 C4.86593727 24.78616555 4.06696033 26.5252547 1.75 28.625 C-3.77617558 30.8124445 -9.14042462 30.57961832 -14.6875 28.5625 C-18.33737947 26.06989939 -19.85991427 23.9827572 -21.25 19.8125 C-21.63936949 14.97533288 -21.89769377 10.41468985 -20.0625 5.875 C-14.3703722 -0.60224887 -8.40279299 -3.07025128 0 0 Z M-12.25 7.8125 C-12.25 8.8025 -12.25 9.7925 -12.25 10.8125 C-8.95 10.8125 -5.65 10.8125 -2.25 10.8125 C-2.82125354 7.06974788 -2.82125354 7.06974788 -4.25 5.8125 C-7.97224599 5.51863847 -9.02786243 5.66440829 -12.25 7.8125 Z " fill="#8344E7" transform="translate(410.25,332.1875)"/>
<path d="M0 0 C0.81559387 0.0028299 1.63118774 0.00565979 2.47149658 0.00857544 C5.06969028 0.01974692 7.66753595 0.04484575 10.265625 0.0703125 C12.02994293 0.08034623 13.79426628 0.08947139 15.55859375 0.09765625 C19.87773773 0.11967631 24.19662241 0.15418517 28.515625 0.1953125 C28.515625 0.5253125 28.515625 0.8553125 28.515625 1.1953125 C27.47108154 1.21513184 26.42653809 1.23495117 25.3503418 1.25537109 C21.4755845 1.33143364 17.60120243 1.42014978 13.72680664 1.51269531 C12.04979866 1.55098243 10.37270862 1.58583581 8.69555664 1.6171875 C6.28502068 1.66284429 3.87504943 1.7208366 1.46484375 1.78125 C0.33969612 1.79857681 0.33969612 1.79857681 -0.80818176 1.81625366 C-4.54565213 1.92226709 -6.29866123 2.07150332 -9.484375 4.1953125 C-9.484375 4.8553125 -9.484375 5.5153125 -9.484375 6.1953125 C39.355625 6.1953125 88.195625 6.1953125 138.515625 6.1953125 C138.515625 6.5253125 138.515625 6.8553125 138.515625 7.1953125 C137.40794958 7.19889503 137.40794958 7.19889503 136.27789688 7.20254993 C118.31752566 7.26166185 100.35729231 7.33718739 82.39706802 7.43102741 C73.71166445 7.47601095 65.02630212 7.51541967 56.34082031 7.54174805 C48.77137723 7.56470746 41.20206437 7.59808233 33.63272452 7.64401406 C29.62404932 7.66797416 25.61550332 7.68668461 21.60675812 7.69292641 C17.83430895 7.69896475 14.06219046 7.7189188 10.28986359 7.74958801 C8.9047678 7.7583884 7.51962884 7.76208668 6.13450623 7.76032066 C4.24411287 7.7586713 2.35373372 7.77711251 0.46343994 7.79658508 C-0.5947784 7.80119405 -1.65299675 7.80580301 -2.74328232 7.81055164 C-5.85791992 8.24774614 -7.24350044 9.02049482 -9.484375 11.1953125 C-10.07432594 13.40048123 -10.07432594 13.40048123 -9.97021484 15.89453125 C-9.97944473 17.32116089 -9.97944473 17.32116089 -9.98886108 18.77661133 C-9.97449005 19.80165771 -9.96011902 20.8267041 -9.9453125 21.8828125 C-9.94439606 22.93686279 -9.94347961 23.99091309 -9.9425354 25.0769043 C-9.93649144 27.30619813 -9.92072178 29.53548354 -9.89599609 31.76464844 C-9.8595177 35.18194414 -9.85497646 38.59815507 -9.85546875 42.015625 C-9.84563679 44.17969689 -9.83397945 46.34376143 -9.8203125 48.5078125 C-9.81697403 50.04538208 -9.81697403 50.04538208 -9.81356812 51.61401367 C-9.80080841 52.5651001 -9.78804871 53.51618652 -9.77490234 54.49609375 C-9.76727875 55.33309814 -9.75965515 56.17010254 -9.75180054 57.0324707 C-9.61211234 59.48947998 -9.61211234 59.48947998 -7.484375 62.1953125 C-11.359375 60.3203125 -11.359375 60.3203125 -12.484375 59.1953125 C-12.58248054 57.78440578 -12.61235748 56.36865843 -12.61376953 54.9543457 C-12.61692169 54.05283279 -12.62007385 53.15131989 -12.62332153 52.2224884 C-12.6212973 51.24027817 -12.61927307 50.25806793 -12.6171875 49.24609375 C-12.61814423 48.24072067 -12.61910095 47.2353476 -12.62008667 46.19950867 C-12.62076893 44.06505267 -12.6189115 41.93059462 -12.61474609 39.79614258 C-12.60942623 36.53917721 -12.61467512 33.28235151 -12.62109375 30.02539062 C-12.62043243 27.9531247 -12.61915016 25.88085885 -12.6171875 23.80859375 C-12.61921173 22.83650467 -12.62123596 21.86441559 -12.62332153 20.86286926 C-12.60727349 16.19291396 -12.45089449 11.78843964 -11.484375 7.1953125 C-13.55074998 8.37608077 -13.55074998 8.37608077 -15.484375 10.1953125 C-16.08841806 12.43917284 -16.08841806 12.43917284 -16.00335693 14.99784851 C-16.01726974 15.98642853 -16.03118256 16.97500854 -16.04551697 17.99354553 C-16.0404866 19.07679611 -16.03545624 20.16004669 -16.03027344 21.27612305 C-16.04061111 22.41772888 -16.05094879 23.55933472 -16.06159973 24.73553467 C-16.0911531 28.51784205 -16.09252961 32.29961721 -16.09375 36.08203125 C-16.1087231 38.70092294 -16.12544839 41.31980515 -16.14385986 43.93867493 C-16.18444505 50.13282531 -16.20476637 56.32687036 -16.21783376 62.52113324 C-16.23369538 69.57315835 -16.27210734 76.62500398 -16.31242704 83.67692506 C-16.39486023 98.18298326 -16.44893093 112.68906438 -16.484375 127.1953125 C-16.814375 127.1953125 -17.144375 127.1953125 -17.484375 127.1953125 C-17.60125128 111.78336544 -17.68938412 96.37145159 -17.74343586 80.95916557 C-17.76920183 73.80270434 -17.80432101 66.6465187 -17.86157227 59.49023438 C-17.9114572 53.25174273 -17.94367772 47.01345069 -17.95481747 40.77476513 C-17.96132792 37.4722282 -17.97922774 34.1703944 -18.01302528 30.86800766 C-18.04928607 27.17842406 -18.05432126 23.49002589 -18.05200195 19.80029297 C-18.06997833 18.70912674 -18.08795471 17.61796051 -18.10647583 16.49372864 C-18.05019347 8.22714921 -18.05019347 8.22714921 -15.06028748 4.55517578 C-10.14292943 0.05025071 -6.56071765 -0.08586888 0 0 Z " fill="#804CD7" transform="translate(183.484375,173.8046875)"/>
<path d="M0 0 C2.04374995 0.00851056 4.08469921 -0.02029159 6.12817383 -0.05200195 C18.48109926 -0.04589571 18.48109926 -0.04589571 24.11450195 4.44604492 C27.8115623 9.45496539 27.4326353 14.48399041 27.11450195 20.44604492 C28.76450195 20.44604492 30.41450195 20.44604492 32.11450195 20.44604492 C32.11450195 20.77604492 32.11450195 21.10604492 32.11450195 21.44604492 C30.13450195 21.44604492 28.15450195 21.44604492 26.11450195 21.44604492 C25.24216075 18.45123575 25.00620429 15.81028582 25.05200195 12.69604492 C25.06102539 11.89682617 25.07004883 11.09760742 25.0793457 10.27416992 C25.09094727 9.67088867 25.10254883 9.06760742 25.11450195 8.44604492 C24.12450195 8.77604492 23.13450195 9.10604492 22.11450195 9.44604492 C21.78450195 13.40604492 21.45450195 17.36604492 21.11450195 21.44604492 C9.23450195 21.44604492 -2.64549805 21.44604492 -14.88549805 21.44604492 C-14.88549805 21.11604492 -14.88549805 20.78604492 -14.88549805 20.44604492 C-3.33549805 20.44604492 8.21450195 20.44604492 20.11450195 20.44604492 C19.45450195 17.14604492 18.79450195 13.84604492 18.11450195 10.44604492 C14.21393059 8.49575924 12.78530134 8.19023027 8.61450195 8.18041992 C7.56262695 8.1778418 6.51075195 8.17526367 5.42700195 8.17260742 C4.33387695 8.1803418 3.24075195 8.18807617 2.11450195 8.19604492 C1.02137695 8.18831055 -0.07174805 8.18057617 -1.19799805 8.17260742 C-2.24987305 8.17518555 -3.30174805 8.17776367 -4.38549805 8.18041992 C-5.8240918 8.18380371 -5.8240918 8.18380371 -7.29174805 8.18725586 C-9.9912219 8.45659342 -11.62461171 8.96528718 -13.88549805 10.44604492 C-14.79709898 12.61813081 -14.79709898 12.61813081 -15.13549805 15.07104492 C-15.2850293 15.88831055 -15.43456055 16.70557617 -15.58862305 17.54760742 C-15.6865918 18.1740918 -15.78456055 18.80057617 -15.88549805 19.44604492 C-16.21549805 19.44604492 -16.54549805 19.44604492 -16.88549805 19.44604492 C-16.95897461 18.48891602 -16.95897461 18.48891602 -17.03393555 17.51245117 C-17.10870117 16.68616211 -17.1834668 15.85987305 -17.26049805 15.00854492 C-17.36491211 13.77297852 -17.36491211 13.77297852 -17.47143555 12.51245117 C-17.67639648 11.48958008 -17.67639648 11.48958008 -17.88549805 10.44604492 C-18.54549805 10.11604492 -19.20549805 9.78604492 -19.88549805 9.44604492 C-20.54549805 12.74604492 -21.20549805 16.04604492 -21.88549805 19.44604492 C-22.21549805 19.44604492 -22.54549805 19.44604492 -22.88549805 19.44604492 C-23.23996068 14.46387567 -23.42727074 10.59210254 -21.26049805 6.00854492 C-15.22088951 -0.50787481 -8.33275474 -0.05296031 0 0 Z " fill="#863FF2" transform="translate(247.885498046875,153.553955078125)"/>
<path d="M0 0 C1.1416864 -0.0127597 2.2833728 -0.02551941 3.45965576 -0.03866577 C4.69919006 -0.04089142 5.93872437 -0.04311707 7.21582031 -0.04541016 C8.48613098 -0.05206696 9.75644165 -0.05872375 11.06524658 -0.06558228 C13.75880897 -0.07572647 16.45196807 -0.08126195 19.14550781 -0.08007812 C22.58668043 -0.07987545 26.02702231 -0.10711564 29.4679985 -0.14162254 C32.75890756 -0.16930617 36.04981067 -0.16804305 39.34082031 -0.17041016 C41.18797638 -0.19196671 41.18797638 -0.19196671 43.07244873 -0.21395874 C53.94434824 -0.15600335 53.94434824 -0.15600335 58.54394531 4.29052734 C61.35386765 7.90961864 61.90966879 10.49376413 61.83691406 15.02880859 C61.82724609 16.09550781 61.81757813 17.16220703 61.80761719 18.26123047 C61.78248047 19.36402344 61.75734375 20.46681641 61.73144531 21.60302734 C61.71114258 23.2862207 61.71114258 23.2862207 61.69042969 25.00341797 C61.65515911 27.76627963 61.60586766 30.52815563 61.54394531 33.29052734 C60.22394531 32.63052734 58.90394531 31.97052734 57.54394531 31.29052734 C58.20394531 31.29052734 58.86394531 31.29052734 59.54394531 31.29052734 C58.55394531 29.31052734 58.55394531 29.31052734 57.54394531 27.29052734 C57.42019531 27.90927734 57.29644531 28.52802734 57.16894531 29.16552734 C56.54394531 31.29052734 56.54394531 31.29052734 54.54394531 33.29052734 C54.51421631 32.3598645 54.51421631 32.3598645 54.48388672 31.41040039 C54.38862686 28.59918197 54.27895229 25.78870568 54.16894531 22.97802734 C54.13800781 22.0015625 54.10707031 21.02509766 54.07519531 20.01904297 C54.0171875 18.61235352 54.0171875 18.61235352 53.95800781 17.17724609 C53.92658691 16.31317139 53.89516602 15.44909668 53.86279297 14.55883789 C53.67206494 12.0131029 53.67206494 12.0131029 51.54394531 9.29052734 C48.51540342 8.28101338 46.50389189 8.16948234 43.33813477 8.17700195 C42.27726151 8.17707748 41.21638824 8.17715302 40.12336731 8.17723083 C38.40762764 8.18497276 38.40762764 8.18497276 36.65722656 8.19287109 C34.89900826 8.19499352 34.89900826 8.19499352 33.10527039 8.19715881 C29.35563624 8.20276346 25.60606146 8.21531678 21.85644531 8.22802734 C19.31673263 8.23304174 16.77701902 8.23760475 14.23730469 8.24169922 C8.00616459 8.2527344 1.77505919 8.26947709 -4.45605469 8.29052734 C-4.12605469 7.63052734 -3.79605469 6.97052734 -3.45605469 6.29052734 C21.78894531 5.79552734 21.78894531 5.79552734 47.54394531 5.29052734 C47.54394531 4.30052734 47.54394531 3.31052734 47.54394531 2.29052734 C29.39394531 2.29052734 11.24394531 2.29052734 -7.45605469 2.29052734 C-4.8309429 -0.33458444 -3.6613573 0.02769598 0 0 Z " fill="#8546E8" transform="translate(226.4560546875,140.70947265625)"/>
<path d="M0 0 C2.64 0 5.28 0 8 0 C8.33 11.55 8.66 23.1 9 35 C9.99 35 10.98 35 12 35 C12.38133299 36.9914056 12.71325582 38.99279077 13 41 C12 42 12 42 8.6875 42.25 C4.87883379 41.99178534 3.59688249 41.69676259 1 39 C-0.25282725 35.24151826 -0.12381835 31.74509081 -0.09765625 27.83203125 C-0.0962413 27.03721848 -0.09482635 26.2424057 -0.09336853 25.42350769 C-0.08777378 22.88646675 -0.07522228 20.34951425 -0.0625 17.8125 C-0.05748432 16.09179815 -0.05292153 14.37109492 -0.04882812 12.65039062 C-0.03780607 8.4335597 -0.02054506 4.21679484 0 0 Z " fill="#8442EB" transform="translate(191,320)"/>
<path d="M0 0 C6.33333333 0 12.66666667 0 19 0 C18.74438677 2.3431213 18.40729228 4.67843403 18 7 C16 8 16 8 12.9375 8.4375 C11.968125 8.623125 10.99875 8.80875 10 9 C8.88176185 11.23647631 8.80603939 12.64891529 8.68359375 15.1328125 C8.64169922 15.93847656 8.59980469 16.74414062 8.55664062 17.57421875 C8.49766602 18.83685547 8.49766602 18.83685547 8.4375 20.125 C8.39431641 20.97449219 8.35113281 21.82398438 8.30664062 22.69921875 C8.20045764 24.79928223 8.09971503 26.89961948 8 29 C5.36 29 2.72 29 0 29 C0 19.43 0 9.86 0 0 Z " fill="#8442F2" transform="translate(289,332)"/>
<path d="M0 0 C2.64 0 5.28 0 8 0 C8 13.53 8 27.06 8 41 C5.36 41 2.72 41 0 41 C0 40.67 0 40.34 0 40 C2.31 40 4.62 40 7 40 C6.505 28.12 6.505 28.12 6 16 C4.68 16.99 3.36 17.98 2 19 C2 19.66 2 20.32 2 21 C2.66 21.66 3.32 22.32 4 23 C3.34 23 2.68 23 2 23 C1.67 25.97 1.34 28.94 1 32 C0.01 32 -0.98 32 -2 32 C-1.79375 30.948125 -1.5875 29.89625 -1.375 28.8125 C-0.99842063 24.98394304 -0.92462545 23.20739704 -3 20 C-5.95950256 18.83177531 -7.35596292 18.73890389 -10.3125 19.9375 C-10.869375 20.288125 -11.42625 20.63875 -12 21 C-12 20.01 -12 19.02 -12 18 C-8.04 16.515 -8.04 16.515 -4 15 C-4 14.67 -4 14.34 -4 14 C-8.02834196 13.65733601 -8.02834196 13.65733601 -12 14 C-14.87640616 16.37500791 -14.87640616 16.37500791 -17 19 C-17.66 19 -18.32 19 -19 19 C-18.67 24.94 -18.34 30.88 -18 37 C-21.02870862 33.97129138 -21.16116839 30.85518314 -21.25 26.6875 C-21.17915052 21.31179592 -19.9727029 17.27619565 -16.375 13.125 C-12.76086672 11.41304213 -8.99288259 10.85237582 -5 11 C-3.68 11.66 -2.36 12.32 -1 13 C-0.67 8.71 -0.34 4.42 0 0 Z " fill="#8343E9" transform="translate(346,320)"/>
<path d="M0 0 C1.99312734 2.98969101 2.99508847 5.52732524 4.1640625 8.91015625 C4.56367187 10.06451172 4.96328125 11.21886719 5.375 12.40820312 C5.7875 13.61412109 6.2 14.82003906 6.625 16.0625 C7.04523438 17.27228516 7.46546875 18.48207031 7.8984375 19.72851562 C11 28.73613789 11 28.73613789 11 31 C8.03 31 5.06 31 2 31 C0.74335022 28.09399739 0 26.20395416 0 23 C-4.95 23 -9.9 23 -15 23 C-15.33 24.98 -15.66 26.96 -16 29 C-16.33 29.66 -16.66 30.32 -17 31 C-19.97 31 -22.94 31 -26 31 C-24.35 25.72 -22.7 20.44 -21 15 C-20.04095144 18.83619425 -20.08107884 20.32431536 -21 24 C-20.01 24 -19.02 24 -18 24 C-17.67 23.34 -17.34 22.68 -17 22 C-13.43954823 20.81318274 -10.56191663 20.90310168 -6.8125 20.9375 C-5.54019531 20.94652344 -4.26789063 20.95554687 -2.95703125 20.96484375 C-1.49330078 20.98224609 -1.49330078 20.98224609 0 21 C3 26.75 3 26.75 3 29 C4.98 29 6.96 29 9 29 C8.0409375 28.2575 8.0409375 28.2575 7.0625 27.5 C4.18484731 24.01193613 4.29769264 21.46538959 4 17 C0.98968256 16.06576355 0.13349732 15.95550089 -3 17 C-4.53949329 17.09182942 -6.08277855 17.13002352 -7.625 17.125 C-8.81996094 17.12886719 -8.81996094 17.12886719 -10.0390625 17.1328125 C-12 17 -12 17 -13 16 C-13.07179964 14.48071962 -13.08392007 12.95832518 -13.0625 11.4375 C-13.05347656 10.61121094 -13.04445313 9.78492188 -13.03515625 8.93359375 C-13.02355469 8.29550781 -13.01195313 7.65742188 -13 7 C-12.34 7 -11.68 7 -11 7 C-11 6.01 -11 5.02 -11 4 C-10.34 4 -9.68 4 -9 4 C-9.66 7.3 -10.32 10.6 -11 14 C-8.69 14 -6.38 14 -4 14 C-4.99 10.37 -5.98 6.74 -7 3 C-6.34 3 -5.68 3 -5 3 C-5 4.32 -5 5.64 -5 7 C-4.34 7 -3.68 7 -3 7 C-3 8.32 -3 9.64 -3 11 C-1.35 11 0.3 11 2 11 C1.67 9.9275 1.34 8.855 1 7.75 C0 4 0 4 0 0 Z " fill="#7746D7" transform="translate(108,330)"/>
<path d="M0 0 C5.01703179 -0.09922625 10.03348652 -0.17163587 15.05126953 -0.21972656 C16.75644894 -0.23978369 18.46156006 -0.26703657 20.16650391 -0.30175781 C22.62419524 -0.35053861 25.08097366 -0.37302719 27.5390625 -0.390625 C28.67379501 -0.42159271 28.67379501 -0.42159271 29.83145142 -0.45318604 C35.13873079 -0.45541215 37.84776814 0.68051173 42 4 C41.34 4.33 40.68 4.66 40 5 C40 6.32 40 7.64 40 9 C39.34 9 38.68 9 38 9 C37.67 9.66 37.34 10.32 37 11 C35 9.625 35 9.625 33 8 C33 7.34 33 6.68 33 6 C-14.85 6 -62.7 6 -112 6 C-112 5.67 -112 5.34 -112 5 C-64.15 4.67 -16.3 4.34 33 4 C33 3.34 33 2.68 33 2 C22.11 1.67 11.22 1.34 0 1 C0 0.67 0 0.34 0 0 Z " fill="#8242EA" transform="translate(289,174)"/>
<path d="M0 0 C2.64 0 5.28 0 8 0 C8 9.57 8 19.14 8 29 C5.36 29 2.72 29 0 29 C0 19.43 0 9.86 0 0 Z " fill="#804BDB" transform="translate(311,332)"/>
<path d="M0 0 C0.33 3.63 0.66 7.26 1 11 C3.10375 11.0309375 3.10375 11.0309375 5.25 11.0625 C6.03890625 11.07410156 6.8278125 11.08570313 7.640625 11.09765625 C9.99507332 11.08909461 9.99507332 11.08909461 12.16796875 10.40234375 C12.77253906 10.26957031 13.37710938 10.13679688 14 10 C18.71144888 13.42650828 20.21951358 18.65854073 22 24 C20.02 24 18.04 24 16 24 C14.515 20.535 14.515 20.535 13 17 C7.39 17 1.78 17 -4 17 C-4.33 18.32 -4.66 19.64 -5 21 C-5 20.34 -5 19.68 -5 19 C-5.99 19 -6.98 19 -8 19 C-7.67 15.7 -7.34 12.4 -7 9 C-6.01 8.67 -5.02 8.34 -4 8 C-4.061875 7.05125 -4.12375 6.1025 -4.1875 5.125 C-4.125625 4.09375 -4.06375 3.0625 -4 2 C-1 0 -1 0 0 0 Z " fill="#883BFC" transform="translate(95,335)"/>
<path d="M0 0 C0.33 0 0.66 0 1 0 C1.03738281 0.61488281 1.07476562 1.22976563 1.11328125 1.86328125 C1.21189453 3.07564453 1.21189453 3.07564453 1.3125 4.3125 C1.39951172 5.51326172 1.39951172 5.51326172 1.48828125 6.73828125 C2.09614596 9.42495048 2.75517624 10.42030921 5 12 C8.64541845 11.76522801 8.64541845 11.76522801 12 11 C12 11.66 12 12.32 12 13 C11.34 13 10.68 13 10 13 C10 13.66 10 14.32 10 15 C8.02 15 6.04 15 4 15 C3.67 15.66 3.34 16.32 3 17 C6.40320934 17.67673447 6.40320934 17.67673447 10 18 C10.66 17.34 11.32 16.68 12 16 C14.625 16.375 14.625 16.375 17 17 C14.41924598 19.58075402 12.49032019 20.24052758 8.9375 20.3125 C5 20 5 20 2 18 C1.67 22.29 1.34 26.58 1 31 C-1.64 31 -4.28 31 -7 31 C-7.05404449 28.24973583 -7.09369306 25.50053797 -7.125 22.75 C-7.14175781 21.97269531 -7.15851563 21.19539063 -7.17578125 20.39453125 C-7.23662606 13.27568856 -7.23662606 13.27568856 -5 10 C-4.67 10.99 -4.34 11.98 -4 13 C-1.98491642 13.73323796 -1.98491642 13.73323796 0 14 C-0.08378906 13.32453125 -0.16757813 12.6490625 -0.25390625 11.953125 C-0.40666016 10.61507813 -0.40666016 10.61507813 -0.5625 9.25 C-0.66691406 8.36828125 -0.77132812 7.4865625 -0.87890625 6.578125 C-0.99456676 4.11567549 -0.73638695 2.33461936 0 0 Z " fill="#8246E4" transform="translate(130,342)"/>
<path d="M0 0 C0 1.98 0 3.96 0 6 C3.63 6.33 7.26 6.66 11 7 C11 8.32 11 9.64 11 11 C7.7 11.33 4.4 11.66 1 12 C1 12.75925781 1 13.51851563 1 14.30078125 C1 18.20052083 1 22.10026042 1 26 C0.34 26.66 -0.32 27.32 -1 28 C-2.65 28 -4.3 28 -6 28 C-6 19.42 -6 10.84 -6 2 C-2 0 -2 0 0 0 Z " fill="#883CFC" transform="translate(259,332)"/>
<path d="M0 0 C0.66 0.33 1.32 0.66 2 1 C1.34 2.65 0.68 4.3 0 6 C0.99 5.67 1.98 5.34 3 5 C3.66 5.66 4.32 6.32 5 7 C4.01 8.485 4.01 8.485 3 10 C2.63423946 12.31923274 2.63423946 12.31923274 2.5859375 14.88671875 C2.54726562 15.82451172 2.50859375 16.76230469 2.46875 17.72851562 C2.4378125 18.70498047 2.406875 19.68144531 2.375 20.6875 C2.33632812 21.67556641 2.29765625 22.66363281 2.2578125 23.68164062 C2.16354133 26.12090707 2.07793782 28.56016595 2 31 C3.65 31 5.3 31 7 31 C7 31.33 7 31.66 7 32 C2.81998005 32.08196118 -0.92212105 31.89445704 -5 31 C-5.08732726 27.10430865 -5.14050185 23.20887018 -5.1875 19.3125 C-5.21263672 18.20970703 -5.23777344 17.10691406 -5.26367188 15.97070312 C-5.27333984 14.90400391 -5.28300781 13.83730469 -5.29296875 12.73828125 C-5.3086792 11.75899658 -5.32438965 10.77971191 -5.34057617 9.77075195 C-4.82309766 5.56081386 -2.95454209 2.95454209 0 0 Z " fill="#7E47DB" transform="translate(217,143)"/>
<path d="M0 0 C1.40378906 0.00580078 1.40378906 0.00580078 2.8359375 0.01171875 C5.78548801 0.32980753 7.97607212 0.98803606 10.625 2.3125 C11.88737731 4.83725462 11.72356404 6.62450466 11.6875 9.4375 C11.67847656 10.34757812 11.66945313 11.25765625 11.66015625 12.1953125 C11.64855469 12.89398438 11.63695312 13.59265625 11.625 14.3125 C9.645 14.3125 7.665 14.3125 5.625 14.3125 C5.851875 13.755625 6.07875 13.19875 6.3125 12.625 C6.74949065 9.39126916 5.43698627 7.92176022 3.625 5.3125 C-0.83 5.8075 -0.83 5.8075 -5.375 6.3125 C-5.375 7.9625 -5.375 9.6125 -5.375 11.3125 C-2.405 11.8075 -2.405 11.8075 0.625 12.3125 C0.295 12.9725 -0.035 13.6325 -0.375 14.3125 C-3.345 14.3125 -6.315 14.3125 -9.375 14.3125 C-9.705 15.3025 -10.035 16.2925 -10.375 17.3125 C-12.75054585 11.16402838 -12.75054585 11.16402838 -11.375 7.3125 C-11.375 6.6525 -11.375 5.9925 -11.375 5.3125 C-10.385 4.6525 -9.395 3.9925 -8.375 3.3125 C-7.70597656 2.51779297 -7.70597656 2.51779297 -7.0234375 1.70703125 C-4.68606957 -0.27031555 -3.01949697 -0.05377186 0 0 Z " fill="#873CFA" transform="translate(403.375,332.6875)"/>
<path d="M0 0 C2 2 2 2 2.375 5.3125 C1.93331733 9.6557129 1.23009147 11.10119996 -2 14 C-8.32392902 16.96013699 -15.26229752 16.34930429 -22 15 C-25.375 12.875 -25.375 12.875 -27 10 C-26.8125 6.1875 -26.8125 6.1875 -26 3 C-23.69 2.34 -21.38 1.68 -19 1 C-19 1.66 -19 2.32 -19 3 C-18.15695312 2.98839844 -17.31390625 2.97679687 -16.4453125 2.96484375 C-15.34960938 2.95582031 -14.25390625 2.94679688 -13.125 2.9375 C-12.03445313 2.92589844 -10.94390625 2.91429687 -9.8203125 2.90234375 C-7 3 -7 3 -5 4 C-5.875 9.875 -5.875 9.875 -7 11 C-8.60048202 11.12535652 -10.20715928 11.17574787 -11.8125 11.1875 C-12.68519531 11.20167969 -13.55789063 11.21585937 -14.45703125 11.23046875 C-17.10919085 10.99010406 -18.72464999 10.34187309 -21 9 C-21 9.66 -21 10.32 -21 11 C-20.34 11.33 -19.68 11.66 -19 12 C-19 12.33 -19 12.66 -19 13 C-18.236875 13 -17.47375 13 -16.6875 13 C-13.79842806 13 -10.94679846 13.00339584 -8.0625 13.1875 C-4.5784729 12.97419222 -3.36259865 12.53760595 -1 10 C0.05570512 6.6569338 0.09965503 3.48792595 0 0 Z M-18 4 C-18.33 5.32 -18.66 6.64 -19 8 C-16.59454362 9.20272819 -15.05003047 9.10071472 -12.375 9.0625 C-11.55773437 9.05347656 -10.74046875 9.04445313 -9.8984375 9.03515625 C-9.27195312 9.02355469 -8.64546875 9.01195312 -8 9 C-7.34 7.68 -6.68 6.36 -6 5 C-7.05978933 3.71387324 -7.05978933 3.71387324 -9.50390625 3.90234375 C-10.51324219 3.91394531 -11.52257812 3.92554688 -12.5625 3.9375 C-13.57441406 3.94652344 -14.58632813 3.95554687 -15.62890625 3.96484375 C-16.41136719 3.97644531 -17.19382812 3.98804688 -18 4 Z " fill="#7E48DE" transform="translate(385,358)"/>
<path d="M0 0 C1.38682272 -0.01149748 2.77360197 -0.03191439 4.16015625 -0.06152344 C18.53900985 -0.36836831 18.53900985 -0.36836831 24.34082031 4.29516602 C28.03788066 9.30408649 27.65895366 14.3331115 27.34082031 20.29516602 C28.99082031 20.29516602 30.64082031 20.29516602 32.34082031 20.29516602 C32.34082031 20.62516602 32.34082031 20.95516602 32.34082031 21.29516602 C30.36082031 21.29516602 28.38082031 21.29516602 26.34082031 21.29516602 C25.46847911 18.30035684 25.23252265 15.65940691 25.27832031 12.54516602 C25.28734375 11.74594727 25.29636719 10.94672852 25.30566406 10.12329102 C25.31726563 9.52000977 25.32886719 8.91672852 25.34082031 8.29516602 C24.35082031 8.62516602 23.36082031 8.95516602 22.34082031 9.29516602 C22.01082031 13.25516602 21.68082031 17.21516602 21.34082031 21.29516602 C9.46082031 21.29516602 -2.41917969 21.29516602 -14.65917969 21.29516602 C-14.65917969 20.96516602 -14.65917969 20.63516602 -14.65917969 20.29516602 C-3.10917969 20.29516602 8.44082031 20.29516602 20.34082031 20.29516602 C19.53712874 10.49781936 19.53712874 10.49781936 14.34082031 7.29516602 C15.99082031 7.29516602 17.64082031 7.29516602 19.34082031 7.29516602 C19.67082031 5.97516602 20.00082031 4.65516602 20.34082031 3.29516602 C15.07586034 2.21297196 10.00108681 2.14209375 4.65332031 2.17016602 C3.7693457 2.17209961 2.88537109 2.1740332 1.97460938 2.17602539 C-4.27586752 2.21731294 -10.45407684 2.49818033 -16.65917969 3.29516602 C-14.12916071 -1.76487193 -4.86925985 0.02809629 0 0 Z " fill="#854AE6" transform="translate(247.6591796875,153.704833984375)"/>
<path d="M0 0 C0 1.32 0 2.64 0 4 C1.32 4.33 2.64 4.66 4 5 C4.33 8.63 4.66 12.26 5 16 C3.68 16.33 2.36 16.66 1 17 C1 17.99 1 18.98 1 20 C-3.95 20 -8.9 20 -14 20 C-13.505 18.515 -13.505 18.515 -13 17 C-10.69 17 -8.38 17 -6 17 C-6 16.34 -6 15.68 -6 15 C-4.35 14.67 -2.7 14.34 -1 14 C-1 11.03 -1 8.06 -1 5 C-1.99 5 -2.98 5 -4 5 C-4.33 3.68 -4.66 2.36 -5 1 C-2 0 -2 0 0 0 Z " fill="#893CFB" transform="translate(276,339)"/>
<path d="M0 0 C4.39059773 6.58589659 6.70767386 15.10719431 7 23 C6.34 23.66 5.68 24.32 5 25 C4.67 22.36 4.34 19.72 4 17 C0.98968256 16.06576355 0.13349732 15.95550089 -3 17 C-4.53949329 17.09182942 -6.08277855 17.13002352 -7.625 17.125 C-8.81996094 17.12886719 -8.81996094 17.12886719 -10.0390625 17.1328125 C-12 17 -12 17 -13 16 C-13.07179964 14.48071962 -13.08392007 12.95832518 -13.0625 11.4375 C-13.05347656 10.61121094 -13.04445313 9.78492188 -13.03515625 8.93359375 C-13.02355469 8.29550781 -13.01195313 7.65742188 -13 7 C-12.34 7 -11.68 7 -11 7 C-11 6.01 -11 5.02 -11 4 C-10.34 4 -9.68 4 -9 4 C-9.66 7.3 -10.32 10.6 -11 14 C-8.69 14 -6.38 14 -4 14 C-4.99 10.37 -5.98 6.74 -7 3 C-6.34 3 -5.68 3 -5 3 C-5 4.32 -5 5.64 -5 7 C-4.34 7 -3.68 7 -3 7 C-3 8.32 -3 9.64 -3 11 C-1.35 11 0.3 11 2 11 C1.67 9.9275 1.34 8.855 1 7.75 C0 4 0 4 0 0 Z " fill="#8345EA" transform="translate(108,330)"/>
<path d="M0 0 C2.64 0 5.28 0 8 0 C8.33 1.32 8.66 2.64 9 4 C8.01 4 7.02 4 6 4 C6 3.01 6 2.02 6 1 C5.34 3.31 4.68 5.62 4 8 C3.34 8 2.68 8 2 8 C2 18.23 2 28.46 2 39 C3.98 39 5.96 39 8 39 C8 39.66 8 40.32 8 41 C5.36 41 2.72 41 0 41 C0 27.47 0 13.94 0 0 Z " fill="#814CDD" transform="translate(157,332)"/>
<path d="M0 0 C2.0625 0.75 2.0625 0.75 4 2 C4.33 2.99 4.66 3.98 5 5 C4.5155542 5.40774658 4.0311084 5.81549316 3.53198242 6.2355957 C1.66889629 8.38133649 1.58770927 9.42659846 1.48828125 12.23046875 C1.45283203 13.03291016 1.41738281 13.83535156 1.38085938 14.66210938 C1.35830078 15.49548828 1.33574219 16.32886719 1.3125 17.1875 C1.27833984 18.03248047 1.24417969 18.87746094 1.20898438 19.74804688 C1.12658529 21.83156649 1.06161355 23.91576216 1 26 C-0.32 26 -1.64 26 -3 26 C-2.98839844 25.14535156 -2.97679687 24.29070312 -2.96484375 23.41015625 C-2.95582031 22.30542969 -2.94679688 21.20070313 -2.9375 20.0625 C-2.92589844 18.96035156 -2.91429687 17.85820312 -2.90234375 16.72265625 C-2.68737429 14.08552366 -2.68737429 14.08552366 -4 13 C-4.30980677 8.55943634 -3.71936555 5.10737326 -2 1 C-1.34 0.67 -0.68 0.34 0 0 Z " fill="#893CFC" transform="translate(294,334)"/>
<path d="M0 0 C0 0.99 0 1.98 0 3 C-5.75 5 -5.75 5 -8 5 C-8.0825 5.99 -8.165 6.98 -8.25 8 C-8.86308007 12.47456948 -10.81968045 16.09570685 -13 20 C-13.66 19.67 -14.32 19.34 -15 19 C-16.04668832 7.8020964 -16.04668832 7.8020964 -13.72265625 3.80078125 C-9.3862317 -0.26031476 -5.76417908 -0.60675569 0 0 Z " fill="#893CFC" transform="translate(342,333)"/>
<path d="M0 0 C0.33 0 0.66 0 1 0 C1 12.21 1 24.42 1 37 C8.92 36.67 16.84 36.34 25 36 C25 35.01 25 34.02 25 33 C26.485 32.505 26.485 32.505 28 32 C28.08912219 28.16774573 27.87867729 24.73437848 27 21 C26.01 20.67 25.02 20.34 24 20 C24 19.01 24 18.02 24 17 C28.54347826 18.43478261 28.54347826 18.43478261 30.3125 20.625 C31.68166743 25.35485114 31.6891818 29.41488185 29.75 33.875 C27.84910345 36.18323153 26.75555653 36.91973067 24 38 C21.34277344 38.22705078 21.34277344 38.22705078 18.359375 38.1953125 C17.39483398 38.19031738 16.43029297 38.18532227 15.43652344 38.18017578 C14.2199707 38.16196777 13.00341797 38.14375977 11.75 38.125 C5.93375 38.063125 5.93375 38.063125 0 38 C0 25.46 0 12.92 0 0 Z " fill="#7A4ACC" transform="translate(252,323)"/>
<path d="M0 0 C0 1.32 0 2.64 0 4 C0.598125 4.12375 1.19625 4.2475 1.8125 4.375 C4 5 4 5 7 7 C8.9896995 7.39013716 10.99019869 7.73202649 13 8 C13.33 9.65 13.66 11.3 14 13 C12.20866022 13.05391993 10.41686101 13.09275571 8.625 13.125 C7.62726563 13.14820313 6.62953125 13.17140625 5.6015625 13.1953125 C3 13 3 13 1 11 C0.319375 10.38125 -0.36125 9.7625 -1.0625 9.125 C-3.08405175 6.90781421 -3.322779 5.80562984 -4 3 C-4.99 2.67 -5.98 2.34 -7 2 C-7 1.67 -7 1.34 -7 1 C-2.25 0 -2.25 0 0 0 Z " fill="#8740F7" transform="translate(241,242)"/>
<path d="M0 0 C1.32 0 2.64 0 4 0 C4 8.58 4 17.16 4 26 C2.68 26 1.36 26 0 26 C0 17.42 0 8.84 0 0 Z " fill="#8A3CFC" transform="translate(313,333)"/>
<path d="M0 0 C2.31 0.33 4.62 0.66 7 1 C6.25 5.75 6.25 5.75 4 8 C4.33 8.66 4.66 9.32 5 10 C5.46829268 17.37560976 5.46829268 17.37560976 3.5 20 C3.005 20.33 2.51 20.66 2 21 C2 19.68 2 18.36 2 17 C2.66 17 3.32 17 4 17 C3.65213292 15.02463255 3.65213292 15.02463255 3 13 C2.34 12.67 1.68 12.34 1 12 C0.75507813 11.18144531 0.51015625 10.36289062 0.2578125 9.51953125 C-0.15726562 8.68808594 -0.57234375 7.85664063 -1 7 C-3.85581649 5.95876935 -3.85581649 5.95876935 -7.125 5.6875 C-8.22070312 5.54699219 -9.31640625 5.40648437 -10.4453125 5.26171875 C-11.70988281 5.13216797 -11.70988281 5.13216797 -13 5 C-9.79619983 2.86413322 -8.98060033 2.76867825 -5.3125 2.875 C-4.10013672 2.90207031 -4.10013672 2.90207031 -2.86328125 2.9296875 C-1.94095703 2.96449219 -1.94095703 2.96449219 -1 3 C-0.67 2.01 -0.34 1.02 0 0 Z " fill="#7D48DF" transform="translate(379,328)"/>
<path d="M0 0 C2.3125 1.375 2.3125 1.375 3.3125 4.375 C-2.44123756 10.28015171 -2.44123756 10.28015171 -5.89453125 10.54296875 C-14.50158242 10.60748937 -14.50158242 10.60748937 -18.6875 8.375 C-18.6875 8.045 -18.6875 7.715 -18.6875 7.375 C-13.4075 7.375 -8.1275 7.375 -2.6875 7.375 C-3.0175 6.715 -3.3475 6.055 -3.6875 5.375 C-6.00906597 4.96770772 -8.3443787 4.63061323 -10.6875 4.375 C-10.11 4.106875 -9.5325 3.83875 -8.9375 3.5625 C-6.61734008 2.45611302 -6.61734008 2.45611302 -4.75 0.625 C-2.6875 -0.625 -2.6875 -0.625 0 0 Z " fill="#7E47E4" transform="translate(412.6875,351.625)"/>
<path d="M0 0 C0.66 0.33 1.32 0.66 2 1 C1.34 1.66 0.68 2.32 0 3 C-0.46162427 5.43252661 -0.46162427 5.43252661 -0.625 8.125 C-0.69976562 9.03507812 -0.77453125 9.94515625 -0.8515625 10.8828125 C-0.90054687 11.58148438 -0.94953125 12.28015625 -1 13 C0.32 13.33 1.64 13.66 3 14 C3 15.32 3 16.64 3 18 C3.845625 17.67 4.69125 17.34 5.5625 17 C9.20989216 15.93894046 12.22274664 15.84890987 16 16 C15.67 16.66 15.34 17.32 15 18 C12.85546875 18.5625 12.85546875 18.5625 10.1875 19 C6.75560091 19.56775879 4.04440809 20.29683463 1 22 C0.01 21.34 -0.98 20.68 -2 20 C-2.33 21.32 -2.66 22.64 -3 24 C-3.36923077 19.44615385 -3.36923077 19.44615385 -1.5 17.1875 C-1.005 16.795625 -0.51 16.40375 0 16 C-0.48726563 15.59652344 -0.97453125 15.19304687 -1.4765625 14.77734375 C-3.83072334 12.03082277 -3.406819 9.64788153 -3.3046875 6.1640625 C-2.91999683 3.43177236 -1.98387698 1.90121544 0 0 Z " fill="#7D47DF" transform="translate(364,333)"/>
<path d="M0 0 C1.2065625 0.0309375 1.2065625 0.0309375 2.4375 0.0625 C2.7675 2.0425 3.0975 4.0225 3.4375 6.0625 C4.4275 6.3925 5.4175 6.7225 6.4375 7.0625 C6.4375 8.3825 6.4375 9.7025 6.4375 11.0625 C5.7775 11.0625 5.1175 11.0625 4.4375 11.0625 C4.4375 12.7125 4.4375 14.3625 4.4375 16.0625 C0.4775 16.0625 -3.4825 16.0625 -7.5625 16.0625 C-7.2325 15.0725 -6.9025 14.0825 -6.5625 13.0625 C-3 11.875 -3 11.875 0.4375 11.0625 C1.40374167 9.38421592 1.40374167 9.38421592 1.4375 7.0625 C-0.03068136 4.81640165 -1.72102858 3.03871323 -3.5625 1.0625 C-2.5625 0.0625 -2.5625 0.0625 0 0 Z " fill="#8B3CF9" transform="translate(376.5625,333.9375)"/>
<path d="M0 0 C5.01703179 -0.09922625 10.03348652 -0.17163587 15.05126953 -0.21972656 C16.75644894 -0.23978369 18.46156006 -0.26703657 20.16650391 -0.30175781 C22.62419524 -0.35053861 25.08097366 -0.37302719 27.5390625 -0.390625 C28.29555084 -0.41127014 29.05203918 -0.43191528 29.83145142 -0.45318604 C35.13873079 -0.45541215 37.84776814 0.68051173 42 4 C41.34 4.33 40.68 4.66 40 5 C40 6.32 40 7.64 40 9 C37.83125748 8.49396008 36.00032373 8.00016187 34 7 C33.505 4.525 33.505 4.525 33 2 C22.11 1.67 11.22 1.34 0 1 C0 0.67 0 0.34 0 0 Z " fill="#8B4CEE" transform="translate(289,174)"/>
<path d="M0 0 C1.22763565 0.00212242 1.22763565 0.00212242 2.48007202 0.00428772 C5.09873075 0.00989335 7.71730454 0.02244677 10.3359375 0.03515625 C12.10937377 0.04017053 13.88281137 0.04473356 15.65625 0.04882812 C20.00784532 0.05986461 24.359377 0.077133 28.7109375 0.09765625 C28.7109375 0.42765625 28.7109375 0.75765625 28.7109375 1.09765625 C27.66639404 1.11747559 26.62185059 1.13729492 25.5456543 1.15771484 C21.670897 1.23377739 17.79651493 1.32249353 13.92211914 1.41503906 C12.24511116 1.45332618 10.56802112 1.48817956 8.89086914 1.51953125 C6.48033318 1.56518804 4.07036193 1.62318035 1.66015625 1.68359375 C0.53500862 1.70092056 0.53500862 1.70092056 -0.61286926 1.71859741 C-4.35033963 1.82461084 -6.10334873 1.97384707 -9.2890625 4.09765625 C-8.94875 4.96390625 -8.94875 4.96390625 -8.6015625 5.84765625 C-8.2890625 8.09765625 -8.2890625 8.09765625 -9.7265625 10.34765625 C-10.2421875 10.92515625 -10.7578125 11.50265625 -11.2890625 12.09765625 C-11.2890625 10.44765625 -11.2890625 8.79765625 -11.2890625 7.09765625 C-13.7640625 8.58265625 -13.7640625 8.58265625 -16.2890625 10.09765625 C-15.99085417 6.51915633 -15.54660892 5.33539141 -12.8515625 2.84765625 C-8.47473597 -0.14139602 -5.17216948 -0.03341026 0 0 Z " fill="#874AEC" transform="translate(183.2890625,173.90234375)"/>
<path d="M0 0 C0.66 0 1.32 0 2 0 C3.625 2.5 3.625 2.5 5 5 C5.66 4.67 6.32 4.34 7 4 C7 4.66 7 5.32 7 6 C13.58282487 6.7405746 20.10483748 7.18199548 26.7265625 7.31640625 C27.60025482 7.33718735 28.47394714 7.35796844 29.37411499 7.37937927 C32.12434165 7.44398626 34.87465135 7.50333973 37.625 7.5625 C39.50651849 7.60577006 41.38802904 7.64938682 43.26953125 7.69335938 C47.84627232 7.79957436 52.42309562 7.90108289 57 8 C57 8.33 57 8.66 57 9 C50.27399978 9.07620013 43.54811132 9.12866292 36.82177734 9.16479492 C34.53462565 9.17986116 32.24750275 9.20031797 29.96044922 9.22631836 C26.66887293 9.26279606 23.37767938 9.27974834 20.0859375 9.29296875 C18.55747696 9.31619453 18.55747696 9.31619453 16.99813843 9.33988953 C11.57045701 9.34116992 7.66963732 9.10227567 3 6 C0 2.7 0 2.7 0 0 Z " fill="#7A4AC5" transform="translate(167,301)"/>
<path d="M0 0 C3.0625 0.1875 3.0625 0.1875 5.0625 2.1875 C5.3125 4.6875 5.3125 4.6875 5.0625 7.1875 C3.0625 9.1875 3.0625 9.1875 0.0625 9.5 C-0.9275 9.396875 -1.9175 9.29375 -2.9375 9.1875 C-4.9375 6.1875 -4.9375 6.1875 -4.625 3.5625 C-3.63731654 0.1505026 -3.65603948 0.23336422 0 0 Z " fill="#7C4BCE" transform="translate(314.9375,319.8125)"/>
<path d="M0 0 C0.53625 0.33 1.0725 0.66 1.625 1 C1.295 1.99 0.965 2.98 0.625 4 C-0.035 3.34 -0.695 2.68 -1.375 2 C-4.38338544 1.65477544 -6.47034461 1.42575911 -9.375 2 C-12.25140616 4.37500791 -12.25140616 4.37500791 -14.375 7 C-15.035 7 -15.695 7 -16.375 7 C-16.045 12.94 -15.715 18.88 -15.375 25 C-18.40370862 21.97129138 -18.53616839 18.85518314 -18.625 14.6875 C-18.56396074 10.05614618 -17.63956585 7.04386759 -15.375 3 C-11.01707575 -1.08555399 -5.60974679 -2.36199865 0 0 Z " fill="#794AD4" transform="translate(343.375,332)"/>
<path d="M0 0 C1.32 0.33 2.64 0.66 4 1 C3.67 6.94 3.34 12.88 3 19 C1.68 19 0.36 19 -1 19 C-1.22171552 16.39634072 -1.42784859 13.79303507 -1.625 11.1875 C-1.68945312 10.44951172 -1.75390625 9.71152344 -1.8203125 8.95117188 C-2.2265625 3.33984375 -2.2265625 3.33984375 0 0 Z " fill="#8A3CFD" transform="translate(214,151)"/>
<path d="M0 0 C0.66 0.33 1.32 0.66 2 1 C4.33124929 2.00484883 6.66443537 3.00522247 9 4 C8.195625 4.680625 7.39125 5.36125 6.5625 6.0625 C3.57711289 9.48477302 3.26218749 11.5428126 3 16 C2.67 16 2.34 16 2 16 C1.95101562 15.36191406 1.90203125 14.72382813 1.8515625 14.06640625 C1.77679688 13.24011719 1.70203125 12.41382813 1.625 11.5625 C1.52058594 10.32693359 1.52058594 10.32693359 1.4140625 9.06640625 C1.20910156 8.04353516 1.20910156 8.04353516 1 7 C0.34 6.67 -0.32 6.34 -1 6 C-1.66 9.3 -2.32 12.6 -3 16 C-3.33 16 -3.66 16 -4 16 C-4.47617251 9.30713088 -4.39973696 5.22468764 0 0 Z " fill="#8046E6" transform="translate(229,157)"/>
<path d="M0 0 C1.14662109 0.13148438 1.14662109 0.13148438 2.31640625 0.265625 C4.4375 0.75 4.4375 0.75 7.4375 2.75 C7.1075 3.74 6.7775 4.73 6.4375 5.75 C4.4375 4.75 4.4375 4.75 3.4375 2.75 C0.40815509 2.09227572 0.40815509 2.09227572 -2.5625 1.75 C-2.8925 3.07 -3.2225 4.39 -3.5625 5.75 C-2.5725 5.75 -1.5825 5.75 -0.5625 5.75 C-0.5625 6.41 -0.5625 7.07 -0.5625 7.75 C-3.63867188 8.04296875 -3.63867188 8.04296875 -6.71484375 8.3359375 C-7.62943359 8.54089844 -7.62943359 8.54089844 -8.5625 8.75 C-8.8925 9.41 -9.2225 10.07 -9.5625 10.75 C-9.50243922 9.29052295 -9.4136311 7.83220728 -9.3125 6.375 C-9.26609375 5.56289063 -9.2196875 4.75078125 -9.171875 3.9140625 C-8.5625 1.75 -8.5625 1.75 -6.80078125 0.4453125 C-4.28235551 -0.33702569 -2.60682355 -0.33522604 0 0 Z " fill="#7C3EF1" transform="translate(140.5625,331.25)"/>
<path d="M0 0 C0.99 0.33 1.98 0.66 3 1 C2.2733313 1.61161987 2.2733313 1.61161987 1.53198242 2.2355957 C-0.33110371 4.38133649 -0.41229073 5.42659846 -0.51171875 8.23046875 C-0.54716797 9.03291016 -0.58261719 9.83535156 -0.61914062 10.66210938 C-0.65297852 11.91217773 -0.65297852 11.91217773 -0.6875 13.1875 C-0.72166016 14.03248047 -0.75582031 14.87746094 -0.79101562 15.74804688 C-0.87341471 17.83156649 -0.93838645 19.91576216 -1 22 C-3.64 22 -6.28 22 -9 22 C-9 17.71 -9 13.42 -9 9 C-8.67 9 -8.34 9 -8 9 C-7.67 12.96 -7.34 16.92 -7 21 C-5.68 21 -4.36 21 -3 21 C-3.03480469 19.73542969 -3.06960938 18.47085937 -3.10546875 17.16796875 C-3.13360677 15.50782577 -3.16090691 13.84766844 -3.1875 12.1875 C-3.21263672 11.35412109 -3.23777344 10.52074219 -3.26367188 9.66210938 C-3.27817383 8.45844727 -3.27817383 8.45844727 -3.29296875 7.23046875 C-3.3086792 6.49207764 -3.32438965 5.75368652 -3.34057617 4.99291992 C-2.91074167 2.47769478 -1.92536938 1.60558484 0 0 Z " fill="#7F4CD9" transform="translate(298,339)"/>
<path d="M0 0 C0.95904856 3.83619425 0.91892116 5.32431536 0 9 C0.99 9 1.98 9 3 9 C3.33 11.31 3.66 13.62 4 16 C1.03 16 -1.94 16 -5 16 C-3.35 10.72 -1.7 5.44 0 0 Z " fill="#7F41E9" transform="translate(87,345)"/>
<path d="M0 0 C0.33 0 0.66 0 1 0 C1.33 6.6 1.66 13.2 2 20 C3.65 20.33 5.3 20.66 7 21 C7 21.33 7 21.66 7 22 C2.72412002 22.08384078 -0.76358987 21.84728203 -5 21 C-5 15.06 -5 9.12 -5 3 C-4.67 3 -4.34 3 -4 3 C-3.67 7.29 -3.34 11.58 -3 16 C-2.34 16 -1.68 16 -1 16 C-0.67 10.72 -0.34 5.44 0 0 Z " fill="#8544ED" transform="translate(217,153)"/>
<path d="M0 0 C0.845625 0.495 1.69125 0.99 2.5625 1.5 C1.5725 1.995 1.5725 1.995 0.5625 2.5 C-0.0975 2.17 -0.7575 1.84 -1.4375 1.5 C-3.26787287 1.37854007 -5.10314133 1.32456815 -6.9375 1.3125 C-8.40703125 1.29123047 -8.40703125 1.29123047 -9.90625 1.26953125 C-12.607418 1.24319966 -12.607418 1.24319966 -14.4375 3.5 C-14.7675 4.16 -15.0975 4.82 -15.4375 5.5 C-16.4275 5.5 -17.4175 5.5 -18.4375 5.5 C-18.128125 6.6446875 -18.128125 6.6446875 -17.8125 7.8125 C-17.4375 10.5 -17.4375 10.5 -19.4375 13.5 C-20.0975 13.5 -20.7575 13.5 -21.4375 13.5 C-21.31786935 6.56142217 -21.31786935 6.56142217 -18.91796875 3.66796875 C-13.06675852 -1.39486789 -7.47427613 -3.26150231 0 0 Z " fill="#7B4AD7" transform="translate(410.4375,332.5)"/>
<path d="M0 0 C0.12375 0.639375 0.2475 1.27875 0.375 1.9375 C0.58125 2.618125 0.7875 3.29875 1 4 C1.66 4.33 2.32 4.66 3 5 C0.07522681 7.92477319 -2.02014991 9.30875009 -6.125 9.4375 C-10 9 -10 9 -12 7.5 C-12.33 7.005 -12.66 6.51 -13 6 C-10.69 6.33 -8.38 6.66 -6 7 C-6 6.01 -6 5.02 -6 4 C-6 3.01 -6 2.02 -6 1 C-4.7934375 1.0309375 -4.7934375 1.0309375 -3.5625 1.0625 C-1.06645115 1.29633621 -1.06645115 1.29633621 0 0 Z " fill="#7F44E5" transform="translate(343,353)"/>
<path d="M0 0 C1.32 0 2.64 0 4 0 C4 0.66 4 1.32 4 2 C4.66 2 5.32 2 6 2 C6.66 4.64 7.32 7.28 8 10 C7.34 10 6.68 10 6 10 C5.67 10.66 5.34 11.32 5 12 C4.01 12 3.02 12 2 12 C1.34 8.04 0.68 4.08 0 0 Z " fill="#8A3DFD" transform="translate(177,335)"/>
<path d="M0 0 C2.0807324 -0.00968346 4.16046699 -0.04070928 6.2409668 -0.07226562 C7.57494534 -0.07879869 8.90893091 -0.08404797 10.24291992 -0.08789062 C11.44924072 -0.09723633 12.65556152 -0.10658203 13.8984375 -0.11621094 C17.62623229 0.27604711 20.06148932 1.37663303 23.28588867 3.24023438 C20.28588867 4.24023438 20.28588867 4.24023438 17.70385742 3.31445312 C13.25066492 1.91487834 9.23382835 1.98321147 4.59838867 2.05273438 C3.27242676 2.06240234 3.27242676 2.06240234 1.91967773 2.07226562 C-4.325187 2.14559982 -10.51506935 2.44402715 -16.71411133 3.24023438 C-14.17468876 -1.83861076 -4.87909862 0.01374878 0 0 Z " fill="#7D4ADD" transform="translate(247.714111328125,153.759765625)"/>
<path d="M0 0 C4.54347826 1.43478261 4.54347826 1.43478261 6.3125 3.625 C7.68476684 8.36555818 7.63632678 12.4259285 5.8125 16.9375 C3.61989153 19.43253722 2.25677898 19.73593684 -1 20 C-0.34 19.67 0.32 19.34 1 19 C1 18.01 1 17.02 1 16 C1.99 15.67 2.98 15.34 4 15 C4.08912219 11.16774573 3.87867729 7.73437848 3 4 C2.01 3.67 1.02 3.34 0 3 C0 2.01 0 1.02 0 0 Z " fill="#7C49DB" transform="translate(276,340)"/>
<path d="M0 0 C1.32 0.33 2.64 0.66 4 1 C3.34 4.63 2.68 8.26 2 12 C-1 12 -1 12 -2.6875 10.625 C-4 9 -4 9 -4 7 C-3.34 7 -2.68 7 -2 7 C-2.04125 6.21625 -2.0825 5.4325 -2.125 4.625 C-2 2 -2 2 0 0 Z " fill="#843DF9" transform="translate(229,333)"/>
<path d="M0 0 C2.8125 -0.25 2.8125 -0.25 6 0 C7.875 2 7.875 2 9 4 C8.34 5.32 7.68 6.64 7 8 C6.34 8 5.68 8 5 8 C4.67 7.34 4.34 6.68 4 6 C3.34 6 2.68 6 2 6 C2 5.34 2 4.68 2 4 C1.01 4 0.02 4 -1 4 C-0.67 2.68 -0.34 1.36 0 0 Z " fill="#883DFC" transform="translate(138,333)"/>
<path d="M0 0 C0.33 0 0.66 0 1 0 C1.33 3.3 1.66 6.6 2 10 C4.97 10 7.94 10 11 10 C11 10.66 11 11.32 11 12 C9.865625 12.12375 8.73125 12.2475 7.5625 12.375 C5.7990625 12.684375 5.7990625 12.684375 4 13 C3.67 13.66 3.34 14.32 3 15 C7.29 15 11.58 15 16 15 C16 15.33 16 15.66 16 16 C10.39 16 4.78 16 -1 16 C-0.34 14.68 0.32 13.36 1 12 C0.67 11.67 0.34 11.34 0 11 C-0.07226502 9.14712498 -0.0838122 7.29166122 -0.0625 5.4375 C-0.05347656 4.42558594 -0.04445313 3.41367187 -0.03515625 2.37109375 C-0.02355469 1.58863281 -0.01195312 0.80617188 0 0 Z " fill="#7E3FEE" transform="translate(259,344)"/>
<path d="M0 0 C0.66 0 1.32 0 2 0 C1.34 3.3 0.68 6.6 0 10 C2.64 10.33 5.28 10.66 8 11 C8 11.66 8 12.32 8 13 C6.52093108 13.02689216 5.04172517 13.04634621 3.5625 13.0625 C2.32693359 13.07990234 2.32693359 13.07990234 1.06640625 13.09765625 C-1 13 -1 13 -2 12 C-2.07179964 10.48071962 -2.08392007 8.95832518 -2.0625 7.4375 C-2.05347656 6.61121094 -2.04445313 5.78492188 -2.03515625 4.93359375 C-2.02355469 4.29550781 -2.01195313 3.65742188 -2 3 C-1.34 3 -0.68 3 0 3 C0 2.01 0 1.02 0 0 Z " fill="#7F49DF" transform="translate(97,334)"/>
<path d="M0 0 C0 3.3 0 6.6 0 10 C-1.65 10 -3.3 10 -5 10 C-4.88637738 8.5199159 -4.75877092 7.04089926 -4.625 5.5625 C-4.55539063 4.73878906 -4.48578125 3.91507812 -4.4140625 3.06640625 C-4.27742188 2.38449219 -4.14078125 1.70257813 -4 1 C-2 0 -2 0 0 0 Z " fill="#893DFD" transform="translate(129,361)"/>
<path d="M0 0 C3.96 0 7.92 0 12 0 C12.33 0.99 12.66 1.98 13 3 C11.58566794 3.2236337 10.16832382 3.42826476 8.75 3.625 C7.96109375 3.74101562 7.1721875 3.85703125 6.359375 3.9765625 C3.67847541 4.00319395 2.27305911 3.36592084 0 2 C0 1.34 0 0.68 0 0 Z " fill="#8C3DFB" transform="translate(397,356)"/>
<path d="M0 0 C3.39914975 1.13304992 4.05254451 2.12518475 6 5 C5.01 5.99 4.02 6.98 3 8 C0.0625 7.1875 0.0625 7.1875 -3 6 C-3.33 5.01 -3.66 4.02 -4 3 C-3.01 2.67 -2.02 2.34 -1 2 C-0.67 1.34 -0.34 0.68 0 0 Z " fill="#8A3DFC" transform="translate(333,353)"/>
<path d="M0 0 C2.97 0 5.94 0 9 0 C8.01 3.3 7.02 6.6 6 10 C5.67 10 5.34 10 5 10 C5.33 7.36 5.66 4.72 6 2 C4.68 2.33 3.36 2.66 2 3 C1.67 4.65 1.34 6.3 1 8 C0.01 8 -0.98 8 -2 8 C-1.34 5.36 -0.68 2.72 0 0 Z " fill="#7C4AD9" transform="translate(226,332)"/>
<path d="M0 0 C2.97 0 5.94 0 9 0 C8.67 0.66 8.34 1.32 8 2 C6.35 2 4.7 2 3 2 C3.66 2.66 4.32 3.32 5 4 C5.125 7.125 5.125 7.125 5 10 C5.66 10 6.32 10 7 10 C7 11.98 7 13.96 7 16 C4.35478068 13.35478068 3.55457481 10.33828651 2.375 6.875 C2.14554688 6.21628906 1.91609375 5.55757813 1.6796875 4.87890625 C1.11463758 3.25438774 0.55663723 1.62742029 0 0 Z " fill="#814DDD" transform="translate(204,332)"/>
<path d="M0 0 C0.66 0 1.32 0 2 0 C2.2475 0.78375 2.495 1.5675 2.75 2.375 C4.20140766 5.42295608 4.99550707 5.72536664 8 7 C8.61875 7.7734375 8.61875 7.7734375 9.25 8.5625 C12.13252959 10.93029216 15.34155006 10.70012705 19 11 C19 11.33 19 11.66 19 12 C14.34577299 12.37233816 10.94804747 12.46507989 6.6875 10.375 C3.79147471 7.81572184 1.89864197 5.35913579 0 2 C0 1.34 0 0.68 0 0 Z " fill="#7E4CD3" transform="translate(235,245)"/>
<path d="M0 0 C0.33 0.66 0.66 1.32 1 2 C-1.71015891 6.69065966 -3.7785957 9.29300244 -9 11 C-11.78456136 10.93968459 -14.24512678 10.52247596 -17 10 C-17 9.67 -17 9.34 -17 9 C-15.73542969 8.96132813 -15.73542969 8.96132813 -14.4453125 8.921875 C-13.34960938 8.86515625 -12.25390625 8.8084375 -11.125 8.75 C-10.03445312 8.70359375 -8.94390625 8.6571875 -7.8203125 8.609375 C-4.89409355 8.3182773 -4.89409355 8.3182773 -3.71875 6.09375 C-3.4815625 5.4028125 -3.244375 4.711875 -3 4 C-2.02418241 2.64886795 -1.02970259 1.31053056 0 0 Z " fill="#7D4CDA" transform="translate(222,363)"/>
<path d="M0 0 C0.33 0.99 0.66 1.98 1 3 C1.66 3.66 2.32 4.32 3 5 C2 7 2 7 -0.625 8.25 C-4.70983133 9.1577403 -7.11086212 8.40008964 -11 7 C-11 6.67 -11 6.34 -11 6 C-8.36 6 -5.72 6 -3 6 C-2.690625 5.195625 -2.38125 4.39125 -2.0625 3.5625 C-1 1 -1 1 0 0 Z " fill="#8C3EFD" transform="translate(178,351)"/>
<path d="M0 0 C2.91517292 1.07401108 4.77810176 1.77810176 7 4 C6.34 4 5.68 4 5 4 C4.67 6.97 4.34 9.94 4 13 C3.01 13 2.02 13 1 13 C1.20625 11.96875 1.4125 10.9375 1.625 9.875 C2.01194403 5.8765784 1.51883076 3.66306243 0 0 Z " fill="#7C42E5" transform="translate(343,339)"/>
<path d="M0 0 C2.00720923 0.28674418 4.0085944 0.61866701 6 1 C5.67 2.32 5.34 3.64 5 5 C3.35 5.33 1.7 5.66 0 6 C-0.38218767 4.34385343 -0.71395102 2.67542976 -1 1 C-0.67 0.67 -0.34 0.34 0 0 Z " fill="#873EF9" transform="translate(313,322)"/>
<path d="M0 0 C2.4375 0.8125 2.4375 0.8125 5 2 C5.33 2.99 5.66 3.98 6 5 C5.01 5.99 4.02 6.98 3 8 C1.5 6.625 1.5 6.625 0 5 C0 4.34 0 3.68 0 3 C-0.66 2.67 -1.32 2.34 -2 2 C-1.34 1.34 -0.68 0.68 0 0 Z " fill="#7141DF" transform="translate(410,351)"/>
<path d="M0 0 C0.66 0.33 1.32 0.66 2 1 C3.83738291 6.51214873 4.04369286 13.60193023 2.328125 19.1875 C1.5 20.8125 1.5 20.8125 0 23 C-0.33 23 -0.66 23 -1 23 C-1 21.35 -1 19.7 -1 18 C-0.34 18 0.32 18 1 18 C1.02717692 15.93757383 1.0464758 13.87504297 1.0625 11.8125 C1.07410156 10.66394531 1.08570313 9.51539063 1.09765625 8.33203125 C1.01192832 5.40699414 0.67849023 2.83683709 0 0 Z " fill="#7D51D1" transform="translate(148,336)"/>
<path d="M0 0 C2.97 0 5.94 0 9 0 C8.74438677 2.3431213 8.40729228 4.67843403 8 7 C7.01 7.495 7.01 7.495 6 8 C3.875 7.0625 3.875 7.0625 2 6 C3.32 6 4.64 6 6 6 C6 4.35 6 2.7 6 1 C3.69 1.33 1.38 1.66 -1 2 C-0.67 1.34 -0.34 0.68 0 0 Z " fill="#7B49D3" transform="translate(299,332)"/>
<path d="M0 0 C2.47378124 2.47378124 3.03138231 4.56174345 4.125 7.875 C4.47820312 8.92429687 4.83140625 9.97359375 5.1953125 11.0546875 C6 14 6 14 6 18 C5.01 17.67 4.02 17.34 3 17 C3.061875 16.34 3.12375 15.68 3.1875 15 C2.97371016 11.57936262 1.99281914 9.0896929 0.65625 5.96484375 C0 4 0 4 0 0 Z " fill="#7D47DA" transform="translate(213,334)"/>
<path d="M0 0 C4.0878742 3.77342234 5.86872381 5.82836735 6.09765625 11.359375 C6.08605469 12.14828125 6.07445312 12.9371875 6.0625 13.75 C6.05347656 14.54921875 6.04445312 15.3484375 6.03515625 16.171875 C6.01775391 17.07679688 6.01775391 17.07679688 6 18 C5.67 18 5.34 18 5 18 C4.855625 16.865625 4.71125 15.73125 4.5625 14.5625 C4.38828522 11.19222799 4.38828522 11.19222799 3 10 C2.95919217 8.00041636 2.95745644 5.99954746 3 4 C2.34 4 1.68 4 1 4 C0.67 2.68 0.34 1.36 0 0 Z " fill="#7C4CD5" transform="translate(180,333)"/>
<path d="M0 0 C0.66 0 1.32 0 2 0 C3.625 2.5 3.625 2.5 5 5 C5.66 4.67 6.32 4.34 7 4 C7 4.66 7 5.32 7 6 C10.3 6.33 13.6 6.66 17 7 C17 7.33 17 7.66 17 8 C7.11310996 8.62334158 7.11310996 8.62334158 2.875 6.25 C1.04724408 4.05669289 0.30104205 2.80972581 0 0 Z " fill="#7F48E2" transform="translate(167,301)"/>
<path d="M0 0 C0.99 0.66 1.98 1.32 3 2 C2.42655063 4.86724686 2.1385485 5.8614515 0 8 C-3.125 8.125 -3.125 8.125 -6 8 C-6 7.01 -6 6.02 -6 5 C-4.02 5.495 -4.02 5.495 -2 6 C-1.34 4.02 -0.68 2.04 0 0 Z " fill="#7C42E6" transform="translate(376,339)"/>
<path d="M0 0 C1.98 0 3.96 0 6 0 C6.33 0.99 6.66 1.98 7 3 C4.36 3.33 1.72 3.66 -1 4 C-0.67 2.68 -0.34 1.36 0 0 Z " fill="#8A41FB" transform="translate(206,367)"/>
<path d="M0 0 C2.97 0.495 2.97 0.495 6 1 C3.39791402 3.60208598 1.45560962 4.24088781 -2.125 4.3125 C-6 4 -6 4 -8 2 C-5.69 2 -3.38 2 -1 2 C-0.67 1.34 -0.34 0.68 0 0 Z " fill="#7C4ADD" transform="translate(141,358)"/>
<path d="M0 0 C1.258125 0.12375 2.51625 0.2475 3.8125 0.375 C4.87404297 0.47941406 4.87404297 0.47941406 5.95703125 0.5859375 C8 1 8 1 11 3 C10.67 3.99 10.34 4.98 10 6 C8 5 8 5 7 3 C4.69 3 2.38 3 0 3 C0 2.01 0 1.02 0 0 Z " fill="#7E4ED3" transform="translate(137,331)"/>
<path d="M0 0 C0.66 0 1.32 0 2 0 C2 0.99 2 1.98 2 3 C2.99 3.33 3.98 3.66 5 4 C5 6.64 5 9.28 5 12 C2.65085508 9.65085508 2.26859643 8.04320554 1.375 4.875 C1.11460937 3.96492188 0.85421875 3.05484375 0.5859375 2.1171875 C0.39257812 1.41851562 0.19921875 0.71984375 0 0 Z " fill="#834CE1" transform="translate(211,349)"/>
<path d="M0 0 C0.33 0 0.66 0 1 0 C1 1.98 1 3.96 1 6 C1.66 6 2.32 6 3 6 C3.33 7.98 3.66 9.96 4 12 C0.92203555 9.5177706 0.05603723 8.25432283 -0.8125 4.3125 C-0.874375 3.219375 -0.93625 2.12625 -1 1 C-0.67 0.67 -0.34 0.34 0 0 Z " fill="#8249DA" transform="translate(390,347)"/>
<path d="M0 0 C0.66 0 1.32 0 2 0 C2.625 2.3125 2.625 2.3125 3 5 C2.01 6.485 2.01 6.485 1 8 C0.34 8 -0.32 8 -1 8 C-0.67 5.36 -0.34 2.72 0 0 Z " fill="#7E45E5" transform="translate(390,338)"/>
<path d="M0 0 C2.125 0.375 2.125 0.375 4 1 C2.37660195 2.70884005 0.70680947 4.37446717 -1 6 C-1.66 6 -2.32 6 -3 6 C-2.42655063 3.13275314 -2.1385485 2.1385485 0 0 Z " fill="#7D47E1" transform="translate(330,333)"/>
<path d="M0 0 C3.63 0 7.26 0 11 0 C11 2.64 11 5.28 11 8 C10.67 8 10.34 8 10 8 C9.34 6.02 8.68 4.04 8 2 C5.36 1.67 2.72 1.34 0 1 C0 0.67 0 0.34 0 0 Z " fill="#7F49D4" transform="translate(262,328)"/>
<path d="M0 0 C2 3 2 3 2 5 C-0.31 5 -2.62 5 -5 5 C-3.35 3.35 -1.7 1.7 0 0 Z " fill="#8C3CFD" transform="translate(253,250)"/>
<path d="M0 0 C2.64 0.33 5.28 0.66 8 1 C7.67 1.66 7.34 2.32 7 3 C4.36 3 1.72 3 -1 3 C-0.67 2.01 -0.34 1.02 0 0 Z " fill="#7C35FB" transform="translate(370,347)"/>
<path d="M0 0 C2.64 0 5.28 0 8 0 C8 0.66 8 1.32 8 2 C4.92382812 2.29296875 4.92382812 2.29296875 1.84765625 2.5859375 C0.93306641 2.79089844 0.93306641 2.79089844 0 3 C-0.33 3.66 -0.66 4.32 -1 5 C-0.67 3.35 -0.34 1.7 0 0 Z " fill="#7843DD" transform="translate(132,337)"/>
<path d="M0 0 C1.32 0 2.64 0 4 0 C3.67 1.65 3.34 3.3 3 5 C1.68 4.67 0.36 4.34 -1 4 C-0.67 2.68 -0.34 1.36 0 0 Z " fill="#863CFA" transform="translate(361,361)"/>
<path d="M0 0 C3.375 -0.1875 3.375 -0.1875 7 0 C7.66 0.99 8.32 1.98 9 3 C7.35 2.67 5.7 2.34 4 2 C3.67 2.66 3.34 3.32 3 4 C2.01 3.34 1.02 2.68 0 2 C0 1.34 0 0.68 0 0 Z " fill="#843FEB" transform="translate(322,176)"/>
<path d="M0 0 C0.66 0.33 1.32 0.66 2 1 C1.67 2.98 1.34 4.96 1 7 C0.01 7.33 -0.98 7.66 -2 8 C-1.125 1.125 -1.125 1.125 0 0 Z " fill="#7943DC" transform="translate(360,360)"/>
<path d="M0 0 C0.33 0.99 0.66 1.98 1 3 C-0.66342837 4.66342837 -2.7825709 4.36048097 -5.0625 4.5625 C-5.98160156 4.64628906 -6.90070313 4.73007812 -7.84765625 4.81640625 C-8.55792969 4.87699219 -9.26820313 4.93757813 -10 5 C-10 4.34 -10 3.68 -10 3 C-8.72125 2.87625 -7.4425 2.7525 -6.125 2.625 C-2.65209064 2.30957601 -2.65209064 2.30957601 0 0 Z " fill="#7B46D2" transform="translate(215,363)"/>
</svg>
