<?xml version="1.0" encoding="UTF-8"?>
<svg version="1.1" xmlns="http://www.w3.org/2000/svg" width="369" height="136">
<path d="M0 0 C4.0255439 0.9885019 5.82954735 0.68135662 9.625 -1.0625 C12.99104697 -0.92511033 14.98628861 -0.48830759 17.79296875 1.3828125 C20.59996445 5.29704531 20.05490983 9.00292483 19.875 13.6875 C19.85695312 14.57566406 19.83890625 15.46382812 19.8203125 16.37890625 C19.77327374 18.56620848 19.70757009 20.75129816 19.625 22.9375 C17.315 22.9375 15.005 22.9375 12.625 22.9375 C12.295 17.6575 11.965 12.3775 11.625 6.9375 C9.975 7.2675 8.325 7.5975 6.625 7.9375 C6.295 12.8875 5.965 17.8375 5.625 22.9375 C3.315 22.9375 1.005 22.9375 -1.375 22.9375 C-1.705 17.6575 -2.035 12.3775 -2.375 6.9375 C-4.025 6.9375 -5.675 6.9375 -7.375 6.9375 C-7.705 12.2175 -8.035 17.4975 -8.375 22.9375 C-10.685 22.9375 -12.995 22.9375 -15.375 22.9375 C-15.375 15.3475 -15.375 7.7575 -15.375 -0.0625 C-12.735 -0.0625 -10.095 -0.0625 -7.375 -0.0625 C-4.0606362 -1.16728793 -3.23534879 -0.92201919 0 0 Z " fill="#A12369" transform="translate(108.375,58.0625)"/>
<path d="M0 0 C2.31 0 4.62 0 7 0 C7 3.63 7 7.26 7 11 C10.96 11 14.92 11 19 11 C19 7.37 19 3.74 19 0 C21.31 0 23.62 0 26 0 C26 9.9 26 19.8 26 30 C23.69 30 21.38 30 19 30 C19 25.71 19 21.42 19 17 C15.04 17 11.08 17 7 17 C7 21.29 7 25.58 7 30 C4.69 30 2.38 30 0 30 C0 20.1 0 10.2 0 0 Z " fill="#2C2C2C" transform="translate(195,51)"/>
<path d="M0 0 C2.31 0 4.62 0 7 0 C7 11.22 7 22.44 7 34 C4.33333333 34 1.66666667 34 -1 34 C-2.3303125 34.3403125 -2.3303125 34.3403125 -3.6875 34.6875 C-7.99548249 35.09391344 -10.25794541 34.11814411 -14 32 C-17.28871898 28.39301789 -17.4722756 24.84239655 -17.27734375 20.1484375 C-16.87325479 17.01817093 -16.13374252 15.34023373 -14 13 C-9.27071592 10.32304675 -6.2680128 9.58663071 -1 11 C-1 13.31 -1 15.62 -1 18 C-2.134375 17.979375 -3.26875 17.95875 -4.4375 17.9375 C-7.81575674 17.58422523 -7.81575674 17.58422523 -9 19 C-9.16666667 22.5 -9.16666667 22.5 -9 26 C-7.88163776 27.34404775 -7.88163776 27.34404775 -5 27.125 C-2.11836224 27.34404775 -2.11836224 27.34404775 -1 26 C-0.84193469 24.07521187 -0.748865 22.1450079 -0.68359375 20.21484375 C-0.64169922 19.04501953 -0.59980469 17.87519531 -0.55664062 16.66992188 C-0.51732422 15.43822266 -0.47800781 14.20652344 -0.4375 12.9375 C-0.37272461 11.08415039 -0.37272461 11.08415039 -0.30664062 9.19335938 C-0.20015802 6.12902665 -0.09814576 3.06460927 0 0 Z " fill="#262626" transform="translate(295,47)"/>
<path d="M0 0 C2.93996665 1.60361817 4.5357125 2.90892438 5.859375 6.01953125 C6.95618055 9.94529259 7.36409433 13.02135477 5.875 16.875 C3.34193808 21.09676987 1.73588347 22.52986489 -3 23.8125 C-6.12469007 24.00779313 -7.42183113 23.6857258 -10 22 C-10 20.02 -10 18.04 -10 16 C-8.865625 16.020625 -7.73125 16.04125 -6.5625 16.0625 C-3.18424326 16.41577477 -3.18424326 16.41577477 -2 15 C-1.83333333 11.5 -1.83333333 11.5 -2 8 C-2.33 7.67 -2.66 7.34 -3 7 C-5.31 7.33 -7.62 7.66 -10 8 C-10.33 15.59 -10.66 23.18 -11 31 C-13.31 31 -15.62 31 -18 31 C-18 20.77 -18 10.54 -18 0 C-15 0 -12 0 -9 0 C-5.39965901 -1.20011366 -3.65462165 -0.95020163 0 0 Z " fill="#B33666" transform="translate(150,58)"/>
<path d="M0 0 C2.9375 1.25 2.9375 1.25 5 3 C5.8125 5.1875 5.8125 5.1875 6 7 C3 9 3 9 1.125 8.6875 C0.42375 8.460625 -0.2775 8.23375 -1 8 C-2.66519519 7.65939189 -4.33157466 7.32441604 -6 7 C-5.87743895 8.93623857 -5.87743895 8.93623857 -5 11 C-2.76107745 12.43069785 -2.76107745 12.43069785 -0.0625 13.5 C4.66983553 15.5154983 4.66983553 15.5154983 6.3203125 17.9375 C7.41894307 21.27127553 6.89737307 23.64980722 6 27 C3.35286254 29.95856539 1.44589086 30.87614143 -2.375 31.9375 C-7.41303305 32.02436264 -11.12559126 30.63254955 -14.9375 27.3125 C-15.4634375 26.6628125 -15.4634375 26.6628125 -16 26 C-15.1875 24.0625 -15.1875 24.0625 -14 22 C-13.01 21.67 -12.02 21.34 -11 21 C-10.401875 21.474375 -9.80375 21.94875 -9.1875 22.4375 C-6.3425273 24.46962336 -4.41711283 24.23298497 -1 24 C-1 23.01 -1 22.02 -1 21 C-2.03060547 20.51080078 -2.03060547 20.51080078 -3.08203125 20.01171875 C-3.98308594 19.57472656 -4.88414063 19.13773438 -5.8125 18.6875 C-6.70582031 18.25824219 -7.59914063 17.82898438 -8.51953125 17.38671875 C-11.78192738 15.5628595 -13.59405097 14.18662024 -14.8125 10.625 C-15.04244451 7.4057768 -14.61716739 5.79328913 -13 3 C-9.01327314 -0.4004435 -5.02448354 -0.75113491 0 0 Z " fill="#8B1D5D" transform="translate(72,50)"/>
<path d="M0 0 C2.38527062 1.9082165 3.29939676 2.84348031 4.1875 5.75 C4.1875 8.06 4.1875 10.37 4.1875 12.75 C-0.7625 13.08 -5.7125 13.41 -10.8125 13.75 C-8.9433634 16.05886319 -8.9433634 16.05886319 -5.9375 15.9375 C-3.37998401 15.78404904 -1.24603596 15.4987803 1.1875 14.75 C1.8475 16.4 2.5075 18.05 3.1875 19.75 C-0.53938733 22.5451655 -3.3527979 23.22227635 -7.88671875 23.04296875 C-12.06246578 22.40771312 -15.14293958 19.89022672 -17.8125 16.75 C-19.05282748 12.55800713 -19.31200912 8.89887098 -17.5625 4.875 C-12.74597118 -0.97364214 -7.52493374 -3.34441499 0 0 Z M-9.8125 4.75 C-10.8025 6.235 -10.8025 6.235 -11.8125 7.75 C-8.8425 7.75 -5.8725 7.75 -2.8125 7.75 C-3.1425 6.76 -3.4725 5.77 -3.8125 4.75 C-6.72884129 4.4997843 -6.72884129 4.4997843 -9.8125 4.75 Z " fill="#282828" transform="translate(271.8125,58.25)"/>
<path d="M0 0 C2.31 0 4.62 0 7 0 C7.26554688 0.62648437 7.53109375 1.25296875 7.8046875 1.8984375 C8.15789062 2.71570312 8.51109375 3.53296875 8.875 4.375 C9.39707031 5.59316406 9.39707031 5.59316406 9.9296875 6.8359375 C10.92446067 9.13802299 10.92446067 9.13802299 13 11 C14.65 7.37 16.3 3.74 18 0 C20.31 0 22.62 0 25 0 C22.9844184 6.53367154 20.48163054 12.69560514 17.5625 18.875 C17.18029297 19.71546875 16.79808594 20.5559375 16.40429688 21.421875 C16.02466797 22.22882813 15.64503906 23.03578125 15.25390625 23.8671875 C14.91689697 24.59019043 14.5798877 25.31319336 14.23266602 26.05810547 C12.77655273 28.35201021 11.29217778 29.56066072 9 31 C6.640625 31.29296875 6.640625 31.29296875 4.25 31.1875 C3.05117187 31.14689453 3.05117187 31.14689453 1.828125 31.10546875 C1.22484375 31.07066406 0.6215625 31.03585938 0 31 C-0.042721 29.33388095 -0.04063832 27.66617115 0 26 C1 25 1 25 4.0625 24.9375 C5.5165625 24.9684375 5.5165625 24.9684375 7 25 C7.44065221 18.99611359 6.0807995 15.06333526 3.5 9.6875 C0 2.19425676 0 2.19425676 0 0 Z " fill="#D94A6C" transform="translate(168,58)"/>
<path d="M0 0 C2.5 0.125 2.5 0.125 3.5 1.125 C3.58847743 3.64594076 3.61527301 6.13930893 3.59765625 8.66015625 C3.5962413 9.41340683 3.59482635 10.16665741 3.59336853 10.94273376 C3.58775376 13.3576956 3.57519883 15.77256601 3.5625 18.1875 C3.5574869 19.82096221 3.55292366 21.45442586 3.54882812 23.08789062 C3.53777954 27.10029585 3.52050506 31.11263241 3.5 35.125 C1.19 35.125 -1.12 35.125 -3.5 35.125 C-3.5246519 30.30119198 -3.54283693 25.47742033 -3.55493164 20.65356445 C-3.55997174 19.01130536 -3.56680378 17.36905077 -3.57543945 15.72680664 C-3.58751926 13.37124521 -3.59323139 11.01574291 -3.59765625 8.66015625 C-3.60281754 7.92160904 -3.60797882 7.18306183 -3.61329651 6.4221344 C-3.6134925 4.65601912 -3.56194719 2.89002854 -3.5 1.125 C-2.5 0.125 -2.5 0.125 0 0 Z " fill="#C7456C" transform="translate(162.5,45.875)"/>
<path d="M0 0 C2.5625 2 2.5625 2 4 4 C1 5 1 5 -2 4 C-4.14255793 4.38932856 -4.14255793 4.38932856 -6 5 C-5.87743895 6.93623857 -5.87743895 6.93623857 -5 9 C-2.76107745 10.43069785 -2.76107745 10.43069785 -0.0625 11.5 C4.68465931 13.52181174 4.68465931 13.52181174 6.30859375 15.984375 C7.14113154 18.41143431 7.14155684 20.45197691 7 23 C5.02 22.67 3.04 22.34 1 22 C1 20.35 1 18.7 1 17 C0.29875 16.896875 -0.4025 16.79375 -1.125 16.6875 C-5.33147042 15.6816049 -8.71247442 14.16292633 -11.9375 11.25 C-13.52898953 7.87978687 -12.91679289 5.53620117 -12 2 C-8.00706063 -0.66195958 -4.69736163 -0.72919332 0 0 Z " fill="#8C1D5E" transform="translate(72,52)"/>
<path d="M0 0 C2.31 0 4.62 0 7 0 C7 7.59 7 15.18 7 23 C4.69 23 2.38 23 0 23 C0 15.41 0 7.82 0 0 Z " fill="#7C1E54" transform="translate(82,58)"/>
<path d="M0 0 C3.36187774 0.28015648 4.76318238 0.77633891 7.25 3.125 C9.38208598 6.62771269 9.92928088 8.8982913 10 13 C8.86107882 16.59659321 7.73411346 19.16101319 5.25 22 C1.96468263 23.46014106 -0.5592883 22.72784286 -4 22 C-4 21.01 -4 20.02 -4 19 C-2.02 18.01 -0.04 17.02 2 16 C2 13.03 2 10.06 2 7 C0.02 6.01 -1.96 5.02 -4 4 C-3.67 3.34 -3.34 2.68 -3 2 C-2.01 2 -1.02 2 0 2 C0 1.34 0 0.68 0 0 Z " fill="#BE3F66" transform="translate(147,58)"/>
<path d="M0 0 C2.31 0 4.62 0 7 0 C7 7.59 7 15.18 7 23 C4.69 23 2.38 23 0 23 C0 15.41 0 7.82 0 0 Z " fill="#2D2D2D" transform="translate(225,58)"/>
<path d="M0 0 C2.31 0 4.62 0 7 0 C7 7.59 7 15.18 7 23 C4.69 23 2.38 23 0 23 C0 15.41 0 7.82 0 0 Z " fill="#2C2C2C" transform="translate(237,58)"/>
<path d="M0 0 C1.65 0 3.3 0 5 0 C5 10.23 5 20.46 5 31 C3.68 31.33 2.36 31.66 1 32 C-0.65545636 27.68903343 -1.20443072 24.32950055 -0.9765625 19.7265625 C-0.925 18.57285156 -0.8734375 17.41914062 -0.8203125 16.23046875 C-0.75585938 15.04066406 -0.69140625 13.85085937 -0.625 12.625 C-0.56828125 11.41199219 -0.5115625 10.19898438 -0.453125 8.94921875 C-0.31216218 5.96550563 -0.16079754 2.98269904 0 0 Z " fill="#2D2D2D" transform="translate(297,48)"/>
<path d="M0 0 C5.5 -0.36666667 5.5 -0.36666667 7.875 1.375 C9 3 9 3 9 5 C9.66 5 10.32 5 11 5 C11 10.61 11 16.22 11 22 C8.69 22 6.38 22 4 22 C4.05800781 20.80761719 4.11601563 19.61523438 4.17578125 18.38671875 C4.22267847 16.82035159 4.26817868 15.25394216 4.3125 13.6875 C4.35439453 12.90181641 4.39628906 12.11613281 4.43945312 11.30664062 C4.48647449 9.09663625 4.48367587 7.15851089 4 5 C1.6406649 2.87255161 1.6406649 2.87255161 -1 2 C-0.67 1.34 -0.34 0.68 0 0 Z " fill="#AB3068" transform="translate(117,59)"/>
<path d="M0 0 C4.0255439 0.9885019 5.82954735 0.68135662 9.625 -1.0625 C13.35145664 -0.91039973 15.09449917 -0.495277 18 1.875 C19.625 3.9375 19.625 3.9375 19.625 5.9375 C18.965 5.9375 18.305 5.9375 17.625 5.9375 C17.2125 5.2775 16.8 4.6175 16.375 3.9375 C14.72104286 1.58765047 14.72104286 1.58765047 11.5 1.625 C8.73149557 1.62215212 8.73149557 1.62215212 7.625 2.9375 C4.625 3.0625 4.625 3.0625 1.625 2.9375 C1.295 2.6075 0.965 2.2775 0.625 1.9375 C-1.72813555 1.86478259 -4.08333668 1.85379132 -6.4375 1.875 C-9.8715625 1.9059375 -9.8715625 1.9059375 -13.375 1.9375 C-13.375 8.2075 -13.375 14.4775 -13.375 20.9375 C-12.385 20.9375 -11.395 20.9375 -10.375 20.9375 C-10.42140625 20.04546875 -10.4678125 19.1534375 -10.515625 18.234375 C-10.55171875 17.06390625 -10.5878125 15.8934375 -10.625 14.6875 C-10.67140625 13.52734375 -10.7178125 12.3671875 -10.765625 11.171875 C-10.30535506 7.36083987 -9.32351556 6.28238245 -6.375 3.9375 C-5.055 4.5975 -3.735 5.2575 -2.375 5.9375 C-4.025 6.2675 -5.675 6.5975 -7.375 6.9375 C-7.705 12.2175 -8.035 17.4975 -8.375 22.9375 C-10.685 22.9375 -12.995 22.9375 -15.375 22.9375 C-15.375 15.3475 -15.375 7.7575 -15.375 -0.0625 C-12.735 -0.0625 -10.095 -0.0625 -7.375 -0.0625 C-4.0606362 -1.16728793 -3.23534879 -0.92201919 0 0 Z " fill="#832259" transform="translate(108.375,58.0625)"/>
<path d="M0 0 C2.31 0 4.62 0 7 0 C7 0.33 7 0.66 7 1 C5.35 1 3.7 1 2 1 C2.00523682 1.71655762 2.01047363 2.43311523 2.01586914 3.17138672 C2.03660667 6.40591562 2.04964984 9.64043056 2.0625 12.875 C2.07087891 14.00292969 2.07925781 15.13085938 2.08789062 16.29296875 C2.09111328 17.36933594 2.09433594 18.44570312 2.09765625 19.5546875 C2.10289307 20.54968262 2.10812988 21.54467773 2.11352539 22.56982422 C2 25 2 25 1 27 C1.66 27.33 2.32 27.66 3 28 C3 29.32 3 30.64 3 32 C4.32 32 5.64 32 7 32 C7 32.66 7 33.32 7 34 C4.33333333 34 1.66666667 34 -1 34 C-1.928125 34.20625 -2.85625 34.4125 -3.8125 34.625 C-7.27689024 35.03257532 -8.92547846 34.53726077 -12 33 C-9.04335481 31.5216774 -6.25770263 31.93967217 -3 32 C-3.8971875 31.566875 -3.8971875 31.566875 -4.8125 31.125 C-7 30 -7 30 -10 28 C-9.67 27.34 -9.34 26.68 -9 26 C-8.67 26.33 -8.34 26.66 -8 27 C-5 27.16666667 -5 27.16666667 -2 27 C-0.22509454 25.22509454 -0.76500027 22.62215098 -0.68359375 20.21484375 C-0.64169922 19.04501953 -0.59980469 17.87519531 -0.55664062 16.66992188 C-0.49766602 14.82237305 -0.49766602 14.82237305 -0.4375 12.9375 C-0.39431641 11.70193359 -0.35113281 10.46636719 -0.30664062 9.19335938 C-0.20015802 6.12902665 -0.09814576 3.06460927 0 0 Z " fill="#1C1C1C" transform="translate(295,47)"/>
<path d="M0 0 C2.31 0 4.62 0 7 0 C10.07692308 5.41538462 10.07692308 5.41538462 9.6875 8.375 C9.460625 8.91125 9.23375 9.4475 9 10 C8.34 10 7.68 10 7 10 C7.33 10.78375 7.66 11.5675 8 12.375 C9.27410171 16.99361869 9.16923936 21.24249356 9 26 C5.04 26.495 5.04 26.495 1 27 C1 27.99 1 28.98 1 30 C3.64 30 6.28 30 9 30 C9 30.33 9 30.66 9 31 C6.03 31 3.06 31 0 31 C-0.042721 29.33388095 -0.04063832 27.66617115 0 26 C1 25 1 25 4.0625 24.9375 C5.5165625 24.9684375 5.5165625 24.9684375 7 25 C7.44065221 18.99611359 6.0807995 15.06333526 3.5 9.6875 C0 2.19425676 0 2.19425676 0 0 Z " fill="#C34E6B" transform="translate(168,58)"/>
<path d="M0 0 C2.9375 1.25 2.9375 1.25 5 3 C5.8125 5.1875 5.8125 5.1875 6 7 C3 9 3 9 0.8125 8.625 C0.214375 8.41875 -0.38375 8.2125 -1 8 C-1 7.01 -1 6.02 -1 5 C0.32 5.33 1.64 5.66 3 6 C1.33240802 3.96895849 0.48830838 3.0743078 -2.15625 2.671875 C-3.31640625 2.71054687 -3.31640625 2.71054687 -4.5 2.75 C-5.2734375 2.76546875 -6.046875 2.7809375 -6.84375 2.796875 C-9.1822807 2.93528295 -9.1822807 2.93528295 -12 4 C-12.36506255 8.7376862 -12.36506255 8.7376862 -10.8125 13.09375 C-8.63479914 15.38409056 -6.76994358 16.17456597 -3.8125 17.25 C-2.46091797 17.75273438 -2.46091797 17.75273438 -1.08203125 18.265625 C-0.39496094 18.50796875 0.29210937 18.7503125 1 19 C1.1875 21.875 1.1875 21.875 1 25 C-2 27 -2 27 -4.6875 26.625 C-5.8321875 26.315625 -5.8321875 26.315625 -7 26 C-7 25.67 -7 25.34 -7 25 C-5.02 24.67 -3.04 24.34 -1 24 C-1 23.01 -1 22.02 -1 21 C-2.03060547 20.51080078 -2.03060547 20.51080078 -3.08203125 20.01171875 C-3.98308594 19.57472656 -4.88414063 19.13773438 -5.8125 18.6875 C-6.70582031 18.25824219 -7.59914063 17.82898438 -8.51953125 17.38671875 C-11.78192738 15.5628595 -13.59405097 14.18662024 -14.8125 10.625 C-15.04244451 7.4057768 -14.61716739 5.79328913 -13 3 C-9.01327314 -0.4004435 -5.02448354 -0.75113491 0 0 Z " fill="#7C1B52" transform="translate(72,50)"/>
<path d="M0 0 C2.31 0 4.62 0 7 0 C7 7.59 7 15.18 7 23 C4.69 23 2.38 23 0 23 C0 15.41 0 7.82 0 0 Z M2 2 C2 8.6 2 15.2 2 22 C3.32 22 4.64 22 6 22 C6 15.07 6 8.14 6 1 C4.63106761 0.94729537 4.63106761 0.94729537 2 2 Z " fill="#1D1D1D" transform="translate(225,58)"/>
<path d="M0 0 C0.99 0 1.98 0 3 0 C3 6.6 3 13.2 3 20 C1.68 20 0.36 20 -1 20 C-1.02888514 16.85418577 -1.04675923 13.70840531 -1.0625 10.5625 C-1.07087891 9.66466797 -1.07925781 8.76683594 -1.08789062 7.84179688 C-1.09111328 6.98779297 -1.09433594 6.13378906 -1.09765625 5.25390625 C-1.10551147 4.06776733 -1.10551147 4.06776733 -1.11352539 2.85766602 C-1 1 -1 1 0 0 Z " fill="#9C1E6A" transform="translate(84,59)"/>
<path d="M0 0 C4.29942535 0.47771393 6.2935135 1.61689187 9 5 C9.75 7.25 9.75 7.25 10 9 C9.01 9 8.02 9 7 9 C6.01 9.66 5.02 10.32 4 11 C1.51953125 11.1953125 1.51953125 11.1953125 -1.1875 11.125 C-2.08855469 11.10695313 -2.98960937 11.08890625 -3.91796875 11.0703125 C-4.60503906 11.04710938 -5.29210937 11.02390625 -6 11 C-6 10.01 -6 9.02 -6 8 C-3.03 8.33 -0.06 8.66 3 9 C2.67 8.34 2.34 7.68 2 7 C-0.52733235 6.34444881 -0.52733235 6.34444881 -3 6 C-2.67 5.34 -2.34 4.68 -2 4 C0.97 4.495 0.97 4.495 4 5 C3.67 4.01 3.34 3.02 3 2 C2.01 1.67 1.02 1.34 0 1 C0 0.67 0 0.34 0 0 Z " fill="#242424" transform="translate(266,57)"/>
<path d="M0 0 C2.91214165 1.43612465 5.77811507 2.9384979 8.625 4.5 C9.78902344 5.13421875 9.78902344 5.13421875 10.9765625 5.78125 C13 7 13 7 15 9 C15.125 11.625 15.125 11.625 15 14 C13.68 14 12.36 14 11 14 C11 12.35 11 10.7 11 9 C9.948125 8.8453125 9.948125 8.8453125 8.875 8.6875 C5.60862353 7.90640997 2.9528148 6.57941257 0 5 C0 3.35 0 1.7 0 0 Z " fill="#9C1D69" transform="translate(62,60)"/>
<path d="M0 0 C0.33 0 0.66 0 1 0 C1 5.28 1 10.56 1 16 C1.99 16 2.98 16 4 16 C4 12.37 4 8.74 4 5 C4.66 5 5.32 5 6 5 C6 9.29 6 13.58 6 18 C3.69 18 1.38 18 -1 18 C-1.02690844 15.37493198 -1.04679404 12.75013827 -1.0625 10.125 C-1.07087891 9.37863281 -1.07925781 8.63226563 -1.08789062 7.86328125 C-1.11328125 2.2265625 -1.11328125 2.2265625 0 0 Z " fill="#252425" transform="translate(196,63)"/>
<path d="M0 0 C0.66 0 1.32 0 2 0 C3.44207941 2.88415883 3.09394887 5.41721528 3.0625 8.625 C3.05347656 9.81351563 3.04445313 11.00203125 3.03515625 12.2265625 C3.02355469 13.14179687 3.01195313 14.05703125 3 15 C3.99 15 4.98 15 6 15 C5.97679688 14.38511719 5.95359375 13.77023438 5.9296875 13.13671875 C5.91164063 12.32847656 5.89359375 11.52023438 5.875 10.6875 C5.85179688 9.88699219 5.82859375 9.08648437 5.8046875 8.26171875 C6 6 6 6 8 3 C8 7.62 8 12.24 8 17 C5.69 17 3.38 17 1 17 C0.67 11.39 0.34 5.78 0 0 Z " fill="#912F5F" transform="translate(106,64)"/>
<path d="M0 0 C2.31 0 4.62 0 7 0 C7 3.63 7 7.26 7 11 C6.01 11.495 6.01 11.495 5 12 C4.67 10.35 4.34 8.7 4 7 C3.34 7 2.68 7 2 7 C1.67 8.32 1.34 9.64 1 11 C-0.20272819 8.59454362 -0.10071472 7.05003047 -0.0625 4.375 C-0.05347656 3.55773438 -0.04445312 2.74046875 -0.03515625 1.8984375 C-0.02355469 1.27195313 -0.01195312 0.64546875 0 0 Z " fill="#232323" transform="translate(195,51)"/>
<path d="M0 0 C1.65 0.99 3.3 1.98 5 3 C4.67 4.65 4.34 6.3 4 8 C1.6875 8.6875 1.6875 8.6875 -1 9 C-2.875 7.8125 -2.875 7.8125 -4 6 C-3.875 3.9375 -3.875 3.9375 -3 2 C-2.01 1.34 -1.02 0.68 0 0 Z " fill="#181818" transform="translate(308,72)"/>
<path d="M0 0 C2.31 0 4.62 0 7 0 C6.67 0.66 6.34 1.32 6 2 C4.68 2 3.36 2 2 2 C2 8.27 2 14.54 2 21 C2.66 21 3.32 21 4 21 C4 21.66 4 22.32 4 23 C2.68 23 1.36 23 0 23 C0 15.41 0 7.82 0 0 Z " fill="#202020" transform="translate(237,58)"/>
<path d="M0 0 C3 0.125 3 0.125 4 1.125 C4.125 4.125 4.125 4.125 4 7.125 C3 8.125 3 8.125 0.5625 8.3125 C-2 8.125 -2 8.125 -4 6.125 C-4.1875 3.5625 -4.1875 3.5625 -4 1.125 C-3 0.125 -3 0.125 0 0 Z " fill="#88275E" transform="translate(85,47.875)"/>
<path d="M0 0 C2.00720923 0.28674418 4.0085944 0.61866701 6 1 C6.625 2.8125 6.625 2.8125 7 5 C6.01 6.485 6.01 6.485 5 8 C2.5 8.3125 2.5 8.3125 0 8 C-0.66 7.34 -1.32 6.68 -2 6 C-1.44444444 1.44444444 -1.44444444 1.44444444 0 0 Z " fill="#181818" transform="translate(247,58)"/>
<path d="M0 0 C2.5625 0.1875 2.5625 0.1875 4.5625 2.1875 C4.00694444 6.74305556 4.00694444 6.74305556 2.5625 8.1875 C0.0625 8.3125 0.0625 8.3125 -2.4375 8.1875 C-3.4375 7.1875 -3.4375 7.1875 -3.5625 4.1875 C-3.39891479 0.26145498 -3.39891479 0.26145498 0 0 Z " fill="#282828" transform="translate(228.4375,47.8125)"/>
<path d="M0 0 C2.875 -0.125 2.875 -0.125 6 0 C8.40346379 2.40346379 8.32083747 3.13900195 8.375 6.4375 C8.28645508 10.67403387 8.28645508 10.67403387 6.1875 13.0625 C4 14 4 14 1 14 C1 14.99 1 15.98 1 17 C2.32 17 3.64 17 5 17 C5 17.66 5 18.32 5 19 C-0.875 18.125 -0.875 18.125 -2 17 C-2.04080783 15.00041636 -2.04254356 12.99954746 -2 11 C-0.865625 11.020625 0.26875 11.04125 1.4375 11.0625 C4.81575674 11.41577477 4.81575674 11.41577477 6 10 C6.04092937 7.66702567 6.04241723 5.33294775 6 3 C4.02 2.34 2.04 1.68 0 1 C0 0.67 0 0.34 0 0 Z " fill="#A5375F" transform="translate(142,63)"/>
<path d="M0 0 C2.475 0.99 2.475 0.99 5 2 C4.67 2.66 4.34 3.32 4 4 C3.34 4 2.68 4 2 4 C1.01 6.97 0.02 9.94 -1 13 C-1.99 13 -2.98 13 -4 13 C-3.50269348 8.02693484 -2.44697666 4.36200187 0 0 Z " fill="#EA4C6E" transform="translate(187,59)"/>
<path d="M0 0 C0.598125 0.226875 1.19625 0.45375 1.8125 0.6875 C1.02875 1.14125 0.245 1.595 -0.5625 2.0625 C-3.22448031 3.57178742 -3.22448031 3.57178742 -5.1875 5.6875 C-5.94347816 9.59471343 -5.92514514 13.27389433 -4.06640625 16.8359375 C-2.85613859 18.51591244 -1.52944423 20.11071553 -0.1875 21.6875 C-3.0852722 20.38849867 -5.14593823 19.13399964 -7.1875 16.6875 C-8.42782748 12.49550713 -8.68700912 8.83637098 -6.9375 4.8125 C-6.36 4.11125 -5.7825 3.41 -5.1875 2.6875 C-4.4759375 1.759375 -4.4759375 1.759375 -3.75 0.8125 C-2.1875 -0.3125 -2.1875 -0.3125 0 0 Z " fill="#1A1A1A" transform="translate(261.1875,58.3125)"/>
<path d="M0 0 C0 1.32 0 2.64 0 4 C0.99 4.66 1.98 5.32 3 6 C2.34 6 1.68 6 1 6 C1 6.99 1 7.98 1 9 C1.66 9 2.32 9 3 9 C2.67 9.99 2.34 10.98 2 12 C0 11 0 11 -1.3125 7.5625 C-2.63812644 3.85080438 -2.63812644 3.85080438 -5.6875 2.5625 C-6.8321875 2.2840625 -6.8321875 2.2840625 -8 2 C-6.14210462 -1.71579076 -3.44525918 -1.06921837 0 0 Z " fill="#CE3D6D" transform="translate(151,60)"/>
<path d="M0 0 C2.375 1.9375 2.375 1.9375 4 4 C4 4.66 4 5.32 4 6 C3.34 6 2.68 6 2 6 C1.5875 5.34 1.175 4.68 0.75 4 C-0.90395714 1.65015047 -0.90395714 1.65015047 -4.125 1.6875 C-6.89350443 1.68465212 -6.89350443 1.68465212 -8 3 C-11.47256915 3.30867281 -13.3872288 3.38701339 -16.375 1.5 C-16.91125 1.005 -17.4475 0.51 -18 0 C-16.948125 0.20625 -15.89625 0.4125 -14.8125 0.625 C-9.18030005 1.17898688 -5.72714645 -1.70595852 0 0 Z " fill="#93285B" transform="translate(124,58)"/>
<path d="M0 0 C2.9375 0.75 2.9375 0.75 6 2 C6.9375 4.0625 6.9375 4.0625 7 6 C6 7 6 7 3.71484375 7.09765625 C2.34005859 7.08025391 2.34005859 7.08025391 0.9375 7.0625 C0.01839844 7.05347656 -0.90070313 7.04445313 -1.84765625 7.03515625 C-2.55792969 7.02355469 -3.26820313 7.01195313 -4 7 C-4 6.01 -4 5.02 -4 4 C-1.03 4.33 1.94 4.66 5 5 C4.67 4.34 4.34 3.68 4 3 C1.47266765 2.34444881 1.47266765 2.34444881 -1 2 C-0.67 1.34 -0.34 0.68 0 0 Z " fill="#1A1A1A" transform="translate(264,61)"/>
<path d="M0 0 C0.66 0 1.32 0 2 0 C2 3.96 2 7.92 2 12 C3.32 11.34 4.64 10.68 6 10 C6.33 10.99 6.66 11.98 7 13 C4.69 13 2.38 13 0 13 C0 8.71 0 4.42 0 0 Z " fill="#1D1D1D" transform="translate(214,68)"/>
<path d="M0 0 C0.99 0.33 1.98 0.66 3 1 C3 4.96 3 8.92 3 13 C2.67 12.34 2.34 11.68 2 11 C1.34 11 0.68 11 0 11 C0 7.37 0 3.74 0 0 Z " fill="#2F2F2F" transform="translate(239,68)"/>
<path d="M0 0 C2.31 0 4.62 0 7 0 C6.67 0.99 6.34 1.98 6 3 C3.525 2.01 3.525 2.01 1 1 C0.80664062 1.60328125 0.61328125 2.2065625 0.4140625 2.828125 C0.15367187 3.62734375 -0.10671875 4.4265625 -0.375 5.25 C-0.63023437 6.03890625 -0.88546875 6.8278125 -1.1484375 7.640625 C-1.95173667 9.86627958 -2.89711662 11.90931672 -4 14 C-4.66 13.67 -5.32 13.34 -6 13 C-4.02 8.71 -2.04 4.42 0 0 Z " fill="#C4556E" transform="translate(186,58)"/>
<path d="M0 0 C0.66 0.66 1.32 1.32 2 2 C0.515 4.475 0.515 4.475 -1 7 C-2.65 6.67 -4.3 6.34 -6 6 C-6 5.01 -6 4.02 -6 3 C-4.02 2.01 -2.04 1.02 0 0 Z " fill="#CA3D6D" transform="translate(149,74)"/>
<path d="M0 0 C0.99 0.66 1.98 1.32 3 2 C2.67 3.65 2.34 5.3 2 7 C0.35 6.01 -1.3 5.02 -3 4 C-2.67 3.01 -2.34 2.02 -2 1 C-1.34 0.67 -0.68 0.34 0 0 Z " fill="#2E2E2E" transform="translate(249,59)"/>
<path d="M0 0 C2.03144641 0.93446535 4.03533587 1.93224776 6 3 C4 4 4 4 1.5625 4.375 C-1.23006635 5.05611374 -2.20096687 5.82222306 -4 8 C-4.33 7.01 -4.66 6.02 -5 5 C-4.34 5 -3.68 5 -3 5 C-2.87625 4.360625 -2.7525 3.72125 -2.625 3.0625 C-2.41875 2.381875 -2.2125 1.70125 -2 1 C-1.34 0.67 -0.68 0.34 0 0 Z " fill="#A1245D" transform="translate(116,61)"/>
<path d="M0 0 C0.66 0.33 1.32 0.66 2 1 C2 4.63 2 8.26 2 12 C1.34 12 0.68 12 0 12 C-0.19401633 10.18818595 -0.38004375 8.37551468 -0.5625 6.5625 C-0.66691406 5.55316406 -0.77132812 4.54382813 -0.87890625 3.50390625 C-0.91886719 2.67761719 -0.95882812 1.85132812 -1 1 C-0.67 0.67 -0.34 0.34 0 0 Z " fill="#252525" transform="translate(242,69)"/>
<path d="M0 0 C1.32 0.66 2.64 1.32 4 2 C4 3.32 4 4.64 4 6 C2.35 5.67 0.7 5.34 -1 5 C-0.67 3.35 -0.34 1.7 0 0 Z " fill="#2F2F2F" transform="translate(307,73)"/>
<path d="M0 0 C0.33 0 0.66 0 1 0 C1 1.65 1 3.3 1 5 C-1.97 5 -4.94 5 -8 5 C-6.25 2.9375 -6.25 2.9375 -4 1 C-1.75 1.25 -1.75 1.25 0 2 C0 1.34 0 0.68 0 0 Z " fill="#303030" transform="translate(293,58)"/>
<path d="M0 0 C1.32 0 2.64 0 4 0 C4.33 2.31 4.66 4.62 5 7 C4.01 7.495 4.01 7.495 3 8 C3 7.01 3 6.02 3 5 C2.34 5 1.68 5 1 5 C0.67 3.35 0.34 1.7 0 0 Z " fill="#E2466D" transform="translate(170,59)"/>
<path d="M0 0 C2.78211944 0.37596209 4.5879284 0.67318459 6.8125 2.4375 C8 4 8 4 8 6 C6.35 6 4.7 6 3 6 C3.33 4.68 3.66 3.36 4 2 C2.68 1.34 1.36 0.68 0 0 Z " fill="#B43F65" transform="translate(147,58)"/>
<path d="M0 0 C0.66 1.32 1.32 2.64 2 4 C-1 6 -1 6 -3.1875 5.625 C-3.785625 5.41875 -4.38375 5.2125 -5 5 C-5 4.01 -5 3.02 -5 2 C-3.02 2.495 -3.02 2.495 -1 3 C-0.67 2.01 -0.34 1.02 0 0 Z " fill="#731B49" transform="translate(76,53)"/>
<path d="M0 0 C2.31 0.66 4.62 1.32 7 2 C6.67 2.66 6.34 3.32 6 4 C4.02 4 2.04 4 0 4 C0 2.68 0 1.36 0 0 Z " fill="#313131" transform="translate(286,76)"/>
<path d="M0 0 C2.0625 0.4375 2.0625 0.4375 4 1 C3.67 2.32 3.34 3.64 3 5 C1.68 4.67 0.36 4.34 -1 4 C-1 1 -1 1 0 0 Z " fill="#2F2F2F" transform="translate(272,65)"/>
<path d="M0 0 C0.66 0.33 1.32 0.66 2 1 C2 2.65 2 4.3 2 6 C0.68 6 -0.64 6 -2 6 C-1.125 1.125 -1.125 1.125 0 0 Z " fill="#981C65" transform="translate(86,49)"/>
<path d="M0 0 C1.99954746 -0.04254356 4.00041636 -0.04080783 6 0 C7 1 7 1 7.0625 4.0625 C7.041875 5.031875 7.02125 6.00125 7 7 C6.67 7 6.34 7 6 7 C5.67 5.35 5.34 3.7 5 2 C3.02 2.33 1.04 2.66 -1 3 C-0.67 2.01 -0.34 1.02 0 0 Z " fill="#73204E" transform="translate(82,48)"/>
<path d="" fill="#000000" transform="translate(0,0)"/>
<path d="" fill="#000000" transform="translate(0,0)"/>
</svg>
